Bungee_Layers-Outline.ufo
<glyph name="quotedbl" format="1">
  <advance width="646"/>
  <unicode hex="0022"/>
  <outline>
    <contour>
      <point x="602.0" y="385" type="curve" smooth="yes"/>
      <point x="610.0" y="679" type="line" smooth="yes"/>
      <point x="611.0" y="723"/>
      <point x="604.0" y="730"/>
      <point x="561.0" y="730" type="curve" smooth="yes"/>
      <point x="396.0" y="730" type="line" smooth="yes"/>
      <point x="352.0" y="730"/>
      <point x="345.0" y="722"/>
      <point x="346.0" y="679" type="curve" smooth="yes"/>
      <point x="354.0" y="386" type="line" smooth="yes"/>
      <point x="355.0" y="342"/>
      <point x="363.0" y="335"/>
      <point x="406.0" y="335" type="curve" smooth="yes"/>
      <point x="550.0" y="335" type="line" smooth="yes"/>
      <point x="593.0" y="335"/>
      <point x="600.0" y="342"/>
    </contour>
    <contour>
      <point x="292.0" y="385" type="curve" smooth="yes"/>
      <point x="300.0" y="679" type="line" smooth="yes"/>
      <point x="301.0" y="723"/>
      <point x="294.0" y="730"/>
      <point x="251.0" y="730" type="curve" smooth="yes"/>
      <point x="86.0" y="730" type="line" smooth="yes"/>
      <point x="42.0" y="730"/>
      <point x="35.0" y="722"/>
      <point x="36.0" y="679" type="curve" smooth="yes"/>
      <point x="44.0" y="386" type="line" smooth="yes"/>
      <point x="45.0" y="342"/>
      <point x="53.0" y="335"/>
      <point x="96.0" y="335" type="curve" smooth="yes"/>
      <point x="240.0" y="335" type="line" smooth="yes"/>
      <point x="283.0" y="335"/>
      <point x="290.0" y="342"/>
    </contour>
  </outline>
</glyph>
<glyph name="dollar" format="1">
  <advance width="650"/>
  <unicode hex="0024"/>
  <outline>
    <contour>
      <point x="405" y="-100" type="line" smooth="yes"/>
      <point x="437" y="-100"/>
      <point x="451" y="-86"/>
      <point x="451" y="-54" type="curve" smooth="yes"/>
      <point x="451" y="-7" type="line"/>
      <point x="558" y="7"/>
      <point x="620" y="71"/>
      <point x="620" y="176" type="curve" smooth="yes"/>
      <point x="620" y="281" type="line" smooth="yes"/>
      <point x="620" y="399"/>
      <point x="555" y="442"/>
      <point x="455" y="457" type="curve" smooth="yes"/>
      <point x="306" y="477" type="line" smooth="yes"/>
      <point x="294" y="478"/>
      <point x="288" y="487"/>
      <point x="288" y="499" type="curve" smooth="yes"/>
      <point x="288" y="510"/>
      <point x="294" y="519"/>
      <point x="305" y="519" type="curve" smooth="yes"/>
      <point x="538" y="519" type="line" smooth="yes"/>
      <point x="570" y="519"/>
      <point x="584" y="533"/>
      <point x="584" y="565" type="curve" smooth="yes"/>
      <point x="584" y="684" type="line" smooth="yes"/>
      <point x="584" y="716"/>
      <point x="570" y="730"/>
      <point x="538" y="730" type="curve" smooth="yes"/>
      <point x="451" y="730" type="line"/>
      <point x="451" y="774" type="line" smooth="yes"/>
      <point x="451" y="806"/>
      <point x="437" y="820"/>
      <point x="405" y="820" type="curve" smooth="yes"/>
      <point x="260" y="820" type="line" smooth="yes"/>
      <point x="228" y="820"/>
      <point x="214" y="806"/>
      <point x="214" y="774" type="curve" smooth="yes"/>
      <point x="214" y="728" type="line"/>
      <point x="104" y="714"/>
      <point x="41" y="651"/>
      <point x="41" y="544" type="curve" smooth="yes"/>
      <point x="41" y="439" type="line" smooth="yes"/>
      <point x="41" y="321"/>
      <point x="105" y="278"/>
      <point x="205" y="263" type="curve" smooth="yes"/>
      <point x="355" y="242" type="line" smooth="yes"/>
      <point x="367" y="241"/>
      <point x="372" y="233"/>
      <point x="372" y="218" type="curve" smooth="yes"/>
      <point x="372" y="208"/>
      <point x="367" y="199"/>
      <point x="356" y="199" type="curve" smooth="yes"/>
      <point x="87" y="199" type="line" smooth="yes"/>
      <point x="55" y="199"/>
      <point x="41" y="185"/>
      <point x="41" y="153" type="curve" smooth="yes"/>
      <point x="41" y="36" type="line" smooth="yes"/>
      <point x="41" y="4"/>
      <point x="55" y="-10"/>
      <point x="87" y="-10" type="curve" smooth="yes"/>
      <point x="214" y="-10" type="line"/>
      <point x="214" y="-54" type="line" smooth="yes"/>
      <point x="214" y="-86"/>
      <point x="228" y="-100"/>
      <point x="260" y="-100" type="curve" smooth="yes"/>
    </contour>
  </outline>
</glyph>
<glyph name="one" format="1">
  <advance width="601"/>
  <unicode hex="0031"/>
  <outline>
    <contour>
      <point x="84.0" y="-10" type="curve" smooth="yes"/>
      <point x="526.0" y="-10" type="line" smooth="yes"/>
      <point x="558.0" y="-10"/>
      <point x="572.0" y="4"/>
      <point x="572.0" y="36" type="curve" smooth="yes"/>
      <point x="572.0" y="157" type="line" smooth="yes"/>
      <point x="572.0" y="189"/>
      <point x="558.0" y="203"/>
      <point x="526.0" y="203" type="curve" smooth="yes"/>
      <point x="440.0" y="203" type="line"/>
      <point x="440.0" y="684" type="line" smooth="yes"/>
      <point x="440.0" y="716"/>
      <point x="426.0" y="730"/>
      <point x="394.0" y="730" type="curve" smooth="yes"/>
      <point x="104.0" y="730" type="line" smooth="yes"/>
      <point x="72.0" y="730"/>
      <point x="58.0" y="716"/>
      <point x="58.0" y="684" type="curve" smooth="yes"/>
      <point x="58.0" y="563" type="line" smooth="yes"/>
      <point x="58.0" y="531"/>
      <point x="72.0" y="517"/>
      <point x="104.0" y="517" type="curve" smooth="yes"/>
      <point x="186.0" y="517" type="line"/>
      <point x="186.0" y="203" type="line"/>
      <point x="84.0" y="203" type="line" smooth="yes"/>
      <point x="52.0" y="203"/>
      <point x="38.0" y="189"/>
      <point x="38.0" y="157" type="curve" smooth="yes"/>
      <point x="38.0" y="36" type="line" smooth="yes"/>
      <point x="38.0" y="4"/>
      <point x="52.0" y="-10"/>
    </contour>
  </outline>
</glyph>
<glyph name="two" format="1">
  <advance width="639"/>
  <unicode hex="0032"/>
  <outline>
    <contour>
      <point x="76.0" y="-10" type="curve" smooth="yes"/>
      <point x="552.0" y="-10" type="line" smooth="yes"/>
      <point x="584.0" y="-10"/>
      <point x="598.0" y="4"/>
      <point x="598.0" y="36" type="curve" smooth="yes"/>
      <point x="598.0" y="153" type="line" smooth="yes"/>
      <point x="598.0" y="185"/>
      <point x="584.0" y="199"/>
      <point x="552.0" y="199" type="curve" smooth="yes"/>
      <point x="277.0" y="199" type="line"/>
      <point x="277.0" y="210" type="line" smooth="yes"/>
      <point x="277.0" y="226"/>
      <point x="282.0" y="226"/>
      <point x="296.0" y="230" type="curve" smooth="yes"/>
      <point x="432.0" y="273" type="line" smooth="yes"/>
      <point x="534.0" y="305"/>
      <point x="595.0" y="354"/>
      <point x="595.0" y="460" type="curve" smooth="yes"/>
      <point x="595.0" y="554" type="line" smooth="yes"/>
      <point x="595.0" y="668"/>
      <point x="530.0" y="730"/>
      <point x="409.0" y="730" type="curve" smooth="yes"/>
      <point x="114.0" y="730" type="line" smooth="yes"/>
      <point x="82.0" y="730"/>
      <point x="68.0" y="716"/>
      <point x="68.0" y="684" type="curve" smooth="yes"/>
      <point x="68.0" y="567" type="line" smooth="yes"/>
      <point x="68.0" y="535"/>
      <point x="82.0" y="521"/>
      <point x="114.0" y="521" type="curve" smooth="yes"/>
      <point x="331.0" y="521" type="line" smooth="yes"/>
      <point x="343.0" y="521"/>
      <point x="348.0" y="518"/>
      <point x="348.0" y="505" type="curve" smooth="yes"/>
      <point x="348.0" y="489"/>
      <point x="344.0" y="483"/>
      <point x="328.0" y="479" type="curve" smooth="yes"/>
      <point x="194.0" y="437" type="line" smooth="yes"/>
      <point x="98.0" y="407"/>
      <point x="30.0" y="370"/>
      <point x="30.0" y="208" type="curve" smooth="yes"/>
      <point x="30.0" y="36" type="line"/>
      <point x="30.0" y="4"/>
      <point x="44.0" y="-10"/>
    </contour>
  </outline>
</glyph>
<glyph name="six" format="1">
  <advance width="693"/>
  <unicode hex="0036"/>
  <outline>
    <contour>
      <point x="358.0" y="-25" type="curve" smooth="yes"/>
      <point x="599.0" y="-25"/>
      <point x="656.0" y="61"/>
      <point x="656.0" y="187" type="curve" smooth="yes"/>
      <point x="656.0" y="283" type="line" smooth="yes"/>
      <point x="656.0" y="407"/>
      <point x="602.0" y="473"/>
      <point x="411.0" y="473" type="curve" smooth="yes"/>
      <point x="364.0" y="473"/>
      <point x="325.0" y="469"/>
      <point x="294.0" y="462" type="curve"/>
      <point x="294.0" y="470" type="line" smooth="yes"/>
      <point x="294.0" y="511"/>
      <point x="306.0" y="520"/>
      <point x="347.0" y="520" type="curve" smooth="yes"/>
      <point x="534.0" y="520" type="line" smooth="yes"/>
      <point x="566.0" y="520"/>
      <point x="580.0" y="534"/>
      <point x="580.0" y="566" type="curve" smooth="yes"/>
      <point x="580.0" y="684" type="line" smooth="yes"/>
      <point x="580.0" y="716"/>
      <point x="567.0" y="730"/>
      <point x="534.0" y="730" type="curve" smooth="yes"/>
      <point x="304.0" y="730" type="line" smooth="yes"/>
      <point x="106.0" y="730"/>
      <point x="48.0" y="642"/>
      <point x="48.0" y="515" type="curve" smooth="yes"/>
      <point x="48.0" y="187" type="line" smooth="yes"/>
      <point x="48.0" y="61"/>
      <point x="100.0" y="-25"/>
    </contour>
    <contour>
      <point x="351.0" y="288" type="curve" smooth="yes"/>
      <point x="394.0" y="288"/>
      <point x="410.0" y="279"/>
      <point x="410.0" y="262" type="curve" smooth="yes"/>
      <point x="410.0" y="203" type="line" smooth="yes"/>
      <point x="410.0" y="185"/>
      <point x="395.0" y="176"/>
      <point x="351.0" y="176" type="curve" smooth="yes"/>
      <point x="309.0" y="176"/>
      <point x="294.0" y="185"/>
      <point x="294.0" y="203" type="curve" smooth="yes"/>
      <point x="294.0" y="262" type="line" smooth="yes"/>
      <point x="294.0" y="279"/>
      <point x="309.0" y="288"/>
    </contour>
  </outline>
</glyph>
<glyph name="eight" format="1">
  <advance width="711"/>
  <unicode hex="0038"/>
  <outline>
    <contour>
      <point x="356.0" y="-25" type="curve" smooth="yes"/>
      <point x="611.0" y="-25"/>
      <point x="674.0" y="52"/>
      <point x="674.0" y="159" type="curve" smooth="yes"/>
      <point x="674.0" y="256" type="line" smooth="yes"/>
      <point x="674.0" y="344"/>
      <point x="636.0" y="394"/>
      <point x="584.0" y="414" type="curve"/>
      <point x="615.0" y="436"/>
      <point x="627.0" y="473"/>
      <point x="627.0" y="519" type="curve" smooth="yes"/>
      <point x="627.0" y="577" type="line" smooth="yes"/>
      <point x="627.0" y="679"/>
      <point x="571.0" y="745"/>
      <point x="357.0" y="745" type="curve" smooth="yes"/>
      <point x="143.0" y="745"/>
      <point x="84.0" y="679"/>
      <point x="84.0" y="577" type="curve" smooth="yes"/>
      <point x="84.0" y="519" type="line" smooth="yes"/>
      <point x="84.0" y="473"/>
      <point x="96.0" y="436"/>
      <point x="127.0" y="414" type="curve"/>
      <point x="75.0" y="394"/>
      <point x="37.0" y="344"/>
      <point x="37.0" y="256" type="curve" smooth="yes"/>
      <point x="37.0" y="159" type="line" smooth="yes"/>
      <point x="37.0" y="52"/>
      <point x="101.0" y="-25"/>
    </contour>
    <contour>
      <point x="303.0" y="524" type="line" smooth="yes"/>
      <point x="303.0" y="541"/>
      <point x="316.0" y="550"/>
      <point x="356.0" y="550" type="curve" smooth="yes"/>
      <point x="397.0" y="550"/>
      <point x="408.0" y="541"/>
      <point x="408.0" y="524" type="curve" smooth="yes"/>
      <point x="408.0" y="480" type="line" smooth="yes"/>
      <point x="408.0" y="462"/>
      <point x="398.0" y="453"/>
      <point x="356.0" y="453" type="curve" smooth="yes"/>
      <point x="315.0" y="453"/>
      <point x="303.0" y="462"/>
      <point x="303.0" y="480" type="curve" smooth="yes"/>
    </contour>
    <contour>
      <point x="278.0" y="250" type="line" smooth="yes"/>
      <point x="278.0" y="268"/>
      <point x="304.0" y="276"/>
      <point x="356.0" y="276" type="curve" smooth="yes"/>
      <point x="409.0" y="276"/>
      <point x="433.0" y="268"/>
      <point x="433.0" y="250" type="curve" smooth="yes"/>
      <point x="433.0" y="197" type="line" smooth="yes"/>
      <point x="433.0" y="178"/>
      <point x="409.0" y="170"/>
      <point x="356.0" y="170" type="curve" smooth="yes"/>
      <point x="303.0" y="170"/>
      <point x="278.0" y="178"/>
      <point x="278.0" y="197" type="curve" smooth="yes"/>
    </contour>
  </outline>
</glyph>
<glyph name="nine" format="1">
  <advance width="693"/>
  <unicode hex="0039"/>
  <outline>
    <contour>
      <point x="159.0" y="-10" type="curve" smooth="yes"/>
      <point x="389.0" y="-10" type="line" smooth="yes"/>
      <point x="587.0" y="-10"/>
      <point x="645.0" y="78"/>
      <point x="645.0" y="205" type="curve" smooth="yes"/>
      <point x="645.0" y="533" type="line" smooth="yes"/>
      <point x="645.0" y="659"/>
      <point x="593.0" y="745"/>
      <point x="335.0" y="745" type="curve" smooth="yes"/>
      <point x="94.0" y="745"/>
      <point x="37.0" y="659"/>
      <point x="37.0" y="533" type="curve" smooth="yes"/>
      <point x="37.0" y="437" type="line" smooth="yes"/>
      <point x="37.0" y="313"/>
      <point x="91.0" y="247"/>
      <point x="282.0" y="247" type="curve" smooth="yes"/>
      <point x="329.0" y="247"/>
      <point x="368.0" y="251"/>
      <point x="399.0" y="258" type="curve"/>
      <point x="399.0" y="250" type="line" smooth="yes"/>
      <point x="399.0" y="209"/>
      <point x="387.0" y="200"/>
      <point x="346.0" y="200" type="curve" smooth="yes"/>
      <point x="159.0" y="200" type="line" smooth="yes"/>
      <point x="127.0" y="200"/>
      <point x="113.0" y="186"/>
      <point x="113.0" y="154" type="curve" smooth="yes"/>
      <point x="113.0" y="36" type="line" smooth="yes"/>
      <point x="113.0" y="4"/>
      <point x="126.0" y="-10"/>
    </contour>
    <contour>
      <point x="342.0" y="432" type="curve" smooth="yes"/>
      <point x="299.0" y="432"/>
      <point x="283.0" y="441"/>
      <point x="283.0" y="458" type="curve" smooth="yes"/>
      <point x="283.0" y="517" type="line" smooth="yes"/>
      <point x="283.0" y="535"/>
      <point x="298.0" y="544"/>
      <point x="342.0" y="544" type="curve" smooth="yes"/>
      <point x="384.0" y="544"/>
      <point x="399.0" y="535"/>
      <point x="399.0" y="517" type="curve" smooth="yes"/>
      <point x="399.0" y="458" type="line" smooth="yes"/>
      <point x="399.0" y="441"/>
      <point x="384.0" y="432"/>
    </contour>
  </outline>
</glyph>
<glyph name="F" format="1">
  <advance width="618"/>
  <unicode hex="0046"/>
  <outline>
    <contour>
      <point x="105.0" y="-10" type="curve" smooth="yes"/>
      <point x="260.0" y="-10" type="line" smooth="yes"/>
      <point x="292.0" y="-10"/>
      <point x="306.0" y="4"/>
      <point x="306.0" y="36" type="curve" smooth="yes"/>
      <point x="306.0" y="223" type="line"/>
      <point x="470.0" y="223" type="line" smooth="yes"/>
      <point x="502.0" y="223"/>
      <point x="516.0" y="237"/>
      <point x="516.0" y="269" type="curve" smooth="yes"/>
      <point x="516.0" y="389" type="line" smooth="yes"/>
      <point x="516.0" y="421"/>
      <point x="502.0" y="435"/>
      <point x="470.0" y="435" type="curve" smooth="yes"/>
      <point x="306.0" y="435" type="line"/>
      <point x="306.0" y="519" type="line"/>
      <point x="551.0" y="519" type="line" smooth="yes"/>
      <point x="583.0" y="519"/>
      <point x="597.0" y="533"/>
      <point x="597.0" y="565" type="curve" smooth="yes"/>
      <point x="597.0" y="684" type="line" smooth="yes"/>
      <point x="597.0" y="716"/>
      <point x="583.0" y="730"/>
      <point x="551.0" y="730" type="curve" smooth="yes"/>
      <point x="105.0" y="730" type="line" smooth="yes"/>
      <point x="73.0" y="730"/>
      <point x="59.0" y="716"/>
      <point x="59.0" y="684" type="curve" smooth="yes"/>
      <point x="59.0" y="36" type="line" smooth="yes"/>
      <point x="59.0" y="4"/>
      <point x="73.0" y="-10"/>
    </contour>
  </outline>
</glyph>
<glyph name="J" format="1">
  <advance width="688"/>
  <unicode hex="004A"/>
  <outline>
    <contour>
      <point x="634.0" y="684" type="line" smooth="yes"/>
      <point x="634.0" y="716"/>
      <point x="620.0" y="730"/>
      <point x="588.0" y="730" type="curve" smooth="yes"/>
      <point x="431.0" y="730" type="line" smooth="yes"/>
      <point x="399.0" y="730"/>
      <point x="385.0" y="716"/>
      <point x="385.0" y="684" type="curve" smooth="yes"/>
      <point x="385.0" y="229" type="line" smooth="yes"/>
      <point x="385.0" y="206"/>
      <point x="375.0" y="192"/>
      <point x="329.0" y="192" type="curve" smooth="yes"/>
      <point x="280.0" y="192"/>
      <point x="268.0" y="206"/>
      <point x="268.0" y="229" type="curve" smooth="yes"/>
      <point x="268.0" y="351" type="line" smooth="yes"/>
      <point x="268.0" y="384"/>
      <point x="254.0" y="397"/>
      <point x="222.0" y="397" type="curve" smooth="yes"/>
      <point x="77.0" y="397" type="line" smooth="yes"/>
      <point x="45.0" y="397"/>
      <point x="31.0" y="384"/>
      <point x="31.0" y="351" type="curve" smooth="yes"/>
      <point x="31.0" y="189" type="line"/>
      <point x="31.0" y="63"/>
      <point x="87.0" y="-25"/>
      <point x="331.0" y="-25" type="curve" smooth="yes"/>
      <point x="578.0" y="-25"/>
      <point x="634.0" y="63"/>
      <point x="634.0" y="189" type="curve" smooth="yes"/>
    </contour>
  </outline>
</glyph>
<glyph name="L" format="1">
  <advance width="695"/>
  <unicode hex="004C"/>
  <outline>
    <contour>
      <point x="105.0" y="-10" type="curve" smooth="yes"/>
      <point x="614.0" y="-10" type="line" smooth="yes"/>
      <point x="646.0" y="-10"/>
      <point x="660.0" y="4"/>
      <point x="660.0" y="36" type="curve" smooth="yes"/>
      <point x="660.0" y="351" type="line" smooth="yes"/>
      <point x="660.0" y="383"/>
      <point x="646.0" y="397"/>
      <point x="614.0" y="397" type="curve" smooth="yes"/>
      <point x="469.0" y="397" type="line" smooth="yes"/>
      <point x="437.0" y="397"/>
      <point x="423.0" y="383"/>
      <point x="423.0" y="351" type="curve" smooth="yes"/>
      <point x="423.0" y="199" type="line"/>
      <point x="306.0" y="199" type="line"/>
      <point x="306.0" y="684" type="line" smooth="yes"/>
      <point x="306.0" y="716"/>
      <point x="292.0" y="730"/>
      <point x="260.0" y="730" type="curve" smooth="yes"/>
      <point x="105.0" y="730" type="line" smooth="yes"/>
      <point x="73.0" y="730"/>
      <point x="59.0" y="716"/>
      <point x="59.0" y="684" type="curve" smooth="yes"/>
      <point x="59.0" y="36" type="line" smooth="yes"/>
      <point x="59.0" y="4"/>
      <point x="73.0" y="-10"/>
    </contour>
  </outline>
</glyph>
<glyph name="O" format="1">
  <advance width="737"/>
  <unicode hex="004F"/>
  <outline>
    <contour>
      <point x="689.0" y="530" type="line" smooth="yes"/>
      <point x="689.0" y="656"/>
      <point x="631.0" y="745"/>
      <point x="369.0" y="745" type="curve" smooth="yes"/>
      <point x="107.0" y="745"/>
      <point x="48.0" y="656"/>
      <point x="48.0" y="530" type="curve" smooth="yes"/>
      <point x="48.0" y="189" type="line" smooth="yes"/>
      <point x="48.0" y="63"/>
      <point x="107.0" y="-25"/>
      <point x="369.0" y="-25" type="curve" smooth="yes"/>
      <point x="631.0" y="-25"/>
      <point x="689.0" y="63"/>
      <point x="689.0" y="189" type="curve" smooth="yes"/>
    </contour>
    <contour>
      <point x="295.0" y="494" type="line" smooth="yes"/>
      <point x="295.0" y="517"/>
      <point x="313.0" y="530"/>
      <point x="369.0" y="530" type="curve" smooth="yes"/>
      <point x="426.0" y="530"/>
      <point x="443.0" y="517"/>
      <point x="443.0" y="494" type="curve" smooth="yes"/>
      <point x="443.0" y="225" type="line" smooth="yes"/>
      <point x="443.0" y="201"/>
      <point x="426.0" y="188"/>
      <point x="369.0" y="188" type="curve" smooth="yes"/>
      <point x="312.0" y="188"/>
      <point x="295.0" y="201"/>
      <point x="295.0" y="225" type="curve" smooth="yes"/>
    </contour>
  </outline>
</glyph>
<glyph name="R" format="1">
  <advance width="743"/>
  <unicode hex="0052"/>
  <outline>
    <contour>
      <point x="370.0" y="530" type="line" smooth="yes"/>
      <point x="398.0" y="530"/>
      <point x="404.0" y="514"/>
      <point x="404.0" y="493" type="curve" smooth="yes"/>
      <point x="404.0" y="459" type="line" smooth="yes"/>
      <point x="404.0" y="438"/>
      <point x="398.0" y="422"/>
      <point x="370.0" y="422" type="curve" smooth="yes"/>
      <point x="305.0" y="422" type="line"/>
      <point x="305.0" y="530" type="line"/>
    </contour>
    <contour>
      <point x="259.0" y="-10" type="line" smooth="yes"/>
      <point x="291.0" y="-10"/>
      <point x="305.0" y="4"/>
      <point x="305.0" y="36" type="curve" smooth="yes"/>
      <point x="305.0" y="222" type="line"/>
      <point x="435.0" y="222" type="line" smooth="yes"/>
      <point x="456.0" y="222"/>
      <point x="463.0" y="211"/>
      <point x="463.0" y="189" type="curve" smooth="yes"/>
      <point x="463.0" y="36" type="line" smooth="yes"/>
      <point x="463.0" y="4"/>
      <point x="477.0" y="-10"/>
      <point x="509.0" y="-10" type="curve" smooth="yes"/>
      <point x="664.0" y="-10" type="line" smooth="yes"/>
      <point x="696.0" y="-10"/>
      <point x="710.0" y="4"/>
      <point x="710.0" y="36" type="curve" smooth="yes"/>
      <point x="710.0" y="248" type="line" smooth="yes"/>
      <point x="710.0" y="327"/>
      <point x="669.0" y="380"/>
      <point x="606.0" y="398" type="curve"/>
      <point x="634.0" y="421"/>
      <point x="645.0" y="458"/>
      <point x="645.0" y="507" type="curve" smooth="yes"/>
      <point x="645.0" y="553" type="line" smooth="yes"/>
      <point x="645.0" y="657"/>
      <point x="597.0" y="730"/>
      <point x="438.0" y="730" type="curve" smooth="yes"/>
      <point x="105.0" y="730" type="line" smooth="yes"/>
      <point x="73.0" y="730"/>
      <point x="59.0" y="716"/>
      <point x="59.0" y="684" type="curve" smooth="yes"/>
      <point x="59.0" y="36" type="line" smooth="yes"/>
      <point x="59.0" y="4"/>
      <point x="73.0" y="-10"/>
      <point x="105.0" y="-10" type="curve" smooth="yes"/>
    </contour>
  </outline>
</glyph>
<glyph name="S" format="1">
  <advance width="650"/>
  <unicode hex="0053"/>
  <outline>
    <contour>
      <point x="620.0" y="176" type="curve" smooth="yes"/>
      <point x="620.0" y="281" type="line" smooth="yes"/>
      <point x="620.0" y="399"/>
      <point x="555.0" y="442"/>
      <point x="455.0" y="457" type="curve" smooth="yes"/>
      <point x="306.0" y="477" type="line" smooth="yes"/>
      <point x="294.0" y="478"/>
      <point x="288.0" y="487"/>
      <point x="288.0" y="499" type="curve" smooth="yes"/>
      <point x="288.0" y="510"/>
      <point x="294.0" y="519"/>
      <point x="305.0" y="519" type="curve" smooth="yes"/>
      <point x="538.0" y="519" type="line" smooth="yes"/>
      <point x="570.0" y="519"/>
      <point x="584.0" y="533"/>
      <point x="584.0" y="565" type="curve" smooth="yes"/>
      <point x="584.0" y="684" type="line" smooth="yes"/>
      <point x="584.0" y="716"/>
      <point x="570.0" y="730"/>
      <point x="538.0" y="730" type="curve" smooth="yes"/>
      <point x="258.0" y="730" type="line" smooth="yes"/>
      <point x="121.0" y="730"/>
      <point x="41.0" y="664"/>
      <point x="41.0" y="544" type="curve" smooth="yes"/>
      <point x="41.0" y="439" type="line" smooth="yes"/>
      <point x="41.0" y="321"/>
      <point x="105.0" y="278"/>
      <point x="205.0" y="263" type="curve" smooth="yes"/>
      <point x="355.0" y="242" type="line" smooth="yes"/>
      <point x="367.0" y="241"/>
      <point x="372.0" y="233"/>
      <point x="372.0" y="218" type="curve" smooth="yes"/>
      <point x="372.0" y="208"/>
      <point x="367.0" y="199"/>
      <point x="356.0" y="199" type="curve" smooth="yes"/>
      <point x="87.0" y="199" type="line" smooth="yes"/>
      <point x="55.0" y="199"/>
      <point x="41.0" y="185"/>
      <point x="41.0" y="153" type="curve" smooth="yes"/>
      <point x="41.0" y="36" type="line" smooth="yes"/>
      <point x="41.0" y="4"/>
      <point x="55.0" y="-10"/>
      <point x="87.0" y="-10" type="curve" smooth="yes"/>
      <point x="403.0" y="-10" type="line" smooth="yes"/>
      <point x="539.0" y="-10"/>
      <point x="620.0" y="56"/>
    </contour>
  </outline>
</glyph>
<glyph name="Z" format="1">
  <advance width="660"/>
  <unicode hex="005A"/>
  <outline>
    <contour>
      <point x="82.0" y="-10" type="curve" smooth="yes"/>
      <point x="578.0" y="-10" type="line" smooth="yes"/>
      <point x="610.0" y="-10"/>
      <point x="624.0" y="4"/>
      <point x="624.0" y="36" type="curve" smooth="yes"/>
      <point x="624.0" y="155" type="line" smooth="yes"/>
      <point x="624.0" y="187"/>
      <point x="610.0" y="201"/>
      <point x="578.0" y="201" type="curve" smooth="yes"/>
      <point x="360.0" y="201" type="line"/>
      <point x="579.0" y="466" type="line"/>
      <point x="598.0" y="486"/>
      <point x="606.0" y="505"/>
      <point x="606.0" y="535" type="curve" smooth="yes"/>
      <point x="606.0" y="684" type="line" smooth="yes"/>
      <point x="606.0" y="716"/>
      <point x="592.0" y="730"/>
      <point x="560.0" y="730" type="curve" smooth="yes"/>
      <point x="100.0" y="730" type="line" smooth="yes"/>
      <point x="68.0" y="730"/>
      <point x="54.0" y="716"/>
      <point x="54.0" y="684" type="curve" smooth="yes"/>
      <point x="54.0" y="563" type="line" smooth="yes"/>
      <point x="54.0" y="531"/>
      <point x="68.0" y="517"/>
      <point x="100.0" y="517" type="curve" smooth="yes"/>
      <point x="293.0" y="517" type="line"/>
      <point x="63.0" y="238" type="line"/>
      <point x="44.0" y="218"/>
      <point x="36.0" y="199"/>
      <point x="36.0" y="170" type="curve" smooth="yes"/>
      <point x="36.0" y="36" type="line" smooth="yes"/>
      <point x="36.0" y="4"/>
      <point x="50.0" y="-10"/>
    </contour>
    <contour>
      <point x="330.0" y="747.0" type="move" name="top"/>
    </contour>
    <contour>
      <point x="330.0" y="0.0" type="move" name="bottom"/>
    </contour>
  </outline>
</glyph>
<glyph name="bracketright" format="1">
  <advance width="429"/>
  <unicode hex="005D"/>
  <outline>
    <contour>
      <point x="81.0" y="-90" type="curve" smooth="yes"/>
      <point x="345.0" y="-90" type="line" smooth="yes"/>
      <point x="377.0" y="-90"/>
      <point x="391.0" y="-76"/>
      <point x="391.0" y="-44" type="curve" smooth="yes"/>
      <point x="391.0" y="764" type="line" smooth="yes"/>
      <point x="391.0" y="796"/>
      <point x="377.0" y="810"/>
      <point x="345.0" y="810" type="curve" smooth="yes"/>
      <point x="81.0" y="810" type="line" smooth="yes"/>
      <point x="49.0" y="810"/>
      <point x="35.0" y="796"/>
      <point x="35.0" y="764" type="curve" smooth="yes"/>
      <point x="35.0" y="643" type="line" smooth="yes"/>
      <point x="35.0" y="611"/>
      <point x="49.0" y="597"/>
      <point x="81.0" y="597" type="curve" smooth="yes"/>
      <point x="143.0" y="597" type="line"/>
      <point x="143.0" y="121" type="line"/>
      <point x="81.0" y="121" type="line" smooth="yes"/>
      <point x="49.0" y="121"/>
      <point x="35.0" y="107"/>
      <point x="35.0" y="75" type="curve" smooth="yes"/>
      <point x="35.0" y="-44" type="line" smooth="yes"/>
      <point x="35.0" y="-76"/>
      <point x="49.0" y="-90"/>
    </contour>
  </outline>
</glyph>
<glyph name="asciicircum" format="1">
  <advance width="714"/>
  <unicode hex="005E"/>
  <outline>
    <contour>
      <point x="253.0" y="205" type="curve"/>
      <point x="253.0" y="203" type="line"/>
      <point x="331.0" y="492" type="line"/>
      <point x="332.0" y="499"/>
      <point x="332.0" y="503"/>
      <point x="339.0" y="502" type="curve" smooth="yes"/>
      <point x="341.0" y="502" type="line" smooth="yes"/>
      <point x="347.0" y="503"/>
      <point x="347.0" y="499"/>
      <point x="348.0" y="493" type="curve"/>
      <point x="426.0" y="203" type="line"/>
      <point x="426.0" y="205" type="line"/>
      <point x="430.0" y="174"/>
      <point x="445.0" y="160"/>
      <point x="477.0" y="161" type="curve" smooth="yes"/>
      <point x="609.0" y="162" type="line" smooth="yes"/>
      <point x="642.0" y="162"/>
      <point x="655.0" y="177"/>
      <point x="649.0" y="210" type="curve"/>
      <point x="541.0" y="592" type="line" smooth="yes"/>
      <point x="514.0" y="680"/>
      <point x="481.0" y="727"/>
      <point x="376.0" y="727" type="curve" smooth="yes"/>
      <point x="303.0" y="727" type="line" smooth="yes"/>
      <point x="198.0" y="727"/>
      <point x="164.0" y="680"/>
      <point x="138.0" y="592" type="curve" smooth="yes"/>
      <point x="30.0" y="211" type="line"/>
      <point x="30.0" y="210" type="line" smooth="yes"/>
      <point x="24.0" y="177"/>
      <point x="37.0" y="162"/>
      <point x="70.0" y="162" type="curve"/>
      <point x="202.0" y="161" type="line" smooth="yes"/>
      <point x="234.0" y="160"/>
      <point x="249.0" y="174"/>
    </contour>
  </outline>
</glyph>
<glyph name="braceleft" format="1">
  <advance width="455"/>
  <unicode hex="007B"/>
  <outline>
    <contour>
      <point x="330.0" y="-90" type="curve" smooth="yes"/>
      <point x="374.0" y="-90" type="line" smooth="yes"/>
      <point x="406.0" y="-90"/>
      <point x="420.0" y="-76"/>
      <point x="420.0" y="-44" type="curve" smooth="yes"/>
      <point x="420.0" y="75" type="line" smooth="yes"/>
      <point x="420.0" y="107"/>
      <point x="406.0" y="121"/>
      <point x="374.0" y="121" type="curve" smooth="yes"/>
      <point x="353.0" y="121" type="line" smooth="yes"/>
      <point x="327.0" y="121"/>
      <point x="322.0" y="135"/>
      <point x="322.0" y="161" type="curve" smooth="yes"/>
      <point x="322.0" y="276" type="line" smooth="yes"/>
      <point x="322.0" y="323"/>
      <point x="309.0" y="341"/>
      <point x="269.0" y="348" type="curve" smooth="yes"/>
      <point x="236.0" y="354" type="line" smooth="yes"/>
      <point x="233.0" y="354"/>
      <point x="231.0" y="355"/>
      <point x="231.0" y="358" type="curve" smooth="yes"/>
      <point x="231.0" y="361"/>
      <point x="232.0" y="362"/>
      <point x="235.0" y="362" type="curve" smooth="yes"/>
      <point x="269.0" y="368" type="line" smooth="yes"/>
      <point x="309.0" y="375"/>
      <point x="322.0" y="393"/>
      <point x="322.0" y="440" type="curve" smooth="yes"/>
      <point x="322.0" y="557" type="line" smooth="yes"/>
      <point x="322.0" y="583"/>
      <point x="327.0" y="597"/>
      <point x="353.0" y="597" type="curve" smooth="yes"/>
      <point x="374.0" y="597" type="line" smooth="yes"/>
      <point x="406.0" y="597"/>
      <point x="420.0" y="611"/>
      <point x="420.0" y="643" type="curve" smooth="yes"/>
      <point x="420.0" y="764" type="line" smooth="yes"/>
      <point x="420.0" y="796"/>
      <point x="406.0" y="810"/>
      <point x="374.0" y="810" type="curve" smooth="yes"/>
      <point x="330.0" y="810" type="line" smooth="yes"/>
      <point x="132.0" y="810"/>
      <point x="74.0" y="722"/>
      <point x="74.0" y="595" type="curve" smooth="yes"/>
      <point x="74.0" y="470" type="line"/>
      <point x="31.0" y="454"/>
      <point x="10.0" y="426"/>
      <point x="10.0" y="376" type="curve" smooth="yes"/>
      <point x="10.0" y="341" type="line"/>
      <point x="10.0" y="291"/>
      <point x="31.0" y="262"/>
      <point x="74.0" y="246" type="curve"/>
      <point x="74.0" y="124" type="line" smooth="yes"/>
      <point x="74.0" y="-2"/>
      <point x="132.0" y="-90"/>
    </contour>
  </outline>
</glyph>
<glyph name="asciitilde" format="1">
  <advance width="734"/>
  <unicode hex="007E"/>
  <outline>
    <contour>
      <point x="630.0" y="277" type="curve" smooth="yes"/>
      <point x="652.0" y="285"/>
      <point x="674.0" y="298"/>
      <point x="674.0" y="339" type="curve" smooth="yes"/>
      <point x="674.0" y="438" type="line" smooth="yes"/>
      <point x="674.0" y="475"/>
      <point x="655.0" y="492"/>
      <point x="609.0" y="479" type="curve" smooth="yes"/>
      <point x="528.0" y="454"/>
      <point x="522.0" y="450"/>
      <point x="399.0" y="468" type="curve" smooth="yes"/>
      <point x="368.0" y="472" type="line"/>
      <point x="344.0" y="475" type="line" smooth="yes"/>
      <point x="228.0" y="492"/>
      <point x="209.0" y="499"/>
      <point x="104.0" y="462" type="curve" smooth="yes"/>
      <point x="80.0" y="454"/>
      <point x="60.0" y="441"/>
      <point x="60.0" y="400" type="curve" smooth="yes"/>
      <point x="60.0" y="294" type="line" smooth="yes"/>
      <point x="60.0" y="266"/>
      <point x="76.0" y="247"/>
      <point x="124.0" y="259" type="curve" smooth="yes"/>
      <point x="197.0" y="282"/>
      <point x="220.0" y="288"/>
      <point x="326.0" y="272" type="curve" smooth="yes"/>
      <point x="366.0" y="267" type="line"/>
      <point x="389.0" y="264" type="line" smooth="yes"/>
      <point x="504.0" y="247"/>
      <point x="525.0" y="240"/>
    </contour>
  </outline>
</glyph>
<glyph name="sterling" format="1">
  <advance width="695"/>
  <unicode hex="00A3"/>
  <outline>
    <contour>
      <point x="105.0" y="-10" type="curve" smooth="yes"/>
      <point x="614.0" y="-10" type="line" smooth="yes"/>
      <point x="646.0" y="-10"/>
      <point x="660.0" y="4"/>
      <point x="660.0" y="36" type="curve" smooth="yes"/>
      <point x="660.0" y="291" type="line" smooth="yes"/>
      <point x="660.0" y="323"/>
      <point x="646.0" y="337"/>
      <point x="614.0" y="337" type="curve" smooth="yes"/>
      <point x="469.0" y="337" type="line" smooth="yes"/>
      <point x="437.0" y="337"/>
      <point x="423.0" y="323"/>
      <point x="423.0" y="291" type="curve" smooth="yes"/>
      <point x="423.0" y="199" type="line"/>
      <point x="306.0" y="199" type="line"/>
      <point x="306.0" y="255" type="line"/>
      <point x="344.0" y="255" type="line" smooth="yes"/>
      <point x="376.0" y="255"/>
      <point x="390.0" y="268"/>
      <point x="390.0" y="301" type="curve" smooth="yes"/>
      <point x="390.0" y="408" type="line" smooth="yes"/>
      <point x="390.0" y="441"/>
      <point x="376.0" y="454"/>
      <point x="344.0" y="454" type="curve" smooth="yes"/>
      <point x="306.0" y="454" type="line"/>
      <point x="306.0" y="477" type="line" smooth="yes"/>
      <point x="306.0" y="499"/>
      <point x="315.0" y="517"/>
      <point x="357.0" y="517" type="curve" smooth="yes"/>
      <point x="505.0" y="517" type="line" smooth="yes"/>
      <point x="537.0" y="517"/>
      <point x="551.0" y="531"/>
      <point x="551.0" y="563" type="curve" smooth="yes"/>
      <point x="551.0" y="684" type="line" smooth="yes"/>
      <point x="551.0" y="716"/>
      <point x="537.0" y="730"/>
      <point x="505.0" y="730" type="curve" smooth="yes"/>
      <point x="315.0" y="730" type="line" smooth="yes"/>
      <point x="117.0" y="730"/>
      <point x="59.0" y="642"/>
      <point x="59.0" y="516" type="curve" smooth="yes"/>
      <point x="59.0" y="454" type="line"/>
      <point x="56.0" y="454" type="line" smooth="yes"/>
      <point x="24.0" y="454"/>
      <point x="10.0" y="440"/>
      <point x="10.0" y="408" type="curve" smooth="yes"/>
      <point x="10.0" y="301" type="line"/>
      <point x="10.0" y="268"/>
      <point x="24.0" y="255"/>
      <point x="56.0" y="255" type="curve" smooth="yes"/>
      <point x="59.0" y="255" type="line"/>
      <point x="59.0" y="36" type="line" smooth="yes"/>
      <point x="59.0" y="4"/>
      <point x="73.0" y="-10"/>
    </contour>
  </outline>
</glyph>
<glyph name="section" format="1">
  <advance width="650"/>
  <unicode hex="00A7"/>
  <outline>
    <contour>
      <point x="98.0" y="-10" type="curve" smooth="yes"/>
      <point x="364.0" y="-10" type="line" smooth="yes"/>
      <point x="562.0" y="-10"/>
      <point x="620.0" y="78"/>
      <point x="620.0" y="205" type="curve" smooth="yes"/>
      <point x="620.0" y="311" type="line" smooth="yes"/>
      <point x="620.0" y="437"/>
      <point x="562.0" y="525"/>
      <point x="364.0" y="525" type="curve" smooth="yes"/>
      <point x="281.0" y="525" type="line"/>
      <point x="283.0" y="543"/>
      <point x="294.0" y="557"/>
      <point x="331.0" y="557" type="curve" smooth="yes"/>
      <point x="538.0" y="557" type="line" smooth="yes"/>
      <point x="570.0" y="557"/>
      <point x="584.0" y="571"/>
      <point x="584.0" y="603" type="curve" smooth="yes"/>
      <point x="584.0" y="684" type="line" smooth="yes"/>
      <point x="584.0" y="716"/>
      <point x="570.0" y="730"/>
      <point x="538.0" y="730" type="curve" smooth="yes"/>
      <point x="298.0" y="730" type="line" smooth="yes"/>
      <point x="100.0" y="730"/>
      <point x="42.0" y="642"/>
      <point x="42.0" y="515" type="curve" smooth="yes"/>
      <point x="42.0" y="409" type="line" smooth="yes"/>
      <point x="42.0" y="283"/>
      <point x="100.0" y="195"/>
      <point x="298.0" y="195" type="curve" smooth="yes"/>
      <point x="381.0" y="195" type="line"/>
      <point x="379.0" y="177"/>
      <point x="368.0" y="163"/>
      <point x="331.0" y="163" type="curve" smooth="yes"/>
      <point x="98.0" y="163" type="line" smooth="yes"/>
      <point x="66.0" y="163"/>
      <point x="52.0" y="149"/>
      <point x="52.0" y="117" type="curve" smooth="yes"/>
      <point x="52.0" y="36" type="line" smooth="yes"/>
      <point x="52.0" y="4"/>
      <point x="66.0" y="-10"/>
    </contour>
    <contour>
      <point x="331.0" y="336" type="line" smooth="yes"/>
      <point x="290.0" y="336"/>
      <point x="280.0" y="351"/>
      <point x="280.0" y="374" type="curve" smooth="yes"/>
      <point x="280.0" y="384" type="line"/>
      <point x="331.0" y="384" type="line" smooth="yes"/>
      <point x="372.0" y="384"/>
      <point x="382.0" y="369"/>
      <point x="382.0" y="346" type="curve" smooth="yes"/>
      <point x="382.0" y="336" type="line"/>
    </contour>
  </outline>
</glyph>
<glyph name="guillemotleft" format="1">
  <advance width="812"/>
  <unicode hex="00AB"/>
  <outline>
    <contour>
      <point x="762.0" y="140" type="curve" smooth="yes"/>
      <point x="762.0" y="254" type="line" smooth="yes"/>
      <point x="762.0" y="285"/>
      <point x="748.0" y="304"/>
      <point x="719.0" y="313" type="curve" smooth="yes"/>
      <point x="624.0" y="340" type="line" smooth="yes"/>
      <point x="617.0" y="342"/>
      <point x="614.0" y="342"/>
      <point x="614.0" y="349" type="curve" smooth="yes"/>
      <point x="614.0" y="356"/>
      <point x="617.0" y="356"/>
      <point x="624.0" y="358" type="curve" smooth="yes"/>
      <point x="719.0" y="386" type="line"/>
      <point x="719.0" y="387" type="line"/>
      <point x="720.0" y="387" type="line" smooth="yes"/>
      <point x="747.0" y="397"/>
      <point x="762.0" y="414"/>
      <point x="762.0" y="445" type="curve" smooth="yes"/>
      <point x="762.0" y="559" type="line" smooth="yes"/>
      <point x="762.0" y="591"/>
      <point x="743.0" y="609"/>
      <point x="713.0" y="600" type="curve" smooth="yes"/>
      <point x="544.0" y="551" type="line" smooth="yes"/>
      <point x="455.0" y="525"/>
      <point x="410.0" y="491"/>
      <point x="410.0" y="386" type="curve" smooth="yes"/>
      <point x="410.0" y="312" type="line" smooth="yes"/>
      <point x="410.0" y="207"/>
      <point x="456.0" y="173"/>
      <point x="544.0" y="147" type="curve" smooth="yes"/>
      <point x="713.0" y="99" type="line"/>
      <point x="745.0" y="90"/>
      <point x="762.0" y="107"/>
    </contour>
    <contour>
      <point x="402.0" y="137" type="curve" smooth="yes"/>
      <point x="402.0" y="254" type="line" smooth="yes"/>
      <point x="402.0" y="285"/>
      <point x="388.0" y="304"/>
      <point x="359.0" y="313" type="curve" smooth="yes"/>
      <point x="264.0" y="340" type="line"/>
      <point x="257.0" y="342"/>
      <point x="254.0" y="342"/>
      <point x="254.0" y="349" type="curve" smooth="yes"/>
      <point x="254.0" y="356"/>
      <point x="258.0" y="356"/>
      <point x="265.0" y="359" type="curve"/>
      <point x="264.0" y="358" type="line"/>
      <point x="359.0" y="387" type="line"/>
      <point x="360.0" y="387" type="line" smooth="yes"/>
      <point x="387.0" y="397"/>
      <point x="402.0" y="414"/>
      <point x="402.0" y="445" type="curve" smooth="yes"/>
      <point x="402.0" y="562" type="line" smooth="yes"/>
      <point x="402.0" y="598"/>
      <point x="381.0" y="610"/>
      <point x="353.0" y="603" type="curve" smooth="yes"/>
      <point x="174.0" y="551" type="line" smooth="yes"/>
      <point x="86.0" y="524"/>
      <point x="40.0" y="491"/>
      <point x="40.0" y="386" type="curve" smooth="yes"/>
      <point x="40.0" y="312" type="line" smooth="yes"/>
      <point x="40.0" y="207"/>
      <point x="86.0" y="173"/>
      <point x="174.0" y="147" type="curve" smooth="yes"/>
      <point x="353.0" y="96" type="line"/>
      <point x="385.0" y="87"/>
      <point x="402.0" y="104"/>
    </contour>
  </outline>
</glyph>
<glyph name="threesuperior" format="1">
  <advance width="484"/>
  <unicode hex="00B3"/>
  <outline>
    <contour>
      <point x="75.0" y="192" type="curve" smooth="yes"/>
      <point x="303.0" y="192" type="line" smooth="yes"/>
      <point x="403.0" y="192"/>
      <point x="453.0" y="242"/>
      <point x="453.0" y="321" type="curve" smooth="yes"/>
      <point x="453.0" y="393" type="line" smooth="yes"/>
      <point x="453.0" y="454"/>
      <point x="434.0" y="489"/>
      <point x="379.0" y="503" type="curve"/>
      <point x="397.0" y="520"/>
      <point x="404.0" y="545"/>
      <point x="404.0" y="575" type="curve" smooth="yes"/>
      <point x="404.0" y="617" type="line" smooth="yes"/>
      <point x="404.0" y="686"/>
      <point x="364.0" y="730"/>
      <point x="276.0" y="730" type="curve" smooth="yes"/>
      <point x="75.0" y="730" type="line" smooth="yes"/>
      <point x="50.0" y="730"/>
      <point x="39.0" y="719"/>
      <point x="39.0" y="694" type="curve" smooth="yes"/>
      <point x="39.0" y="609" type="line" smooth="yes"/>
      <point x="39.0" y="584"/>
      <point x="50.0" y="573"/>
      <point x="75.0" y="573" type="curve" smooth="yes"/>
      <point x="209.0" y="573" type="line" smooth="yes"/>
      <point x="222.0" y="573"/>
      <point x="227.0" y="569"/>
      <point x="227.0" y="561" type="curve" smooth="yes"/>
      <point x="227.0" y="550" type="line" smooth="yes"/>
      <point x="227.0" y="543"/>
      <point x="221.0" y="539"/>
      <point x="209.0" y="539" type="curve" smooth="yes"/>
      <point x="134.0" y="539" type="line" smooth="yes"/>
      <point x="109.0" y="539"/>
      <point x="98.0" y="528"/>
      <point x="98.0" y="503" type="curve" smooth="yes"/>
      <point x="98.0" y="426" type="line" smooth="yes"/>
      <point x="98.0" y="401"/>
      <point x="109.0" y="390"/>
      <point x="134.0" y="390" type="curve" smooth="yes"/>
      <point x="256.0" y="390" type="line" smooth="yes"/>
      <point x="268.0" y="390"/>
      <point x="273.0" y="386"/>
      <point x="273.0" y="379" type="curve" smooth="yes"/>
      <point x="273.0" y="359" type="line" smooth="yes"/>
      <point x="273.0" y="352"/>
      <point x="268.0" y="348"/>
      <point x="256.0" y="348" type="curve" smooth="yes"/>
      <point x="75.0" y="348" type="line" smooth="yes"/>
      <point x="50.0" y="348"/>
      <point x="39.0" y="337"/>
      <point x="39.0" y="312" type="curve" smooth="yes"/>
      <point x="39.0" y="228" type="line" smooth="yes"/>
      <point x="39.0" y="203"/>
      <point x="50.0" y="192"/>
    </contour>
  </outline>
</glyph>
<glyph name="acute" format="1">
  <advance width="500"/>
  <unicode hex="00B4"/>
  <outline>
    <contour>
      <point x="75.0" y="743" type="curve" smooth="yes"/>
      <point x="424.0" y="786" type="line"/>
      <point x="456.0" y="790"/>
      <point x="469.0" y="801"/>
      <point x="469.0" y="832" type="curve" smooth="yes"/>
      <point x="469.0" y="928" type="line" smooth="yes"/>
      <point x="469.0" y="959"/>
      <point x="454.0" y="975"/>
      <point x="424.0" y="971" type="curve" smooth="yes"/>
      <point x="75.0" y="928" type="line" smooth="yes"/>
      <point x="43.0" y="924"/>
      <point x="30.0" y="913"/>
      <point x="30.0" y="882" type="curve" smooth="yes"/>
      <point x="30.0" y="786" type="line"/>
      <point x="30.0" y="755"/>
      <point x="45.0" y="739"/>
    </contour>
    <contour>
      <point x="250.0" y="747.0" type="move" name="_top"/>
    </contour>
    <contour>
      <point x="250.0" y="0.0" type="move" name="_bottom"/>
    </contour>
  </outline>
</glyph>
<glyph name="guillemotright" format="1">
  <advance width="812"/>
  <unicode hex="00BB"/>
  <outline>
    <contour>
      <point x="459.0" y="96" type="curve"/>
      <point x="638.0" y="147" type="line" smooth="yes"/>
      <point x="726.0" y="173"/>
      <point x="772.0" y="207"/>
      <point x="772.0" y="312" type="curve" smooth="yes"/>
      <point x="772.0" y="386" type="line" smooth="yes"/>
      <point x="772.0" y="491"/>
      <point x="726.0" y="525"/>
      <point x="638.0" y="551" type="curve" smooth="yes"/>
      <point x="459.0" y="603" type="line" smooth="yes"/>
      <point x="427.0" y="612"/>
      <point x="410.0" y="598"/>
      <point x="410.0" y="562" type="curve" smooth="yes"/>
      <point x="410.0" y="445" type="line" smooth="yes"/>
      <point x="410.0" y="414"/>
      <point x="424.0" y="395"/>
      <point x="453.0" y="386" type="curve" smooth="yes"/>
      <point x="548.0" y="358" type="line"/>
      <point x="547.0" y="359" type="line"/>
      <point x="554.0" y="356"/>
      <point x="558.0" y="356"/>
      <point x="558.0" y="349" type="curve" smooth="yes"/>
      <point x="558.0" y="342"/>
      <point x="555.0" y="342"/>
      <point x="548.0" y="339" type="curve"/>
      <point x="453.0" y="313" type="line" smooth="yes"/>
      <point x="424.0" y="304"/>
      <point x="410.0" y="285"/>
      <point x="410.0" y="254" type="curve" smooth="yes"/>
      <point x="410.0" y="137" type="line" smooth="yes"/>
      <point x="410.0" y="101"/>
      <point x="427.0" y="87"/>
    </contour>
    <contour>
      <point x="99.0" y="99" type="curve" smooth="yes"/>
      <point x="268.0" y="147" type="line" smooth="yes"/>
      <point x="356.0" y="173"/>
      <point x="402.0" y="207"/>
      <point x="402.0" y="312" type="curve" smooth="yes"/>
      <point x="402.0" y="386" type="line" smooth="yes"/>
      <point x="402.0" y="491"/>
      <point x="357.0" y="525"/>
      <point x="268.0" y="551" type="curve" smooth="yes"/>
      <point x="99.0" y="600" type="line" smooth="yes"/>
      <point x="68.0" y="610"/>
      <point x="50.0" y="595"/>
      <point x="50.0" y="559" type="curve" smooth="yes"/>
      <point x="50.0" y="445" type="line" smooth="yes"/>
      <point x="50.0" y="414"/>
      <point x="65.0" y="397"/>
      <point x="92.0" y="387" type="curve" smooth="yes"/>
      <point x="93.0" y="387" type="line"/>
      <point x="188.0" y="358" type="line" smooth="yes"/>
      <point x="195.0" y="356"/>
      <point x="198.0" y="356"/>
      <point x="198.0" y="349" type="curve" smooth="yes"/>
      <point x="198.0" y="342"/>
      <point x="195.0" y="342"/>
      <point x="188.0" y="340" type="curve" smooth="yes"/>
      <point x="93.0" y="313" type="line" smooth="yes"/>
      <point x="64.0" y="304"/>
      <point x="50.0" y="285"/>
      <point x="50.0" y="254" type="curve" smooth="yes"/>
      <point x="50.0" y="140" type="line" smooth="yes"/>
      <point x="50.0" y="104"/>
      <point x="67.0" y="90"/>
    </contour>
  </outline>
</glyph>
<glyph name="AE" format="1">
  <advance width="1005"/>
  <unicode hex="00C6"/>
  <outline>
    <contour>
      <point x="343.0" y="511" type="line" smooth="yes"/>
      <point x="346.0" y="517"/>
      <point x="347.0" y="521"/>
      <point x="353.0" y="521" type="curve" smooth="yes"/>
      <point x="430.0" y="521" type="line"/>
      <point x="430.0" y="368" type="line"/>
      <point x="295.0" y="368" type="line"/>
    </contour>
    <contour>
      <point x="90.0" y="-10" type="curve" smooth="yes"/>
      <point x="236.0" y="-10" type="line" smooth="yes"/>
      <point x="268.0" y="-10"/>
      <point x="282.0" y="4"/>
      <point x="282.0" y="36" type="curve" smooth="yes"/>
      <point x="282.0" y="166" type="line"/>
      <point x="430.0" y="166" type="line"/>
      <point x="430.0" y="36" type="line" smooth="yes"/>
      <point x="430.0" y="4"/>
      <point x="444.0" y="-10"/>
      <point x="476.0" y="-10" type="curve" smooth="yes"/>
      <point x="920.0" y="-10" type="line" smooth="yes"/>
      <point x="952.0" y="-10"/>
      <point x="966.0" y="4"/>
      <point x="966.0" y="36" type="curve" smooth="yes"/>
      <point x="966.0" y="153" type="line" smooth="yes"/>
      <point x="966.0" y="185"/>
      <point x="952.0" y="199"/>
      <point x="920.0" y="199" type="curve" smooth="yes"/>
      <point x="677.0" y="199" type="line"/>
      <point x="677.0" y="265" type="line"/>
      <point x="839.0" y="265" type="line" smooth="yes"/>
      <point x="871.0" y="265"/>
      <point x="885.0" y="279"/>
      <point x="885.0" y="311" type="curve" smooth="yes"/>
      <point x="885.0" y="418" type="line" smooth="yes"/>
      <point x="885.0" y="451"/>
      <point x="871.0" y="464"/>
      <point x="839.0" y="464" type="curve" smooth="yes"/>
      <point x="677.0" y="464" type="line"/>
      <point x="677.0" y="521" type="line"/>
      <point x="920.0" y="521" type="line" smooth="yes"/>
      <point x="952.0" y="521"/>
      <point x="966.0" y="535"/>
      <point x="966.0" y="567" type="curve" smooth="yes"/>
      <point x="966.0" y="684" type="line" smooth="yes"/>
      <point x="966.0" y="716"/>
      <point x="952.0" y="730"/>
      <point x="920.0" y="730" type="curve" smooth="yes"/>
      <point x="232.0" y="730" type="line" smooth="yes"/>
      <point x="193.0" y="730"/>
      <point x="173.0" y="718"/>
      <point x="161.0" y="682" type="curve" smooth="yes"/>
      <point x="74.0" y="443" type="line" smooth="yes"/>
      <point x="54.0" y="392"/>
      <point x="44.0" y="350"/>
      <point x="44.0" y="290" type="curve" smooth="yes"/>
      <point x="44.0" y="36" type="line" smooth="yes"/>
      <point x="44.0" y="4"/>
      <point x="58.0" y="-10"/>
    </contour>
  </outline>
</glyph>
<glyph name="Ccedilla" format="1">
  <advance width="628"/>
  <unicode hex="00C7"/>
  <outline>
    <contour>
      <point x="444" y="-99" type="curve" smooth="yes"/>
      <point x="476" y="-10" type="line"/>
      <point x="548" y="-10" type="line" smooth="yes"/>
      <point x="580" y="-10"/>
      <point x="594" y="4"/>
      <point x="594" y="36" type="curve" smooth="yes"/>
      <point x="594" y="155" type="line" smooth="yes"/>
      <point x="594" y="187"/>
      <point x="580" y="201"/>
      <point x="548" y="201" type="curve" smooth="yes"/>
      <point x="347" y="201" type="line" smooth="yes"/>
      <point x="314" y="201"/>
      <point x="296" y="211"/>
      <point x="296" y="239" type="curve" smooth="yes"/>
      <point x="296" y="477" type="line" smooth="yes"/>
      <point x="296" y="505"/>
      <point x="313" y="517"/>
      <point x="347" y="517" type="curve" smooth="yes"/>
      <point x="548" y="517" type="line" smooth="yes"/>
      <point x="580" y="517"/>
      <point x="594" y="531"/>
      <point x="594" y="563" type="curve" smooth="yes"/>
      <point x="594" y="684" type="line" smooth="yes"/>
      <point x="594" y="716"/>
      <point x="580" y="730"/>
      <point x="548" y="730" type="curve" smooth="yes"/>
      <point x="304" y="730" type="line" smooth="yes"/>
      <point x="128" y="730"/>
      <point x="48" y="661"/>
      <point x="48" y="515" type="curve" smooth="yes"/>
      <point x="48" y="204" type="line" smooth="yes"/>
      <point x="48" y="74"/>
      <point x="112" y="5"/>
      <point x="252" y="-8" type="curve"/>
      <point x="224" y="-83" type="line" smooth="yes"/>
      <point x="212" y="-114"/>
      <point x="217" y="-136"/>
      <point x="263" y="-136" type="curve" smooth="yes"/>
      <point x="389" y="-136" type="line" smooth="yes"/>
      <point x="421" y="-136"/>
      <point x="436" y="-124"/>
    </contour>
  </outline>
</glyph>
<glyph name="Thorn" format="1">
  <advance width="692"/>
  <unicode hex="00DE"/>
  <outline>
    <contour>
      <point x="105.0" y="-10" type="curve" smooth="yes"/>
      <point x="260.0" y="-10" type="line" smooth="yes"/>
      <point x="292.0" y="-10"/>
      <point x="306.0" y="4"/>
      <point x="306.0" y="36" type="curve" smooth="yes"/>
      <point x="306.0" y="92" type="line"/>
      <point x="411.0" y="92" type="line" smooth="yes"/>
      <point x="602.0" y="92"/>
      <point x="657.0" y="176"/>
      <point x="657.0" y="297" type="curve" smooth="yes"/>
      <point x="657.0" y="425" type="line" smooth="yes"/>
      <point x="657.0" y="546"/>
      <point x="602.0" y="630"/>
      <point x="411.0" y="630" type="curve" smooth="yes"/>
      <point x="306.0" y="630" type="line"/>
      <point x="306.0" y="684" type="line" smooth="yes"/>
      <point x="306.0" y="716"/>
      <point x="292.0" y="730"/>
      <point x="260.0" y="730" type="curve" smooth="yes"/>
      <point x="105.0" y="730" type="line" smooth="yes"/>
      <point x="73.0" y="730"/>
      <point x="59.0" y="716"/>
      <point x="59.0" y="684" type="curve" smooth="yes"/>
      <point x="59.0" y="36" type="line" smooth="yes"/>
      <point x="59.0" y="4"/>
      <point x="73.0" y="-10"/>
    </contour>
    <contour>
      <point x="384.0" y="423" type="line" smooth="yes"/>
      <point x="415.0" y="423"/>
      <point x="421.0" y="404"/>
      <point x="421.0" y="384" type="curve" smooth="yes"/>
      <point x="421.0" y="331" type="line" smooth="yes"/>
      <point x="421.0" y="311"/>
      <point x="415.0" y="292"/>
      <point x="384.0" y="292" type="curve" smooth="yes"/>
      <point x="304.0" y="292" type="line"/>
      <point x="304.0" y="423" type="line"/>
    </contour>
  </outline>
</glyph>
<glyph name="Aogonek" format="1">
  <advance width="730"/>
  <unicode hex="0104"/>
  <outline>
    <contour>
      <point x="383" y="507" type="line"/>
      <point x="426" y="368" type="line"/>
      <point x="297" y="368" type="line"/>
      <point x="340" y="507" type="line"/>
      <point x="339" y="506" type="line"/>
      <point x="342" y="512"/>
      <point x="344" y="517"/>
      <point x="349" y="517" type="curve" smooth="yes"/>
      <point x="374" y="517" type="line" smooth="yes"/>
      <point x="379" y="517"/>
      <point x="381" y="512"/>
      <point x="384" y="506" type="curve"/>
    </contour>
    <contour>
      <point x="686" y="-152" type="curve" smooth="yes"/>
      <point x="686" y="-80" type="line" smooth="yes"/>
      <point x="686" y="-47"/>
      <point x="676" y="-36"/>
      <point x="640" y="-36" type="curve" smooth="yes"/>
      <point x="611" y="-36" type="line"/>
      <point x="615" y="-10" type="line"/>
      <point x="640" y="-10" type="line" smooth="yes"/>
      <point x="672" y="-10"/>
      <point x="686" y="4"/>
      <point x="686" y="36" type="curve" smooth="yes"/>
      <point x="686" y="300" type="line" smooth="yes"/>
      <point x="686" y="341"/>
      <point x="674" y="392"/>
      <point x="646" y="464" type="curve" smooth="yes"/>
      <point x="559" y="691" type="line" smooth="yes"/>
      <point x="550" y="718"/>
      <point x="531" y="730"/>
      <point x="500" y="730" type="curve" smooth="yes"/>
      <point x="231" y="730" type="line" smooth="yes"/>
      <point x="199" y="730"/>
      <point x="180" y="718"/>
      <point x="171" y="690" type="curve" smooth="yes"/>
      <point x="84" y="464" type="line" smooth="yes"/>
      <point x="56" y="392"/>
      <point x="44" y="341"/>
      <point x="44" y="300" type="curve" smooth="yes"/>
      <point x="44" y="36" type="line" smooth="yes"/>
      <point x="44" y="4"/>
      <point x="58" y="-10"/>
      <point x="90" y="-10" type="curve" smooth="yes"/>
      <point x="237" y="-10" type="line" smooth="yes"/>
      <point x="269" y="-10"/>
      <point x="283" y="4"/>
      <point x="283" y="36" type="curve" smooth="yes"/>
      <point x="283" y="166" type="line"/>
      <point x="440" y="166" type="line"/>
      <point x="440" y="55" type="line"/>
      <point x="421" y="-49" type="line" smooth="yes"/>
      <point x="406" y="-152"/>
      <point x="439" y="-196"/>
      <point x="532" y="-196" type="curve" smooth="yes"/>
      <point x="643" y="-196" type="line" smooth="yes"/>
      <point x="677" y="-196"/>
      <point x="686" y="-186"/>
    </contour>
  </outline>
</glyph>
<glyph name="Eogonek" format="1">
  <advance width="654"/>
  <unicode hex="0118"/>
  <outline>
    <contour>
      <point x="615" y="-152" type="curve" smooth="yes"/>
      <point x="615" y="-80" type="line" smooth="yes"/>
      <point x="615" y="-47"/>
      <point x="605" y="-36"/>
      <point x="569" y="-36" type="curve" smooth="yes"/>
      <point x="540" y="-36" type="line"/>
      <point x="544" y="-10" type="line"/>
      <point x="569" y="-10" type="line" smooth="yes"/>
      <point x="601" y="-10"/>
      <point x="615" y="4"/>
      <point x="615" y="36" type="curve" smooth="yes"/>
      <point x="615" y="153" type="line" smooth="yes"/>
      <point x="615" y="185"/>
      <point x="601" y="199"/>
      <point x="569" y="199" type="curve" smooth="yes"/>
      <point x="303" y="199" type="line"/>
      <point x="303" y="265" type="line"/>
      <point x="488" y="265" type="line" smooth="yes"/>
      <point x="520" y="265"/>
      <point x="534" y="279"/>
      <point x="534" y="311" type="curve" smooth="yes"/>
      <point x="534" y="418" type="line" smooth="yes"/>
      <point x="534" y="450"/>
      <point x="520" y="464"/>
      <point x="488" y="464" type="curve" smooth="yes"/>
      <point x="303" y="464" type="line"/>
      <point x="303" y="521" type="line"/>
      <point x="569" y="521" type="line" smooth="yes"/>
      <point x="601" y="521"/>
      <point x="615" y="535"/>
      <point x="615" y="567" type="curve" smooth="yes"/>
      <point x="615" y="684" type="line" smooth="yes"/>
      <point x="615" y="716"/>
      <point x="601" y="730"/>
      <point x="569" y="730" type="curve" smooth="yes"/>
      <point x="105" y="730" type="line" smooth="yes"/>
      <point x="73" y="730"/>
      <point x="59" y="716"/>
      <point x="59" y="684" type="curve" smooth="yes"/>
      <point x="59" y="36" type="line" smooth="yes"/>
      <point x="59" y="4"/>
      <point x="73" y="-10"/>
      <point x="105" y="-10" type="curve" smooth="yes"/>
      <point x="357" y="-10" type="line"/>
      <point x="350" y="-49" type="line" smooth="yes"/>
      <point x="335" y="-152"/>
      <point x="368" y="-196"/>
      <point x="461" y="-196" type="curve" smooth="yes"/>
      <point x="572" y="-196" type="line" smooth="yes"/>
      <point x="606" y="-196"/>
      <point x="615" y="-186"/>
    </contour>
  </outline>
</glyph>
<glyph name="Iogonek" format="1">
  <advance width="605"/>
  <unicode hex="012E"/>
  <outline>
    <contour>
      <point x="561" y="-152" type="curve" smooth="yes"/>
      <point x="561" y="-80" type="line" smooth="yes"/>
      <point x="561" y="-47"/>
      <point x="551" y="-36"/>
      <point x="515" y="-36" type="curve" smooth="yes"/>
      <point x="486" y="-36" type="line"/>
      <point x="490" y="-10" type="line"/>
      <point x="515" y="-10" type="line" smooth="yes"/>
      <point x="547" y="-10"/>
      <point x="561" y="4"/>
      <point x="561" y="36" type="curve" smooth="yes"/>
      <point x="561" y="155" type="line" smooth="yes"/>
      <point x="561" y="187"/>
      <point x="547" y="201"/>
      <point x="515" y="201" type="curve" smooth="yes"/>
      <point x="428" y="201" type="line"/>
      <point x="428" y="517" type="line"/>
      <point x="515" y="517" type="line" smooth="yes"/>
      <point x="547" y="517"/>
      <point x="561" y="531"/>
      <point x="561" y="563" type="curve" smooth="yes"/>
      <point x="561" y="684" type="line" smooth="yes"/>
      <point x="561" y="716"/>
      <point x="547" y="730"/>
      <point x="515" y="730" type="curve" smooth="yes"/>
      <point x="89" y="730" type="line" smooth="yes"/>
      <point x="57" y="730"/>
      <point x="43" y="716"/>
      <point x="43" y="684" type="curve" smooth="yes"/>
      <point x="43" y="563" type="line" smooth="yes"/>
      <point x="43" y="531"/>
      <point x="57" y="517"/>
      <point x="89" y="517" type="curve" smooth="yes"/>
      <point x="178" y="517" type="line"/>
      <point x="178" y="201" type="line"/>
      <point x="89" y="201" type="line" smooth="yes"/>
      <point x="57" y="201"/>
      <point x="43" y="187"/>
      <point x="43" y="155" type="curve" smooth="yes"/>
      <point x="43" y="36" type="line" smooth="yes"/>
      <point x="43" y="4"/>
      <point x="57" y="-10"/>
      <point x="89" y="-10" type="curve" smooth="yes"/>
      <point x="303" y="-10" type="line"/>
      <point x="296" y="-49" type="line" smooth="yes"/>
      <point x="281" y="-152"/>
      <point x="314" y="-196"/>
      <point x="407" y="-196" type="curve" smooth="yes"/>
      <point x="518" y="-196" type="line" smooth="yes"/>
      <point x="552" y="-196"/>
      <point x="561" y="-186"/>
    </contour>
  </outline>
</glyph>
<glyph name="Lslash" format="1">
  <advance width="705"/>
  <unicode hex="0141"/>
  <outline>
    <contour>
      <point x="10.0" y="321" type="line"/>
      <point x="10.0" y="286"/>
      <point x="26.0" y="270"/>
      <point x="58.0" y="275" type="curve" smooth="yes"/>
      <point x="366.0" y="325" type="line" smooth="yes"/>
      <point x="397.0" y="330"/>
      <point x="410.0" y="339"/>
      <point x="410.0" y="371" type="curve" smooth="yes"/>
      <point x="410.0" y="478" type="line" smooth="yes"/>
      <point x="410.0" y="513"/>
      <point x="394.0" y="529"/>
      <point x="362.0" y="524" type="curve" smooth="yes"/>
      <point x="54.0" y="474" type="line" smooth="yes"/>
      <point x="23.0" y="469"/>
      <point x="10.0" y="459"/>
      <point x="10.0" y="428" type="curve" smooth="yes"/>
    </contour>
    <component base="L" xOffset="10"/>
  </outline>
</glyph>
<glyph name="Eng" format="1">
  <advance width="746"/>
  <unicode hex="014A"/>
  <outline>
    <contour>
      <point x="54.0" y="36" type="line" smooth="yes"/>
      <point x="54.0" y="4"/>
      <point x="68.0" y="-10"/>
      <point x="100.0" y="-10" type="curve" smooth="yes"/>
      <point x="252.0" y="-10" type="line" smooth="yes"/>
      <point x="285.0" y="-10"/>
      <point x="298.0" y="4"/>
      <point x="298.0" y="36" type="curve" smooth="yes"/>
      <point x="298.0" y="492" type="line" smooth="yes"/>
      <point x="298.0" y="516"/>
      <point x="315.0" y="529"/>
      <point x="371.0" y="529" type="curve" smooth="yes"/>
      <point x="426.0" y="529"/>
      <point x="443.0" y="516"/>
      <point x="443.0" y="492" type="curve" smooth="yes"/>
      <point x="443.0" y="149" type="line" smooth="yes"/>
      <point x="443.0" y="128"/>
      <point x="440.0" y="111"/>
      <point x="412.0" y="111" type="curve" smooth="yes"/>
      <point x="391.0" y="111" type="line" smooth="yes"/>
      <point x="359.0" y="111"/>
      <point x="345.0" y="97"/>
      <point x="345.0" y="65" type="curve" smooth="yes"/>
      <point x="345.0" y="-54" type="line" smooth="yes"/>
      <point x="345.0" y="-86"/>
      <point x="359.0" y="-100"/>
      <point x="391.0" y="-100" type="curve" smooth="yes"/>
      <point x="436.0" y="-100" type="line" smooth="yes"/>
      <point x="634.0" y="-100"/>
      <point x="692.0" y="-12"/>
      <point x="692.0" y="114" type="curve" smooth="yes"/>
      <point x="692.0" y="531" type="line" smooth="yes"/>
      <point x="692.0" y="657"/>
      <point x="633.0" y="745"/>
      <point x="373.0" y="745" type="curve" smooth="yes"/>
      <point x="113.0" y="745"/>
      <point x="54.0" y="657"/>
      <point x="54.0" y="531" type="curve" smooth="yes"/>
    </contour>
  </outline>
</glyph>
<glyph name="Scedilla" format="1">
  <advance width="650"/>
  <unicode hex="015E"/>
  <outline>
    <contour>
      <point x="339" y="-136" type="line" smooth="yes"/>
      <point x="371" y="-136"/>
      <point x="386" y="-124"/>
      <point x="394" y="-99" type="curve" smooth="yes"/>
      <point x="426" y="-9" type="line"/>
      <point x="548" y="-2"/>
      <point x="620" y="63"/>
      <point x="620" y="176" type="curve" smooth="yes"/>
      <point x="620" y="281" type="line" smooth="yes"/>
      <point x="620" y="399"/>
      <point x="555" y="442"/>
      <point x="455" y="457" type="curve" smooth="yes"/>
      <point x="306" y="477" type="line" smooth="yes"/>
      <point x="294" y="478"/>
      <point x="288" y="487"/>
      <point x="288" y="499" type="curve" smooth="yes"/>
      <point x="288" y="510"/>
      <point x="294" y="519"/>
      <point x="305" y="519" type="curve" smooth="yes"/>
      <point x="538" y="519" type="line" smooth="yes"/>
      <point x="570" y="519"/>
      <point x="584" y="533"/>
      <point x="584" y="565" type="curve" smooth="yes"/>
      <point x="584" y="684" type="line" smooth="yes"/>
      <point x="584" y="716"/>
      <point x="570" y="730"/>
      <point x="538" y="730" type="curve" smooth="yes"/>
      <point x="258" y="730" type="line" smooth="yes"/>
      <point x="121" y="730"/>
      <point x="41" y="664"/>
      <point x="41" y="544" type="curve" smooth="yes"/>
      <point x="41" y="439" type="line" smooth="yes"/>
      <point x="41" y="321"/>
      <point x="105" y="278"/>
      <point x="205" y="263" type="curve" smooth="yes"/>
      <point x="355" y="242" type="line" smooth="yes"/>
      <point x="367" y="241"/>
      <point x="372" y="233"/>
      <point x="372" y="218" type="curve" smooth="yes"/>
      <point x="372" y="208"/>
      <point x="367" y="199"/>
      <point x="356" y="199" type="curve" smooth="yes"/>
      <point x="87" y="199" type="line" smooth="yes"/>
      <point x="55" y="199"/>
      <point x="41" y="185"/>
      <point x="41" y="153" type="curve" smooth="yes"/>
      <point x="41" y="36" type="line" smooth="yes"/>
      <point x="41" y="4"/>
      <point x="55" y="-10"/>
      <point x="87" y="-10" type="curve" smooth="yes"/>
      <point x="201" y="-10" type="line"/>
      <point x="174" y="-83" type="line" smooth="yes"/>
      <point x="162" y="-114"/>
      <point x="167" y="-136"/>
      <point x="213" y="-136" type="curve" smooth="yes"/>
    </contour>
  </outline>
</glyph>
<glyph name="Tbar" format="1">
  <advance width="656"/>
  <unicode hex="0166"/>
  <outline>
    <contour>
      <point x="455" y="36" type="curve" smooth="yes"/>
      <point x="455" y="212" type="line"/>
      <point x="521" y="212" type="line" smooth="yes"/>
      <point x="553" y="212"/>
      <point x="567" y="226"/>
      <point x="567" y="258" type="curve" smooth="yes"/>
      <point x="567" y="365" type="line" smooth="yes"/>
      <point x="567" y="397"/>
      <point x="553" y="411"/>
      <point x="521" y="411" type="curve" smooth="yes"/>
      <point x="455" y="411" type="line"/>
      <point x="455" y="517" type="line"/>
      <point x="592" y="517" type="line" smooth="yes"/>
      <point x="624" y="517"/>
      <point x="638" y="531"/>
      <point x="638" y="563" type="curve" smooth="yes"/>
      <point x="638" y="684" type="line" smooth="yes"/>
      <point x="638" y="716"/>
      <point x="624" y="730"/>
      <point x="592" y="730" type="curve" smooth="yes"/>
      <point x="64" y="730" type="line" smooth="yes"/>
      <point x="32" y="730"/>
      <point x="18" y="716"/>
      <point x="18" y="684" type="curve" smooth="yes"/>
      <point x="18" y="563" type="line"/>
      <point x="18" y="531"/>
      <point x="32" y="517"/>
      <point x="64" y="517" type="curve" smooth="yes"/>
      <point x="201" y="517" type="line"/>
      <point x="201" y="411" type="line"/>
      <point x="134" y="411" type="line" smooth="yes"/>
      <point x="102" y="411"/>
      <point x="88" y="397"/>
      <point x="88" y="365" type="curve" smooth="yes"/>
      <point x="88" y="258" type="line" smooth="yes"/>
      <point x="88" y="226"/>
      <point x="102" y="212"/>
      <point x="134" y="212" type="curve" smooth="yes"/>
      <point x="201" y="212" type="line"/>
      <point x="201" y="36" type="line" smooth="yes"/>
      <point x="201" y="4"/>
      <point x="215" y="-10"/>
      <point x="247" y="-10" type="curve" smooth="yes"/>
      <point x="409" y="-10" type="line" smooth="yes"/>
      <point x="441" y="-10"/>
      <point x="455" y="4"/>
    </contour>
  </outline>
</glyph>
<glyph name="Uogonek" format="1">
  <advance width="746"/>
  <unicode hex="0172"/>
  <outline>
    <contour>
      <point x="488" y="-206" type="line" smooth="yes"/>
      <point x="522" y="-206"/>
      <point x="531" y="-196"/>
      <point x="531" y="-162" type="curve" smooth="yes"/>
      <point x="531" y="-90" type="line" smooth="yes"/>
      <point x="531" y="-57"/>
      <point x="521" y="-46"/>
      <point x="485" y="-46" type="curve" smooth="yes"/>
      <point x="456" y="-46" type="line"/>
      <point x="460" y="-21" type="line"/>
      <point x="647" y="-3"/>
      <point x="692" y="78"/>
      <point x="692" y="189" type="curve" smooth="yes"/>
      <point x="692" y="684" type="line" smooth="yes"/>
      <point x="692" y="716"/>
      <point x="678" y="730"/>
      <point x="646" y="730" type="curve" smooth="yes"/>
      <point x="494" y="730" type="line" smooth="yes"/>
      <point x="461" y="730"/>
      <point x="448" y="716"/>
      <point x="448" y="684" type="curve" smooth="yes"/>
      <point x="448" y="228" type="line" smooth="yes"/>
      <point x="448" y="204"/>
      <point x="431" y="191"/>
      <point x="375" y="191" type="curve" smooth="yes"/>
      <point x="320" y="191"/>
      <point x="303" y="204"/>
      <point x="303" y="228" type="curve" smooth="yes"/>
      <point x="303" y="684" type="line" smooth="yes"/>
      <point x="303" y="716"/>
      <point x="289" y="730"/>
      <point x="257" y="730" type="curve" smooth="yes"/>
      <point x="100" y="730" type="line" smooth="yes"/>
      <point x="68" y="730"/>
      <point x="54" y="716"/>
      <point x="54" y="684" type="curve" smooth="yes"/>
      <point x="54" y="189" type="line" smooth="yes"/>
      <point x="54" y="81"/>
      <point x="97" y="1"/>
      <point x="273" y="-20" type="curve"/>
      <point x="266" y="-59" type="line" smooth="yes"/>
      <point x="251" y="-162"/>
      <point x="284" y="-206"/>
      <point x="377" y="-206" type="curve" smooth="yes"/>
    </contour>
  </outline>
</glyph>
<glyph name="Ohorn" format="1">
  <advance width="747"/>
  <unicode hex="01A0"/>
  <outline>
    <contour>
      <point x="369" y="-25" type="curve" smooth="yes"/>
      <point x="631" y="-25"/>
      <point x="689" y="63"/>
      <point x="689" y="189" type="curve" smooth="yes"/>
      <point x="689" y="530" type="line" smooth="yes"/>
      <point x="689" y="554"/>
      <point x="687" y="576"/>
      <point x="682" y="597" type="curve"/>
      <point x="733" y="624"/>
      <point x="747" y="668"/>
      <point x="747" y="721" type="curve" smooth="yes"/>
      <point x="747" y="765" type="line" smooth="yes"/>
      <point x="747" y="797"/>
      <point x="733" y="811"/>
      <point x="701" y="811" type="curve" smooth="yes"/>
      <point x="590" y="811" type="line" smooth="yes"/>
      <point x="560" y="811"/>
      <point x="550" y="802"/>
      <point x="550" y="770" type="curve" smooth="yes"/>
      <point x="550" y="749" type="line" smooth="yes"/>
      <point x="550" y="736"/>
      <point x="543" y="731"/>
      <point x="525" y="730" type="curve"/>
      <point x="484" y="740"/>
      <point x="432" y="745"/>
      <point x="369" y="745" type="curve" smooth="yes"/>
      <point x="107" y="745"/>
      <point x="48" y="656"/>
      <point x="48" y="530" type="curve" smooth="yes"/>
      <point x="48" y="189" type="line" smooth="yes"/>
      <point x="48" y="63"/>
      <point x="107" y="-25"/>
    </contour>
    <contour>
      <point x="295" y="494" type="line" smooth="yes"/>
      <point x="295" y="517"/>
      <point x="313" y="530"/>
      <point x="369" y="530" type="curve" smooth="yes"/>
      <point x="426" y="530"/>
      <point x="443" y="517"/>
      <point x="443" y="494" type="curve" smooth="yes"/>
      <point x="443" y="225" type="line" smooth="yes"/>
      <point x="443" y="201"/>
      <point x="426" y="188"/>
      <point x="369" y="188" type="curve" smooth="yes"/>
      <point x="312" y="188"/>
      <point x="295" y="201"/>
      <point x="295" y="225" type="curve" smooth="yes"/>
    </contour>
  </outline>
</glyph>
<glyph name="Uhorn" format="1">
  <advance width="756"/>
  <unicode hex="01AF"/>
  <outline>
    <contour>
      <point x="373" y="-25" type="curve" smooth="yes"/>
      <point x="633" y="-25"/>
      <point x="692" y="63"/>
      <point x="692" y="189" type="curve" smooth="yes"/>
      <point x="692" y="598" type="line"/>
      <point x="742" y="625"/>
      <point x="756" y="669"/>
      <point x="756" y="721" type="curve" smooth="yes"/>
      <point x="756" y="765" type="line" smooth="yes"/>
      <point x="756" y="797"/>
      <point x="742" y="811"/>
      <point x="710" y="811" type="curve" smooth="yes"/>
      <point x="599" y="811" type="line" smooth="yes"/>
      <point x="569" y="811"/>
      <point x="559" y="802"/>
      <point x="559" y="770" type="curve" smooth="yes"/>
      <point x="559" y="749" type="line" smooth="yes"/>
      <point x="559" y="735"/>
      <point x="551" y="730"/>
      <point x="529" y="730" type="curve" smooth="yes"/>
      <point x="494" y="730" type="line" smooth="yes"/>
      <point x="461" y="730"/>
      <point x="448" y="716"/>
      <point x="448" y="684" type="curve" smooth="yes"/>
      <point x="448" y="228" type="line" smooth="yes"/>
      <point x="448" y="204"/>
      <point x="431" y="191"/>
      <point x="375" y="191" type="curve" smooth="yes"/>
      <point x="320" y="191"/>
      <point x="303" y="204"/>
      <point x="303" y="228" type="curve" smooth="yes"/>
      <point x="303" y="684" type="line" smooth="yes"/>
      <point x="303" y="716"/>
      <point x="289" y="730"/>
      <point x="257" y="730" type="curve" smooth="yes"/>
      <point x="100" y="730" type="line" smooth="yes"/>
      <point x="68" y="730"/>
      <point x="54" y="716"/>
      <point x="54" y="684" type="curve" smooth="yes"/>
      <point x="54" y="189" type="line" smooth="yes"/>
      <point x="54" y="63"/>
      <point x="113" y="-25"/>
    </contour>
  </outline>
</glyph>
<glyph name="commaturnedmod" format="1">
  <advance width="500"/>
  <unicode hex="02BB"/>
  <outline>
    <contour>
      <point x="171.0" y="391" type="curve" smooth="yes"/>
      <point x="329.0" y="391" type="line" smooth="yes"/>
      <point x="364.0" y="391"/>
      <point x="376.0" y="402"/>
      <point x="376.0" y="440" type="curve" smooth="yes"/>
      <point x="376.0" y="549" type="line" smooth="yes"/>
      <point x="376.0" y="587"/>
      <point x="364.0" y="598"/>
      <point x="329.0" y="598" type="curve" smooth="yes"/>
      <point x="253.0" y="598" type="line"/>
      <point x="253.0" y="601" type="line" smooth="yes"/>
      <point x="253.0" y="609"/>
      <point x="257.0" y="615"/>
      <point x="266.0" y="615" type="curve" smooth="yes"/>
      <point x="325.0" y="615" type="line" smooth="yes"/>
      <point x="353.0" y="615"/>
      <point x="365.0" y="627"/>
      <point x="365.0" y="655" type="curve" smooth="yes"/>
      <point x="365.0" y="689" type="line" smooth="yes"/>
      <point x="365.0" y="718"/>
      <point x="353.0" y="730"/>
      <point x="325.0" y="730" type="curve" smooth="yes"/>
      <point x="259.0" y="730" type="line" smooth="yes"/>
      <point x="177.0" y="730"/>
      <point x="124.0" y="685"/>
      <point x="124.0" y="592" type="curve" smooth="yes"/>
      <point x="124.0" y="440" type="line" smooth="yes"/>
      <point x="124.0" y="402"/>
      <point x="136.0" y="391"/>
    </contour>
  </outline>
</glyph>
<glyph name="circumflex" format="1">
  <advance width="500"/>
  <unicode hex="02C6"/>
  <outline>
    <contour>
      <point x="84.0" y="747" type="curve" smooth="yes"/>
      <point x="221.0" y="787" type="line"/>
      <point x="242.0" y="793"/>
      <point x="256.0" y="793"/>
      <point x="277.0" y="787" type="curve" smooth="yes"/>
      <point x="414.0" y="747" type="line" smooth="yes"/>
      <point x="460.0" y="733"/>
      <point x="469.0" y="741"/>
      <point x="469.0" y="788" type="curve" smooth="yes"/>
      <point x="469.0" y="869" type="line" smooth="yes"/>
      <point x="469.0" y="911"/>
      <point x="461.0" y="916"/>
      <point x="421.0" y="931" type="curve" smooth="yes"/>
      <point x="283.0" y="981" type="line" smooth="yes"/>
      <point x="273.0" y="986"/>
      <point x="261.0" y="987"/>
      <point x="248.0" y="987" type="curve"/>
      <point x="234.0" y="986"/>
      <point x="218.0" y="983"/>
      <point x="205.0" y="977" type="curve" smooth="yes"/>
      <point x="78.0" y="931" type="line" smooth="yes"/>
      <point x="40.0" y="916"/>
      <point x="30.0" y="911"/>
      <point x="30.0" y="869" type="curve" smooth="yes"/>
      <point x="30.0" y="788" type="line"/>
      <point x="30.0" y="740"/>
      <point x="40.0" y="733"/>
    </contour>
    <contour>
      <point x="250.0" y="747.0" type="move" name="_top"/>
    </contour>
    <contour>
      <point x="250.0" y="0.0" type="move" name="_bottom"/>
    </contour>
  </outline>
</glyph>
<glyph name="caron" format="1">
  <advance width="500"/>
  <unicode hex="02C7"/>
  <outline>
    <contour>
      <point x="251.0" y="742" type="curve"/>
      <point x="265.0" y="743"/>
      <point x="281.0" y="746"/>
      <point x="294.0" y="752" type="curve" smooth="yes"/>
      <point x="421.0" y="798" type="line" smooth="yes"/>
      <point x="459.0" y="813"/>
      <point x="469.0" y="818"/>
      <point x="469.0" y="860" type="curve" smooth="yes"/>
      <point x="469.0" y="941" type="line" smooth="yes"/>
      <point x="469.0" y="989"/>
      <point x="459.0" y="996"/>
      <point x="415.0" y="982" type="curve" smooth="yes"/>
      <point x="278.0" y="942" type="line"/>
      <point x="257.0" y="936"/>
      <point x="243.0" y="936"/>
      <point x="222.0" y="942" type="curve" smooth="yes"/>
      <point x="85.0" y="982" type="line" smooth="yes"/>
      <point x="39.0" y="996"/>
      <point x="30.0" y="988"/>
      <point x="30.0" y="941" type="curve" smooth="yes"/>
      <point x="30.0" y="860" type="line"/>
      <point x="30.0" y="818"/>
      <point x="38.0" y="813"/>
      <point x="78.0" y="798" type="curve" smooth="yes"/>
      <point x="216.0" y="748" type="line" smooth="yes"/>
      <point x="226.0" y="743"/>
      <point x="238.0" y="742"/>
    </contour>
    <contour>
      <point x="250.0" y="747.0" type="move" name="_top"/>
    </contour>
    <contour>
      <point x="250.0" y="0.0" type="move" name="_bottom"/>
    </contour>
  </outline>
</glyph>
<glyph name="dotaccent" format="1">
  <advance width="500"/>
  <unicode hex="02D9"/>
  <outline>
    <contour>
      <point x="376.0" y="796" type="curve" smooth="yes"/>
      <point x="376.0" y="923" type="line" smooth="yes"/>
      <point x="376.0" y="955"/>
      <point x="362.0" y="969"/>
      <point x="330.0" y="969" type="curve" smooth="yes"/>
      <point x="172.0" y="969" type="line" smooth="yes"/>
      <point x="140.0" y="969"/>
      <point x="126.0" y="955"/>
      <point x="126.0" y="923" type="curve" smooth="yes"/>
      <point x="126.0" y="796" type="line" smooth="yes"/>
      <point x="126.0" y="764"/>
      <point x="140.0" y="750"/>
      <point x="172.0" y="750" type="curve" smooth="yes"/>
      <point x="330.0" y="750" type="line" smooth="yes"/>
      <point x="362.0" y="750"/>
      <point x="376.0" y="764"/>
    </contour>
    <contour>
      <point x="250.0" y="747.0" type="move" name="_top"/>
    </contour>
    <contour>
      <point x="250.0" y="0.0" type="move" name="_bottom"/>
    </contour>
  </outline>
</glyph>
<glyph name="hungarumlaut" format="1">
  <advance width="500"/>
  <unicode hex="02DD"/>
  <outline>
    <contour>
      <point x="288.0" y="750" type="curve" smooth="yes"/>
      <point x="394.0" y="750" type="line" smooth="yes"/>
      <point x="425.0" y="750"/>
      <point x="432.0" y="763"/>
      <point x="440.0" y="794" type="curve" smooth="yes"/>
      <point x="493.0" y="1001" type="line" smooth="yes"/>
      <point x="500.0" y="1029"/>
      <point x="482.0" y="1047"/>
      <point x="450.0" y="1047" type="curve" smooth="yes"/>
      <point x="344.0" y="1047" type="line" smooth="yes"/>
      <point x="313.0" y="1047"/>
      <point x="306.0" y="1034"/>
      <point x="298.0" y="1003" type="curve" smooth="yes"/>
      <point x="245.0" y="796" type="line"/>
      <point x="245.0" y="797" type="line"/>
      <point x="238.0" y="768"/>
      <point x="256.0" y="750"/>
    </contour>
    <contour>
      <point x="28.0" y="750" type="curve" smooth="yes"/>
      <point x="134.0" y="750" type="line" smooth="yes"/>
      <point x="165.0" y="750"/>
      <point x="172.0" y="763"/>
      <point x="180.0" y="794" type="curve" smooth="yes"/>
      <point x="233.0" y="1001" type="line" smooth="yes"/>
      <point x="240.0" y="1029"/>
      <point x="222.0" y="1047"/>
      <point x="190.0" y="1047" type="curve" smooth="yes"/>
      <point x="84.0" y="1047" type="line" smooth="yes"/>
      <point x="53.0" y="1047"/>
      <point x="46.0" y="1034"/>
      <point x="38.0" y="1003" type="curve" smooth="yes"/>
      <point x="-15.0" y="796" type="line"/>
      <point x="-15.0" y="797" type="line"/>
      <point x="-22.0" y="768"/>
      <point x="-4.0" y="750"/>
    </contour>
  </outline>
</glyph>
<glyph name="Germandbls" format="1">
  <advance width="759.0"/>
  <unicode hex="1E9E"/>
  <outline>
    <contour>
      <point x="260.0" y="-10" type="line" smooth="yes"/>
      <point x="292.0" y="-10"/>
      <point x="306.0" y="4"/>
      <point x="306.0" y="36" type="curve" smooth="yes"/>
      <point x="306.0" y="521" type="line"/>
      <point x="375.0" y="521" type="line" smooth="yes"/>
      <point x="385.0" y="521"/>
      <point x="386.0" y="512"/>
      <point x="384.0" y="505" type="curve" smooth="yes"/>
      <point x="351.0" y="342" type="line" smooth="yes"/>
      <point x="341.0" y="295"/>
      <point x="359.0" y="274"/>
      <point x="398.0" y="274" type="curve" smooth="yes"/>
      <point x="470.0" y="274" type="line" smooth="yes"/>
      <point x="479.0" y="274"/>
      <point x="487.0" y="271"/>
      <point x="487.0" y="261" type="curve" smooth="yes"/>
      <point x="487.0" y="212" type="line" smooth="yes"/>
      <point x="487.0" y="202"/>
      <point x="479.0" y="199"/>
      <point x="470.0" y="199" type="curve" smooth="yes"/>
      <point x="392.0" y="199" type="line" smooth="yes"/>
      <point x="360.0" y="199"/>
      <point x="346.0" y="185"/>
      <point x="346.0" y="153" type="curve" smooth="yes"/>
      <point x="346.0" y="36" type="line" smooth="yes"/>
      <point x="346.0" y="4"/>
      <point x="360.0" y="-10"/>
      <point x="392.0" y="-10" type="curve" smooth="yes"/>
      <point x="530.0" y="-10" type="line" smooth="yes"/>
      <point x="657.0" y="-10"/>
      <point x="735.0" y="59"/>
      <point x="735.0" y="166" type="curve" smooth="yes"/>
      <point x="735.0" y="289" type="line" smooth="yes"/>
      <point x="735.0" y="383"/>
      <point x="680.0" y="437"/>
      <point x="610.0" y="454" type="curve"/>
      <point x="630.0" y="526" type="line" smooth="yes"/>
      <point x="662.0" y="644"/>
      <point x="602.0" y="730"/>
      <point x="476.0" y="730" type="curve" smooth="yes"/>
      <point x="105.0" y="730" type="line" smooth="yes"/>
      <point x="74.0" y="730"/>
      <point x="59.0" y="715"/>
      <point x="59.0" y="684" type="curve" smooth="yes"/>
      <point x="59.0" y="36" type="line" smooth="yes"/>
      <point x="59.0" y="4"/>
      <point x="73.0" y="-10"/>
      <point x="105.0" y="-10" type="curve" smooth="yes"/>
    </contour>
  </outline>
</glyph>
<glyph name="quoteleft" format="1">
  <advance width="384"/>
  <unicode hex="2018"/>
  <outline>
    <contour>
      <point x="91.0" y="335" type="curve" smooth="yes"/>
      <point x="293.0" y="335" type="line" smooth="yes"/>
      <point x="325.0" y="335"/>
      <point x="339.0" y="349"/>
      <point x="339.0" y="381" type="curve" smooth="yes"/>
      <point x="339.0" y="529" type="line" smooth="yes"/>
      <point x="339.0" y="561"/>
      <point x="325.0" y="575"/>
      <point x="293.0" y="575" type="curve" smooth="yes"/>
      <point x="194.0" y="575" type="line"/>
      <point x="194.0" y="580" type="line" smooth="yes"/>
      <point x="194.0" y="591"/>
      <point x="199.0" y="598"/>
      <point x="211.0" y="598" type="curve" smooth="yes"/>
      <point x="280.0" y="598" type="line" smooth="yes"/>
      <point x="312.0" y="598"/>
      <point x="326.0" y="612"/>
      <point x="326.0" y="644" type="curve" smooth="yes"/>
      <point x="326.0" y="684" type="line" smooth="yes"/>
      <point x="326.0" y="717"/>
      <point x="312.0" y="730"/>
      <point x="280.0" y="730" type="curve" smooth="yes"/>
      <point x="203.0" y="730" type="line" smooth="yes"/>
      <point x="107.0" y="730"/>
      <point x="45.0" y="678"/>
      <point x="45.0" y="569" type="curve" smooth="yes"/>
      <point x="45.0" y="381" type="line" smooth="yes"/>
      <point x="45.0" y="349"/>
      <point x="59.0" y="335"/>
    </contour>
  </outline>
</glyph>
<glyph name="guilsinglleft" format="1">
  <advance width="563"/>
  <unicode hex="2039"/>
  <outline>
    <contour>
      <point x="493.0" y="135" type="curve" smooth="yes"/>
      <point x="493.0" y="262" type="line" smooth="yes"/>
      <point x="493.0" y="294"/>
      <point x="480.0" y="308"/>
      <point x="449.0" y="313" type="curve" smooth="yes"/>
      <point x="283.0" y="340" type="line" smooth="yes"/>
      <point x="276.0" y="341"/>
      <point x="274.0" y="343"/>
      <point x="274.0" y="349" type="curve" smooth="yes"/>
      <point x="274.0" y="355"/>
      <point x="276.0" y="357"/>
      <point x="282.0" y="358" type="curve" smooth="yes"/>
      <point x="449.0" y="385" type="line" smooth="yes"/>
      <point x="480.0" y="390"/>
      <point x="493.0" y="404"/>
      <point x="493.0" y="436" type="curve" smooth="yes"/>
      <point x="493.0" y="563" type="line" smooth="yes"/>
      <point x="493.0" y="598"/>
      <point x="478.0" y="610"/>
      <point x="445.0" y="604" type="curve" smooth="yes"/>
      <point x="185.0" y="551" type="line" smooth="yes"/>
      <point x="95.0" y="533"/>
      <point x="50.0" y="491"/>
      <point x="50.0" y="386" type="curve" smooth="yes"/>
      <point x="50.0" y="312" type="line" smooth="yes"/>
      <point x="50.0" y="207"/>
      <point x="95.0" y="165"/>
      <point x="185.0" y="147" type="curve" smooth="yes"/>
      <point x="445.0" y="94" type="line" smooth="yes"/>
      <point x="478.0" y="88"/>
      <point x="493.0" y="100"/>
    </contour>
  </outline>
</glyph>
<glyph name="colonsign" format="1">
  <advance width="628"/>
  <unicode hex="20A1"/>
  <outline>
    <contour>
      <point x="290.0" y="-60" type="curve" smooth="yes"/>
      <point x="315.0" y="-60" type="line" smooth="yes"/>
      <point x="347.0" y="-60"/>
      <point x="361.0" y="-46"/>
      <point x="361.0" y="-14" type="curve" smooth="yes"/>
      <point x="361.0" y="30" type="line"/>
      <point x="394.0" y="30" type="line"/>
      <point x="394.0" y="-14" type="line" smooth="yes"/>
      <point x="394.0" y="-46"/>
      <point x="408.0" y="-60"/>
      <point x="440.0" y="-60" type="curve" smooth="yes"/>
      <point x="465.0" y="-60" type="line" smooth="yes"/>
      <point x="497.0" y="-60"/>
      <point x="511.0" y="-46"/>
      <point x="511.0" y="-14" type="curve" smooth="yes"/>
      <point x="511.0" y="30" type="line"/>
      <point x="548.0" y="30" type="line" smooth="yes"/>
      <point x="580.0" y="30"/>
      <point x="594.0" y="44"/>
      <point x="594.0" y="76" type="curve" smooth="yes"/>
      <point x="594.0" y="195" type="line" smooth="yes"/>
      <point x="594.0" y="227"/>
      <point x="580.0" y="241"/>
      <point x="548.0" y="241" type="curve" smooth="yes"/>
      <point x="347.0" y="241" type="line" smooth="yes"/>
      <point x="306.0" y="241"/>
      <point x="296.0" y="256"/>
      <point x="296.0" y="279" type="curve" smooth="yes"/>
      <point x="296.0" y="437" type="line" smooth="yes"/>
      <point x="296.0" y="459"/>
      <point x="305.0" y="477"/>
      <point x="347.0" y="477" type="curve" smooth="yes"/>
      <point x="548.0" y="477" type="line" smooth="yes"/>
      <point x="580.0" y="477"/>
      <point x="594.0" y="491"/>
      <point x="594.0" y="523" type="curve" smooth="yes"/>
      <point x="594.0" y="644" type="line" smooth="yes"/>
      <point x="594.0" y="676"/>
      <point x="580.0" y="690"/>
      <point x="548.0" y="690" type="curve" smooth="yes"/>
      <point x="511.0" y="690" type="line"/>
      <point x="511.0" y="734" type="line" smooth="yes"/>
      <point x="511.0" y="766"/>
      <point x="497.0" y="780"/>
      <point x="465.0" y="780" type="curve" smooth="yes"/>
      <point x="440.0" y="780" type="line" smooth="yes"/>
      <point x="408.0" y="780"/>
      <point x="394.0" y="766"/>
      <point x="394.0" y="734" type="curve" smooth="yes"/>
      <point x="394.0" y="690" type="line"/>
      <point x="361.0" y="690" type="line"/>
      <point x="361.0" y="734" type="line" smooth="yes"/>
      <point x="361.0" y="766"/>
      <point x="347.0" y="780"/>
      <point x="315.0" y="780" type="curve" smooth="yes"/>
      <point x="290.0" y="780" type="line" smooth="yes"/>
      <point x="258.0" y="780"/>
      <point x="244.0" y="766"/>
      <point x="244.0" y="734" type="curve" smooth="yes"/>
      <point x="244.0" y="687" type="line"/>
      <point x="94.0" y="670"/>
      <point x="48.0" y="588"/>
      <point x="48.0" y="475" type="curve" smooth="yes"/>
      <point x="48.0" y="244" type="line" smooth="yes"/>
      <point x="48.0" y="132"/>
      <point x="94.0" y="50"/>
      <point x="244.0" y="33" type="curve"/>
      <point x="244.0" y="-14" type="line" smooth="yes"/>
      <point x="244.0" y="-46"/>
      <point x="258.0" y="-60"/>
    </contour>
  </outline>
</glyph>
<glyph name="lira" format="1">
  <advance width="695"/>
  <unicode hex="20A4"/>
  <outline>
    <contour>
      <point x="105.0" y="-10" type="curve" smooth="yes"/>
      <point x="614.0" y="-10" type="line" smooth="yes"/>
      <point x="646.0" y="-10"/>
      <point x="660.0" y="4"/>
      <point x="660.0" y="36" type="curve" smooth="yes"/>
      <point x="660.0" y="291" type="line" smooth="yes"/>
      <point x="660.0" y="323"/>
      <point x="646.0" y="337"/>
      <point x="614.0" y="337" type="curve" smooth="yes"/>
      <point x="469.0" y="337" type="line" smooth="yes"/>
      <point x="437.0" y="337"/>
      <point x="423.0" y="323"/>
      <point x="423.0" y="291" type="curve" smooth="yes"/>
      <point x="423.0" y="199" type="line"/>
      <point x="306.0" y="199" type="line"/>
      <point x="306.0" y="225" type="line"/>
      <point x="344.0" y="225" type="line" smooth="yes"/>
      <point x="376.0" y="225"/>
      <point x="390.0" y="238"/>
      <point x="390.0" y="271" type="curve" smooth="yes"/>
      <point x="390.0" y="298" type="line" smooth="yes"/>
      <point x="390.0" y="331"/>
      <point x="376.0" y="344"/>
      <point x="344.0" y="344" type="curve" smooth="yes"/>
      <point x="306.0" y="344" type="line"/>
      <point x="306.0" y="365" type="line"/>
      <point x="344.0" y="365" type="line" smooth="yes"/>
      <point x="376.0" y="365"/>
      <point x="390.0" y="378"/>
      <point x="390.0" y="411" type="curve" smooth="yes"/>
      <point x="390.0" y="438" type="line" smooth="yes"/>
      <point x="390.0" y="471"/>
      <point x="376.0" y="484"/>
      <point x="344.0" y="484" type="curve" smooth="yes"/>
      <point x="306.0" y="484" type="line"/>
      <point x="309.0" y="503"/>
      <point x="320.0" y="517"/>
      <point x="357.0" y="517" type="curve" smooth="yes"/>
      <point x="505.0" y="517" type="line" smooth="yes"/>
      <point x="537.0" y="517"/>
      <point x="551.0" y="531"/>
      <point x="551.0" y="563" type="curve" smooth="yes"/>
      <point x="551.0" y="684" type="line" smooth="yes"/>
      <point x="551.0" y="716"/>
      <point x="537.0" y="730"/>
      <point x="505.0" y="730" type="curve" smooth="yes"/>
      <point x="315.0" y="730" type="line" smooth="yes"/>
      <point x="117.0" y="730"/>
      <point x="59.0" y="642"/>
      <point x="59.0" y="516" type="curve" smooth="yes"/>
      <point x="59.0" y="484" type="line"/>
      <point x="56.0" y="484" type="line" smooth="yes"/>
      <point x="24.0" y="484"/>
      <point x="10.0" y="470"/>
      <point x="10.0" y="438" type="curve" smooth="yes"/>
      <point x="10.0" y="411" type="line"/>
      <point x="10.0" y="378"/>
      <point x="24.0" y="365"/>
      <point x="56.0" y="365" type="curve" smooth="yes"/>
      <point x="59.0" y="365" type="line"/>
      <point x="59.0" y="344" type="line"/>
      <point x="56.0" y="344" type="line" smooth="yes"/>
      <point x="24.0" y="344"/>
      <point x="10.0" y="330"/>
      <point x="10.0" y="298" type="curve" smooth="yes"/>
      <point x="10.0" y="271" type="line"/>
      <point x="10.0" y="238"/>
      <point x="24.0" y="225"/>
      <point x="56.0" y="225" type="curve" smooth="yes"/>
      <point x="59.0" y="225" type="line"/>
      <point x="59.0" y="36" type="line" smooth="yes"/>
      <point x="59.0" y="4"/>
      <point x="73.0" y="-10"/>
    </contour>
  </outline>
</glyph>
<glyph name="guarani" format="1">
  <advance width="688.0"/>
  <unicode hex="20B2"/>
  <outline>
    <contour>
      <point x="290.0" y="-60" type="curve" smooth="yes"/>
      <point x="435.0" y="-60" type="line" smooth="yes"/>
      <point x="467.0" y="-60"/>
      <point x="481.0" y="-46"/>
      <point x="481.0" y="-14" type="curve" smooth="yes"/>
      <point x="481.0" y="30" type="line"/>
      <point x="599.0" y="30" type="line" smooth="yes"/>
      <point x="631.0" y="30"/>
      <point x="645.0" y="44"/>
      <point x="645.0" y="76" type="curve" smooth="yes"/>
      <point x="645.0" y="345" type="line" smooth="yes"/>
      <point x="645.0" y="377"/>
      <point x="631.0" y="391"/>
      <point x="599.0" y="391" type="curve" smooth="yes"/>
      <point x="454.0" y="391" type="line" smooth="yes"/>
      <point x="422.0" y="391"/>
      <point x="408.0" y="377"/>
      <point x="408.0" y="345" type="curve" smooth="yes"/>
      <point x="408.0" y="229" type="line"/>
      <point x="321.0" y="229" type="line" smooth="yes"/>
      <point x="296.0" y="229"/>
      <point x="285.0" y="241"/>
      <point x="285.0" y="268" type="curve" smooth="yes"/>
      <point x="285.0" y="447" type="line" smooth="yes"/>
      <point x="285.0" y="475"/>
      <point x="302.0" y="487"/>
      <point x="336.0" y="487" type="curve" smooth="yes"/>
      <point x="554.0" y="487" type="line" smooth="yes"/>
      <point x="586.0" y="487"/>
      <point x="600.0" y="501"/>
      <point x="600.0" y="533" type="curve" smooth="yes"/>
      <point x="600.0" y="644" type="line" smooth="yes"/>
      <point x="600.0" y="676"/>
      <point x="586.0" y="690"/>
      <point x="554.0" y="690" type="curve" smooth="yes"/>
      <point x="481.0" y="690" type="line"/>
      <point x="481.0" y="734" type="line" smooth="yes"/>
      <point x="481.0" y="766"/>
      <point x="467.0" y="780"/>
      <point x="435.0" y="780" type="curve" smooth="yes"/>
      <point x="290.0" y="780" type="line" smooth="yes"/>
      <point x="258.0" y="780"/>
      <point x="244.0" y="766"/>
      <point x="244.0" y="734" type="curve" smooth="yes"/>
      <point x="244.0" y="687" type="line"/>
      <point x="110.0" y="672"/>
      <point x="48.0" y="603"/>
      <point x="48.0" y="476" type="curve" smooth="yes"/>
      <point x="48.0" y="244" type="line" smooth="yes"/>
      <point x="48.0" y="117"/>
      <point x="110.0" y="48"/>
      <point x="244.0" y="33" type="curve"/>
      <point x="244.0" y="-14" type="line" smooth="yes"/>
      <point x="244.0" y="-46"/>
      <point x="258.0" y="-60"/>
    </contour>
  </outline>
</glyph>
<glyph name="liter" format="1">
  <advance width="649"/>
  <unicode hex="2113"/>
  <outline>
    <contour>
      <point x="304.0" y="-10" type="curve" smooth="yes"/>
      <point x="478.0" y="-10" type="line" smooth="yes"/>
      <point x="510.0" y="-10"/>
      <point x="524.0" y="4"/>
      <point x="524.0" y="36" type="curve" smooth="yes"/>
      <point x="524.0" y="153" type="line" smooth="yes"/>
      <point x="524.0" y="185"/>
      <point x="510.0" y="199"/>
      <point x="478.0" y="199" type="curve" smooth="yes"/>
      <point x="337.0" y="199" type="line" smooth="yes"/>
      <point x="296.0" y="199"/>
      <point x="286.0" y="214"/>
      <point x="286.0" y="237" type="curve" smooth="yes"/>
      <point x="320.0" y="237" type="line" smooth="yes"/>
      <point x="549.0" y="237"/>
      <point x="601.0" y="319"/>
      <point x="601.0" y="437" type="curve" smooth="yes"/>
      <point x="601.0" y="531" type="line" smooth="yes"/>
      <point x="601.0" y="658"/>
      <point x="549.0" y="745"/>
      <point x="320.0" y="745" type="curve" smooth="yes"/>
      <point x="98.0" y="745"/>
      <point x="48.0" y="658"/>
      <point x="48.0" y="531" type="curve" smooth="yes"/>
      <point x="48.0" y="204" type="line" smooth="yes"/>
      <point x="48.0" y="78"/>
      <point x="106.0" y="-10"/>
    </contour>
    <contour>
      <point x="286.0" y="515" type="line" smooth="yes"/>
      <point x="286.0" y="536"/>
      <point x="290.0" y="552"/>
      <point x="320.0" y="552" type="curve" smooth="yes"/>
      <point x="350.0" y="552"/>
      <point x="354.0" y="536"/>
      <point x="354.0" y="515" type="curve" smooth="yes"/>
      <point x="354.0" y="453" type="line" smooth="yes"/>
      <point x="354.0" y="432"/>
      <point x="350.0" y="416"/>
      <point x="320.0" y="416" type="curve" smooth="yes"/>
      <point x="286.0" y="416" type="line"/>
    </contour>
  </outline>
</glyph>
<glyph name="uni2117" format="1">
  <advance width="867"/>
  <unicode hex="2117"/>
  <outline>
    <contour>
      <point x="817.0" y="564" type="line" smooth="yes"/>
      <point x="817.0" y="715"/>
      <point x="747.0" y="821"/>
      <point x="434.0" y="821" type="curve" smooth="yes"/>
      <point x="122.0" y="821"/>
      <point x="50.0" y="715"/>
      <point x="50.0" y="564" type="curve" smooth="yes"/>
      <point x="50.0" y="154" type="line" smooth="yes"/>
      <point x="50.0" y="4"/>
      <point x="122.0" y="-101"/>
      <point x="434.0" y="-101" type="curve" smooth="yes"/>
      <point x="747.0" y="-101"/>
      <point x="817.0" y="4"/>
      <point x="817.0" y="154" type="curve" smooth="yes"/>
    </contour>
    <contour>
      <point x="434.0" y="15" type="curve" smooth="yes"/>
      <point x="229.0" y="15"/>
      <point x="170.0" y="67"/>
      <point x="170.0" y="150" type="curve" smooth="yes"/>
      <point x="170.0" y="568" type="line" smooth="yes"/>
      <point x="170.0" y="652"/>
      <point x="229.0" y="705"/>
      <point x="434.0" y="705" type="curve" smooth="yes"/>
      <point x="639.0" y="705"/>
      <point x="697.0" y="652"/>
      <point x="697.0" y="568" type="curve" smooth="yes"/>
      <point x="697.0" y="150" type="line" smooth="yes"/>
      <point x="697.0" y="67"/>
      <point x="639.0" y="15"/>
    </contour>
    <contour>
      <point x="259.0" y="100" type="curve" smooth="yes"/>
      <point x="370.0" y="100" type="line" smooth="yes"/>
      <point x="395.0" y="100"/>
      <point x="406.0" y="111"/>
      <point x="406.0" y="136" type="curve" smooth="yes"/>
      <point x="406.0" y="245" type="line"/>
      <point x="479.0" y="245" type="line" smooth="yes"/>
      <point x="619.0" y="245"/>
      <point x="658.0" y="307"/>
      <point x="658.0" y="395" type="curve" smooth="yes"/>
      <point x="658.0" y="486" type="line" smooth="yes"/>
      <point x="658.0" y="575"/>
      <point x="619.0" y="636"/>
      <point x="479.0" y="636" type="curve" smooth="yes"/>
      <point x="259.0" y="636" type="line" smooth="yes"/>
      <point x="234.0" y="636"/>
      <point x="223.0" y="625"/>
      <point x="223.0" y="600" type="curve" smooth="yes"/>
      <point x="223.0" y="136" type="line" smooth="yes"/>
      <point x="223.0" y="111"/>
      <point x="234.0" y="100"/>
    </contour>
    <contour>
      <point x="459.0" y="482" type="line" smooth="yes"/>
      <point x="479.0" y="482"/>
      <point x="483.0" y="470"/>
      <point x="483.0" y="457" type="curve" smooth="yes"/>
      <point x="483.0" y="419" type="line" smooth="yes"/>
      <point x="483.0" y="406"/>
      <point x="479.0" y="394"/>
      <point x="459.0" y="394" type="curve" smooth="yes"/>
      <point x="405.0" y="394" type="line"/>
      <point x="405.0" y="482" type="line"/>
    </contour>
  </outline>
</glyph>
<glyph name="uni2120" format="1">
  <advance width="903"/>
  <unicode hex="2120"/>
  <outline>
    <contour>
      <point x="384.0" y="392" type="curve" smooth="yes"/>
      <point x="384.0" y="455" type="line" smooth="yes"/>
      <point x="384.0" y="531"/>
      <point x="343.0" y="559"/>
      <point x="281.0" y="568" type="curve" smooth="yes"/>
      <point x="195.0" y="580" type="line" smooth="yes"/>
      <point x="191.0" y="580"/>
      <point x="188.0" y="583"/>
      <point x="188.0" y="587" type="curve" smooth="yes"/>
      <point x="188.0" y="590"/>
      <point x="191.0" y="592"/>
      <point x="194.0" y="592" type="curve" smooth="yes"/>
      <point x="330.0" y="592" type="line" smooth="yes"/>
      <point x="352.0" y="592"/>
      <point x="362.0" y="602"/>
      <point x="362.0" y="624" type="curve" smooth="yes"/>
      <point x="362.0" y="698" type="line" smooth="yes"/>
      <point x="362.0" y="720"/>
      <point x="352.0" y="730"/>
      <point x="330.0" y="730" type="curve" smooth="yes"/>
      <point x="163.0" y="730" type="line" smooth="yes"/>
      <point x="78.0" y="730"/>
      <point x="29.0" y="687"/>
      <point x="29.0" y="614" type="curve" smooth="yes"/>
      <point x="29.0" y="550" type="line"/>
      <point x="29.0" y="475"/>
      <point x="68.0" y="447"/>
      <point x="130.0" y="438" type="curve" smooth="yes"/>
      <point x="217.0" y="425" type="line" smooth="yes"/>
      <point x="221.0" y="424"/>
      <point x="224.0" y="423"/>
      <point x="224.0" y="418" type="curve" smooth="yes"/>
      <point x="224.0" y="415"/>
      <point x="222.0" y="413"/>
      <point x="218.0" y="413" type="curve" smooth="yes"/>
      <point x="60.0" y="413" type="line" smooth="yes"/>
      <point x="38.0" y="413"/>
      <point x="29.0" y="404"/>
      <point x="29.0" y="382" type="curve" smooth="yes"/>
      <point x="29.0" y="309" type="line"/>
      <point x="29.0" y="287"/>
      <point x="38.0" y="277"/>
      <point x="60.0" y="277" type="curve" smooth="yes"/>
      <point x="250.0" y="277" type="line" smooth="yes"/>
      <point x="334.0" y="277"/>
      <point x="384.0" y="319"/>
    </contour>
    <contour>
      <point x="541.0" y="277" type="line" smooth="yes"/>
      <point x="565.0" y="277"/>
      <point x="577.0" y="289"/>
      <point x="577.0" y="313" type="curve" smooth="yes"/>
      <point x="577.0" y="462" type="line"/>
      <point x="584.0" y="449" type="line"/>
      <point x="593.0" y="431"/>
      <point x="607.0" y="422"/>
      <point x="627.0" y="422" type="curve" smooth="yes"/>
      <point x="646.0" y="422" type="line" smooth="yes"/>
      <point x="666.0" y="422"/>
      <point x="680.0" y="431"/>
      <point x="690.0" y="449" type="curve" smooth="yes"/>
      <point x="697.0" y="462" type="line"/>
      <point x="697.0" y="313" type="line" smooth="yes"/>
      <point x="697.0" y="289"/>
      <point x="707.0" y="277"/>
      <point x="733.0" y="277" type="curve" smooth="yes"/>
      <point x="828.0" y="277" type="line" smooth="yes"/>
      <point x="852.0" y="277"/>
      <point x="864.0" y="289"/>
      <point x="864.0" y="313" type="curve" smooth="yes"/>
      <point x="864.0" y="694" type="line" smooth="yes"/>
      <point x="864.0" y="719"/>
      <point x="852.0" y="730"/>
      <point x="828.0" y="730" type="curve" smooth="yes"/>
      <point x="733.0" y="730" type="line" smooth="yes"/>
      <point x="714.0" y="730"/>
      <point x="702.0" y="723"/>
      <point x="692.0" y="705" type="curve"/>
      <point x="677.0" y="675"/>
      <point x="656.0" y="639"/>
      <point x="640.0" y="609" type="curve"/>
      <point x="641.0" y="610" type="line" smooth="yes"/>
      <point x="641.0" y="611"/>
      <point x="643.0" y="607"/>
      <point x="643.0" y="607" type="curve" smooth="yes"/>
      <point x="638.0" y="607" type="line" smooth="yes"/>
      <point x="638.0" y="607"/>
      <point x="639.0" y="610"/>
      <point x="640.0" y="609" type="curve"/>
      <point x="622.0" y="639"/>
      <point x="604.0" y="674"/>
      <point x="587.0" y="705" type="curve" smooth="yes"/>
      <point x="576.0" y="722"/>
      <point x="565.0" y="730"/>
      <point x="546.0" y="730" type="curve" smooth="yes"/>
      <point x="452.0" y="730" type="line" smooth="yes"/>
      <point x="428.0" y="730"/>
      <point x="416.0" y="719"/>
      <point x="416.0" y="694" type="curve" smooth="yes"/>
      <point x="416.0" y="313" type="line" smooth="yes"/>
      <point x="416.0" y="289"/>
      <point x="428.0" y="277"/>
      <point x="452.0" y="277" type="curve" smooth="yes"/>
    </contour>
  </outline>
</glyph>
<glyph name="estimated" format="1">
  <advance width="715"/>
  <unicode hex="212E"/>
  <outline>
    <contour>
      <point x="299.0" y="-10" type="curve" smooth="yes"/>
      <point x="553.0" y="-10" type="line" smooth="yes"/>
      <point x="585.0" y="-10"/>
      <point x="599.0" y="4"/>
      <point x="599.0" y="36" type="curve" smooth="yes"/>
      <point x="599.0" y="153" type="line" smooth="yes"/>
      <point x="599.0" y="185"/>
      <point x="585.0" y="199"/>
      <point x="553.0" y="199" type="curve" smooth="yes"/>
      <point x="332.0" y="199" type="line" smooth="yes"/>
      <point x="291.0" y="199"/>
      <point x="281.0" y="214"/>
      <point x="281.0" y="237" type="curve" smooth="yes"/>
      <point x="281.0" y="265" type="line"/>
      <point x="630.0" y="265" type="line" smooth="yes"/>
      <point x="662.0" y="265"/>
      <point x="676.0" y="279"/>
      <point x="676.0" y="311" type="curve" smooth="yes"/>
      <point x="676.0" y="531" type="line" smooth="yes"/>
      <point x="676.0" y="657"/>
      <point x="617.0" y="745"/>
      <point x="355.0" y="745" type="curve" smooth="yes"/>
      <point x="99.0" y="745"/>
      <point x="43.0" y="657"/>
      <point x="43.0" y="531" type="curve" smooth="yes"/>
      <point x="43.0" y="204" type="line" smooth="yes"/>
      <point x="43.0" y="78"/>
      <point x="101.0" y="-10"/>
    </contour>
    <contour>
      <point x="281.0" y="495" type="line" smooth="yes"/>
      <point x="281.0" y="519"/>
      <point x="298.0" y="532"/>
      <point x="355.0" y="532" type="curve" smooth="yes"/>
      <point x="412.0" y="532"/>
      <point x="429.0" y="519"/>
      <point x="429.0" y="495" type="curve" smooth="yes"/>
      <point x="429.0" y="464" type="line"/>
      <point x="281.0" y="464" type="line"/>
    </contour>
  </outline>
</glyph>
<glyph name="arrowdown" format="1">
  <advance width="1000"/>
  <unicode hex="2193"/>
  <outline>
    <contour>
      <point x="500.0" y="29" type="curve" smooth="yes"/>
      <point x="526.0" y="29"/>
      <point x="541.0" y="42"/>
      <point x="555.0" y="65" type="curve" smooth="yes"/>
      <point x="789.0" y="411" type="line" smooth="yes"/>
      <point x="810.0" y="442"/>
      <point x="790.0" y="480"/>
      <point x="761.0" y="480" type="curve" smooth="yes"/>
      <point x="600.0" y="480" type="line"/>
      <point x="610.0" y="649" type="line" smooth="yes"/>
      <point x="611.0" y="678"/>
      <point x="596.0" y="691"/>
      <point x="567.0" y="691" type="curve" smooth="yes"/>
      <point x="434.0" y="691" type="line" smooth="yes"/>
      <point x="405.0" y="691"/>
      <point x="390.0" y="678"/>
      <point x="391.0" y="650" type="curve" smooth="yes"/>
      <point x="391.0" y="649" type="line"/>
      <point x="401.0" y="480" type="line"/>
      <point x="240.0" y="480" type="line" smooth="yes"/>
      <point x="212.0" y="480"/>
      <point x="191.0" y="442"/>
      <point x="212.0" y="411" type="curve" smooth="yes"/>
      <point x="446.0" y="64" type="line" smooth="yes"/>
      <point x="460.0" y="42"/>
      <point x="476.0" y="29"/>
    </contour>
  </outline>
</glyph>
<glyph name="arrowdownright" format="1">
  <advance width="1000"/>
  <unicode hex="2198"/>
  <outline>
    <contour>
      <point x="757.0" y="102" type="curve" smooth="yes"/>
      <point x="776.0" y="121"/>
      <point x="777.0" y="141"/>
      <point x="771.0" y="167" type="curve" smooth="yes"/>
      <point x="692.0" y="577" type="line" smooth="yes"/>
      <point x="683.0" y="615"/>
      <point x="642.0" y="626"/>
      <point x="622.0" y="606" type="curve" smooth="yes"/>
      <point x="508.0" y="493" type="line"/>
      <point x="397.0" y="619" type="line" smooth="yes"/>
      <point x="377.0" y="641"/>
      <point x="355.0" y="639"/>
      <point x="336.0" y="618" type="curve"/>
      <point x="242.0" y="525" type="line" smooth="yes"/>
      <point x="221.0" y="504"/>
      <point x="219.0" y="484"/>
      <point x="241.0" y="464" type="curve" smooth="yes"/>
      <point x="241.0" y="463" type="line"/>
      <point x="367.0" y="352" type="line"/>
      <point x="254.0" y="238" type="line" smooth="yes"/>
      <point x="234.0" y="218"/>
      <point x="246.0" y="177"/>
      <point x="283.0" y="168" type="curve" smooth="yes"/>
      <point x="693.0" y="89" type="line" smooth="yes"/>
      <point x="719.0" y="83"/>
      <point x="740.0" y="84"/>
    </contour>
  </outline>
</glyph>
<glyph name="uni21B2" format="1">
  <advance width="1000"/>
  <unicode hex="21B2"/>
  <outline>
    <contour>
      <point x="564.0" y="26" type="curve" smooth="yes"/>
      <point x="564.0" y="27" type="line"/>
      <point x="526.0" y="173" type="line"/>
      <point x="595.0" y="173" type="line" smooth="yes"/>
      <point x="772.0" y="173"/>
      <point x="823.0" y="249"/>
      <point x="823.0" y="361" type="curve" smooth="yes"/>
      <point x="823.0" y="670" type="line" smooth="yes"/>
      <point x="823.0" y="696"/>
      <point x="811.0" y="710"/>
      <point x="782.0" y="710" type="curve" smooth="yes"/>
      <point x="677.0" y="710" type="line" smooth="yes"/>
      <point x="647.0" y="710"/>
      <point x="633.0" y="695"/>
      <point x="636.0" y="669" type="curve"/>
      <point x="636.0" y="410" type="line" smooth="yes"/>
      <point x="636.0" y="373"/>
      <point x="617.0" y="359"/>
      <point x="579.0" y="359" type="curve" smooth="yes"/>
      <point x="526.0" y="359" type="line"/>
      <point x="564.0" y="506" type="line"/>
      <point x="564.0" y="507" type="line" smooth="yes"/>
      <point x="566.0" y="532"/>
      <point x="531.0" y="557"/>
      <point x="497.0" y="535" type="curve" smooth="yes"/>
      <point x="172.0" y="317" type="line" smooth="yes"/>
      <point x="151.0" y="304"/>
      <point x="138.0" y="290"/>
      <point x="138.0" y="266" type="curve" smooth="yes"/>
      <point x="138.0" y="242"/>
      <point x="151.0" y="227"/>
      <point x="173.0" y="215" type="curve"/>
      <point x="496.0" y="-2" type="line" smooth="yes"/>
      <point x="531.0" y="-26"/>
      <point x="566.0" y="1"/>
    </contour>
  </outline>
</glyph>
<glyph name="uni21B3" format="1">
  <advance width="1000"/>
  <unicode hex="21B3"/>
  <outline>
    <contour>
      <point x="485.0" y="-2" type="curve" smooth="yes"/>
      <point x="809.0" y="216" type="line"/>
      <point x="830.0" y="227"/>
      <point x="843.0" y="242"/>
      <point x="843.0" y="266" type="curve" smooth="yes"/>
      <point x="843.0" y="290"/>
      <point x="830.0" y="304"/>
      <point x="808.0" y="318" type="curve" smooth="yes"/>
      <point x="485.0" y="535" type="line" smooth="yes"/>
      <point x="450.0" y="557"/>
      <point x="415.0" y="532"/>
      <point x="417.0" y="507" type="curve" smooth="yes"/>
      <point x="417.0" y="506" type="line"/>
      <point x="455.0" y="359" type="line"/>
      <point x="402.0" y="359" type="line" smooth="yes"/>
      <point x="364.0" y="359"/>
      <point x="345.0" y="373"/>
      <point x="345.0" y="410" type="curve" smooth="yes"/>
      <point x="345.0" y="669" type="line"/>
      <point x="348.0" y="695"/>
      <point x="334.0" y="710"/>
      <point x="304.0" y="710" type="curve" smooth="yes"/>
      <point x="199.0" y="710" type="line" smooth="yes"/>
      <point x="170.0" y="710"/>
      <point x="158.0" y="696"/>
      <point x="158.0" y="670" type="curve" smooth="yes"/>
      <point x="158.0" y="361" type="line" smooth="yes"/>
      <point x="158.0" y="249"/>
      <point x="209.0" y="173"/>
      <point x="386.0" y="173" type="curve" smooth="yes"/>
      <point x="455.0" y="173" type="line"/>
      <point x="417.0" y="27" type="line"/>
      <point x="417.0" y="26" type="line" smooth="yes"/>
      <point x="415.0" y="1"/>
      <point x="450.0" y="-26"/>
    </contour>
  </outline>
</glyph>
<glyph name="summation" format="1">
  <advance width="650"/>
  <unicode hex="2211"/>
  <outline>
    <contour>
      <point x="82.0" y="-100" type="curve" smooth="yes"/>
      <point x="568.0" y="-100" type="line" smooth="yes"/>
      <point x="600.0" y="-100"/>
      <point x="614.0" y="-86"/>
      <point x="614.0" y="-54" type="curve" smooth="yes"/>
      <point x="614.0" y="65" type="line" smooth="yes"/>
      <point x="614.0" y="97"/>
      <point x="600.0" y="111"/>
      <point x="568.0" y="111" type="curve" smooth="yes"/>
      <point x="343.0" y="111" type="line"/>
      <point x="481.0" y="247" type="line" smooth="yes"/>
      <point x="497.0" y="264"/>
      <point x="501.0" y="275"/>
      <point x="501.0" y="300" type="curve" smooth="yes"/>
      <point x="501.0" y="352" type="line" smooth="yes"/>
      <point x="501.0" y="376"/>
      <point x="498.0" y="387"/>
      <point x="481.0" y="404" type="curve" smooth="yes"/>
      <point x="361.0" y="517" type="line"/>
      <point x="550.0" y="517" type="line" smooth="yes"/>
      <point x="582.0" y="517"/>
      <point x="596.0" y="531"/>
      <point x="596.0" y="563" type="curve" smooth="yes"/>
      <point x="596.0" y="684" type="line" smooth="yes"/>
      <point x="596.0" y="716"/>
      <point x="582.0" y="730"/>
      <point x="550.0" y="730" type="curve" smooth="yes"/>
      <point x="100.0" y="730" type="line" smooth="yes"/>
      <point x="68.0" y="730"/>
      <point x="54.0" y="716"/>
      <point x="54.0" y="684" type="curve" smooth="yes"/>
      <point x="54.0" y="530" type="line" smooth="yes"/>
      <point x="54.0" y="500"/>
      <point x="62.0" y="481"/>
      <point x="82.0" y="460" type="curve"/>
      <point x="240.0" y="316" type="line"/>
      <point x="64.0" y="144" type="line" smooth="yes"/>
      <point x="44.0" y="123"/>
      <point x="36.0" y="104"/>
      <point x="36.0" y="75" type="curve" smooth="yes"/>
      <point x="36.0" y="-54" type="line" smooth="yes"/>
      <point x="36.0" y="-86"/>
      <point x="50.0" y="-100"/>
    </contour>
  </outline>
</glyph>
<glyph name="minus" format="1">
  <advance width="734"/>
  <unicode hex="2212"/>
  <outline>
    <contour>
      <point x="628.0" y="257" type="line" smooth="yes"/>
      <point x="660.0" y="257"/>
      <point x="674.0" y="270"/>
      <point x="674.0" y="303" type="curve" smooth="yes"/>
      <point x="674.0" y="417" type="line" smooth="yes"/>
      <point x="674.0" y="450"/>
      <point x="660.0" y="463"/>
      <point x="628.0" y="463" type="curve" smooth="yes"/>
      <point x="106.0" y="463" type="line" smooth="yes"/>
      <point x="74.0" y="463"/>
      <point x="60.0" y="449"/>
      <point x="60.0" y="417" type="curve" smooth="yes"/>
      <point x="60.0" y="303" type="line" smooth="yes"/>
      <point x="60.0" y="270"/>
      <point x="74.0" y="257"/>
      <point x="106.0" y="257" type="curve" smooth="yes"/>
    </contour>
  </outline>
</glyph>
<glyph name="integral" format="1">
  <advance width="474"/>
  <unicode hex="222B"/>
  <outline>
    <contour>
      <point x="113.0" y="153" type="line" smooth="yes"/>
      <point x="113.0" y="133"/>
      <point x="110.0" y="113"/>
      <point x="82.0" y="113" type="curve" smooth="yes"/>
      <point x="51.0" y="113" type="line" smooth="yes"/>
      <point x="19.0" y="113"/>
      <point x="5.0" y="99"/>
      <point x="5.0" y="67" type="curve"/>
      <point x="5.0" y="-54" type="line"/>
      <point x="5.0" y="-86"/>
      <point x="19.0" y="-100"/>
      <point x="51.0" y="-100" type="curve" smooth="yes"/>
      <point x="105.0" y="-100" type="line" smooth="yes"/>
      <point x="303.0" y="-100"/>
      <point x="361.0" y="-12"/>
      <point x="361.0" y="115" type="curve" smooth="yes"/>
      <point x="361.0" y="567" type="line" smooth="yes"/>
      <point x="361.0" y="587"/>
      <point x="364.0" y="607"/>
      <point x="392.0" y="607" type="curve" smooth="yes"/>
      <point x="423.0" y="607" type="line" smooth="yes"/>
      <point x="455.0" y="607"/>
      <point x="469.0" y="621"/>
      <point x="469.0" y="653" type="curve" smooth="yes"/>
      <point x="469.0" y="774" type="line" smooth="yes"/>
      <point x="469.0" y="806"/>
      <point x="455.0" y="820"/>
      <point x="423.0" y="820" type="curve" smooth="yes"/>
      <point x="369.0" y="820" type="line" smooth="yes"/>
      <point x="171.0" y="820"/>
      <point x="113.0" y="732"/>
      <point x="113.0" y="605" type="curve" smooth="yes"/>
    </contour>
  </outline>
</glyph>
<glyph name="lessequal" format="1">
  <advance width="714"/>
  <unicode hex="2264"/>
  <outline>
    <contour>
      <point x="588" y="-10" type="line" smooth="yes"/>
      <point x="620" y="-10"/>
      <point x="634" y="3"/>
      <point x="634" y="36" type="curve" smooth="yes"/>
      <point x="634" y="292" type="line" smooth="yes"/>
      <point x="634" y="324"/>
      <point x="621" y="338"/>
      <point x="590" y="343" type="curve"/>
      <point x="591" y="343" type="line"/>
      <point x="304" y="420" type="line" smooth="yes"/>
      <point x="296" y="421"/>
      <point x="294" y="423"/>
      <point x="294" y="429" type="curve" smooth="yes"/>
      <point x="294" y="435"/>
      <point x="296" y="437"/>
      <point x="303" y="438" type="curve"/>
      <point x="591" y="515" type="line"/>
      <point x="590" y="515" type="line"/>
      <point x="621" y="520"/>
      <point x="634" y="534"/>
      <point x="634" y="566" type="curve" smooth="yes"/>
      <point x="634" y="698" type="line" smooth="yes"/>
      <point x="634" y="733"/>
      <point x="619" y="745"/>
      <point x="586" y="739" type="curve"/>
      <point x="204" y="630" type="line" smooth="yes"/>
      <point x="116" y="604"/>
      <point x="70" y="570"/>
      <point x="70" y="465" type="curve" smooth="yes"/>
      <point x="70" y="393" type="line" smooth="yes"/>
      <point x="70" y="288"/>
      <point x="116" y="254"/>
      <point x="204" y="228" type="curve" smooth="yes"/>
      <point x="316" y="196" type="line"/>
      <point x="116" y="196" type="line" smooth="yes"/>
      <point x="84" y="196"/>
      <point x="70" y="182"/>
      <point x="70" y="150" type="curve" smooth="yes"/>
      <point x="70" y="36" type="line" smooth="yes"/>
      <point x="70" y="3"/>
      <point x="84" y="-10"/>
      <point x="116" y="-10" type="curve" smooth="yes"/>
    </contour>
  </outline>
</glyph>
<glyph name="greaterequal" format="1">
  <advance width="714"/>
  <unicode hex="2265"/>
  <outline>
    <contour>
      <point x="598" y="-10" type="line" smooth="yes"/>
      <point x="630" y="-10"/>
      <point x="644" y="3"/>
      <point x="644" y="36" type="curve" smooth="yes"/>
      <point x="644" y="150" type="line" smooth="yes"/>
      <point x="644" y="183"/>
      <point x="630" y="196"/>
      <point x="598" y="196" type="curve" smooth="yes"/>
      <point x="398" y="196" type="line"/>
      <point x="510" y="228" type="line" smooth="yes"/>
      <point x="598" y="254"/>
      <point x="644" y="288"/>
      <point x="644" y="393" type="curve" smooth="yes"/>
      <point x="644" y="465" type="line" smooth="yes"/>
      <point x="644" y="570"/>
      <point x="598" y="604"/>
      <point x="510" y="630" type="curve" smooth="yes"/>
      <point x="129" y="739" type="line"/>
      <point x="95" y="745"/>
      <point x="80" y="733"/>
      <point x="80" y="698" type="curve" smooth="yes"/>
      <point x="80" y="566" type="line" smooth="yes"/>
      <point x="80" y="534"/>
      <point x="93" y="520"/>
      <point x="124" y="515" type="curve"/>
      <point x="123" y="515" type="line"/>
      <point x="410" y="438" type="line" smooth="yes"/>
      <point x="418" y="437"/>
      <point x="420" y="435"/>
      <point x="420" y="429" type="curve" smooth="yes"/>
      <point x="420" y="423"/>
      <point x="418" y="421"/>
      <point x="411" y="420" type="curve"/>
      <point x="123" y="343" type="line"/>
      <point x="124" y="343" type="line"/>
      <point x="93" y="338"/>
      <point x="80" y="324"/>
      <point x="80" y="292" type="curve" smooth="yes"/>
      <point x="80" y="36" type="line" smooth="yes"/>
      <point x="80" y="3"/>
      <point x="94" y="-10"/>
      <point x="126" y="-10" type="curve" smooth="yes"/>
    </contour>
  </outline>
</glyph>
<glyph name="whiteuppointingtriangle" format="1">
  <advance width="1000"/>
  <unicode hex="25B3"/>
  <outline>
    <contour>
      <point x="797.0" y="172" type="curve" smooth="yes"/>
      <point x="797.0" y="182"/>
      <point x="794.0" y="193"/>
      <point x="788.0" y="203" type="curve" smooth="yes"/>
      <point x="564.0" y="570" type="line" smooth="yes"/>
      <point x="547.0" y="597"/>
      <point x="529.0" y="611"/>
      <point x="501.0" y="611" type="curve" smooth="yes"/>
      <point x="472.0" y="611"/>
      <point x="453.0" y="597"/>
      <point x="437.0" y="571" type="curve" smooth="yes"/>
      <point x="213.0" y="203" type="line" smooth="yes"/>
      <point x="207.0" y="193"/>
      <point x="204.0" y="182"/>
      <point x="204.0" y="172" type="curve" smooth="yes"/>
      <point x="204.0" y="142"/>
      <point x="224.0" y="120"/>
      <point x="250.0" y="120" type="curve" smooth="yes"/>
      <point x="751.0" y="120" type="line" smooth="yes"/>
      <point x="775.0" y="120"/>
      <point x="797.0" y="142"/>
    </contour>
    <contour>
      <point x="250.0" y="160" type="line" smooth="yes"/>
      <point x="244.0" y="160"/>
      <point x="244.0" y="168"/>
      <point x="244.0" y="172" type="curve" smooth="yes"/>
      <point x="244.0" y="176"/>
      <point x="245.0" y="179"/>
      <point x="247.0" y="183" type="curve" smooth="yes"/>
      <point x="471.0" y="549" type="line" smooth="yes"/>
      <point x="479.0" y="561"/>
      <point x="486.0" y="571"/>
      <point x="501.0" y="571" type="curve" smooth="yes"/>
      <point x="515.0" y="571"/>
      <point x="523.0" y="561"/>
      <point x="530.0" y="550" type="curve" smooth="yes"/>
      <point x="754.0" y="183" type="line" smooth="yes"/>
      <point x="756.0" y="179"/>
      <point x="757.0" y="176"/>
      <point x="757.0" y="172" type="curve" smooth="yes"/>
      <point x="757.0" y="168"/>
      <point x="757.0" y="160"/>
      <point x="751.0" y="160" type="curve" smooth="yes"/>
    </contour>
  </outline>
</glyph>
<glyph name="whitedownpointingtriangle" format="1">
  <advance width="1000"/>
  <unicode hex="25BD"/>
  <outline>
    <contour>
      <point x="203.0" y="558" type="curve" smooth="yes"/>
      <point x="203.0" y="548"/>
      <point x="206.0" y="537"/>
      <point x="212.0" y="527" type="curve" smooth="yes"/>
      <point x="436.0" y="160" type="line" smooth="yes"/>
      <point x="453.0" y="133"/>
      <point x="471.0" y="119"/>
      <point x="499.0" y="119" type="curve" smooth="yes"/>
      <point x="528.0" y="119"/>
      <point x="547.0" y="133"/>
      <point x="563.0" y="159" type="curve" smooth="yes"/>
      <point x="787.0" y="527" type="line" smooth="yes"/>
      <point x="793.0" y="537"/>
      <point x="796.0" y="548"/>
      <point x="796.0" y="558" type="curve" smooth="yes"/>
      <point x="796.0" y="588"/>
      <point x="776.0" y="610"/>
      <point x="750.0" y="610" type="curve" smooth="yes"/>
      <point x="249.0" y="610" type="line" smooth="yes"/>
      <point x="225.0" y="610"/>
      <point x="203.0" y="588"/>
    </contour>
    <contour>
      <point x="750.0" y="570" type="line" smooth="yes"/>
      <point x="756.0" y="570"/>
      <point x="756.0" y="562"/>
      <point x="756.0" y="558" type="curve" smooth="yes"/>
      <point x="756.0" y="554"/>
      <point x="755.0" y="551"/>
      <point x="753.0" y="547" type="curve" smooth="yes"/>
      <point x="529.0" y="181" type="line" smooth="yes"/>
      <point x="521.0" y="169"/>
      <point x="514.0" y="159"/>
      <point x="499.0" y="159" type="curve" smooth="yes"/>
      <point x="485.0" y="159"/>
      <point x="477.0" y="169"/>
      <point x="470.0" y="180" type="curve" smooth="yes"/>
      <point x="246.0" y="547" type="line" smooth="yes"/>
      <point x="244.0" y="551"/>
      <point x="243.0" y="554"/>
      <point x="243.0" y="558" type="curve" smooth="yes"/>
      <point x="243.0" y="562"/>
      <point x="243.0" y="570"/>
      <point x="249.0" y="570" type="curve" smooth="yes"/>
    </contour>
  </outline>
</glyph>
<glyph name="blackdiamond" format="1">
  <advance width="1000.0"/>
  <unicode hex="25C6"/>
  <outline>
    <contour>
      <point x="793.0" y="328" type="line" smooth="yes"/>
      <point x="804.0" y="339"/>
      <point x="810.0" y="350"/>
      <point x="810.0" y="360" type="curve" smooth="yes"/>
      <point x="810.0" y="371"/>
      <point x="804.0" y="381"/>
      <point x="793.0" y="392" type="curve" smooth="yes"/>
      <point x="532.0" y="653" type="line" smooth="yes"/>
      <point x="521.0" y="664"/>
      <point x="511.0" y="670"/>
      <point x="500.0" y="670" type="curve" smooth="yes"/>
      <point x="490.0" y="670"/>
      <point x="479.0" y="664"/>
      <point x="468.0" y="653" type="curve" smooth="yes"/>
      <point x="207.0" y="392" type="line" smooth="yes"/>
      <point x="196.0" y="381"/>
      <point x="191.0" y="371"/>
      <point x="191.0" y="360" type="curve" smooth="yes"/>
      <point x="191.0" y="350"/>
      <point x="196.0" y="339"/>
      <point x="207.0" y="328" type="curve" smooth="yes"/>
      <point x="468.0" y="67" type="line" smooth="yes"/>
      <point x="479.0" y="56"/>
      <point x="490.0" y="51"/>
      <point x="500.0" y="51" type="curve" smooth="yes"/>
      <point x="511.0" y="51"/>
      <point x="521.0" y="56"/>
      <point x="532.0" y="67" type="curve" smooth="yes"/>
    </contour>
  </outline>
</glyph>
<glyph name="uni261C" format="1">
  <advance width="1000"/>
  <unicode hex="261C"/>
  <outline>
    <contour>
      <point x="744.0" y="84" type="curve" smooth="yes"/>
      <point x="819.0" y="84" type="line" smooth="yes"/>
      <point x="850.0" y="84"/>
      <point x="868.0" y="101"/>
      <point x="868.0" y="134" type="curve" smooth="yes"/>
      <point x="868.0" y="586" type="line" smooth="yes"/>
      <point x="868.0" y="621"/>
      <point x="850.0" y="636"/>
      <point x="819.0" y="636" type="curve" smooth="yes"/>
      <point x="744.0" y="636" type="line" smooth="yes"/>
      <point x="712.0" y="636"/>
      <point x="695.0" y="617"/>
      <point x="695.0" y="588" type="curve" smooth="yes"/>
      <point x="695.0" y="561" type="line"/>
      <point x="515.0" y="595" type="line" smooth="yes"/>
      <point x="498.0" y="598"/>
      <point x="473.0" y="598"/>
      <point x="451.0" y="597" type="curve" smooth="yes"/>
      <point x="158.0" y="576" type="line" smooth="yes"/>
      <point x="127.0" y="575"/>
      <point x="109.0" y="557"/>
      <point x="109.0" y="523" type="curve" smooth="yes"/>
      <point x="109.0" y="493" type="line" smooth="yes"/>
      <point x="109.0" y="461"/>
      <point x="127.0" y="442"/>
      <point x="164.0" y="442" type="curve" smooth="yes"/>
      <point x="298.0" y="442" type="line"/>
      <point x="298.0" y="438" type="line" smooth="yes"/>
      <point x="298.0" y="402" type="line" smooth="yes"/>
      <point x="298.0" y="379"/>
      <point x="307.0" y="363"/>
      <point x="325.0" y="356" type="curve"/>
      <point x="324.0" y="352"/>
      <point x="323.0" y="348"/>
      <point x="323.0" y="343" type="curve" smooth="yes"/>
      <point x="323.0" y="304" type="line" smooth="yes"/>
      <point x="323.0" y="282"/>
      <point x="330.0" y="267"/>
      <point x="347.0" y="259" type="curve"/>
      <point x="346.0" y="255"/>
      <point x="345.0" y="250"/>
      <point x="345.0" y="246" type="curve" smooth="yes"/>
      <point x="345.0" y="206" type="line" smooth="yes"/>
      <point x="345.0" y="177"/>
      <point x="366.0" y="156"/>
      <point x="395.0" y="155" type="curve" smooth="yes"/>
      <point x="628.0" y="145" type="line" smooth="yes"/>
      <point x="652.0" y="145"/>
      <point x="674.0" y="154"/>
      <point x="685.0" y="159" type="curve" smooth="yes"/>
      <point x="695.0" y="165" type="line"/>
      <point x="695.0" y="132" type="line" smooth="yes"/>
      <point x="695.0" y="103"/>
      <point x="712.0" y="84"/>
    </contour>
    <contour>
      <point x="736.0" y="134" type="curve" smooth="yes"/>
      <point x="736.0" y="586" type="line" smooth="yes"/>
      <point x="736.0" y="591"/>
      <point x="739.0" y="595"/>
      <point x="744.0" y="595" type="curve" smooth="yes"/>
      <point x="777.0" y="595" type="line" smooth="yes"/>
      <point x="782.0" y="595"/>
      <point x="785.0" y="591"/>
      <point x="785.0" y="586" type="curve" smooth="yes"/>
      <point x="785.0" y="134" type="line" smooth="yes"/>
      <point x="785.0" y="129"/>
      <point x="782.0" y="125"/>
      <point x="777.0" y="125" type="curve" smooth="yes"/>
      <point x="744.0" y="125" type="line" smooth="yes"/>
      <point x="739.0" y="125"/>
      <point x="736.0" y="129"/>
    </contour>
    <contour>
      <point x="628.0" y="186" type="curve"/>
      <point x="396.0" y="197" type="line"/>
      <point x="391.0" y="197"/>
      <point x="386.0" y="201"/>
      <point x="386.0" y="206" type="curve" smooth="yes"/>
      <point x="386.0" y="245" type="line" smooth="yes"/>
      <point x="386.0" y="247"/>
      <point x="385.0" y="252"/>
      <point x="389.0" y="252" type="curve"/>
      <point x="478.0" y="245" type="line"/>
      <point x="478.0" y="286" type="line"/>
      <point x="469.0" y="287" type="line"/>
      <point x="377.0" y="294" type="line" smooth="yes"/>
      <point x="369.0" y="294"/>
      <point x="364.0" y="297"/>
      <point x="364.0" y="304" type="curve" smooth="yes"/>
      <point x="364.0" y="340" type="line" smooth="yes"/>
      <point x="364.0" y="344"/>
      <point x="365.0" y="348"/>
      <point x="369.0" y="350" type="curve"/>
      <point x="459.0" y="343" type="line"/>
      <point x="459.0" y="384" type="line"/>
      <point x="450.0" y="385" type="line"/>
      <point x="352.0" y="392" type="line" smooth="yes"/>
      <point x="345.0" y="392"/>
      <point x="339.0" y="394"/>
      <point x="339.0" y="402" type="curve" smooth="yes"/>
      <point x="339.0" y="436" type="line" smooth="yes"/>
      <point x="339.0" y="439"/>
      <point x="340.0" y="442"/>
      <point x="344.0" y="442" type="curve" smooth="yes"/>
      <point x="442.0" y="442" type="line"/>
      <point x="442.0" y="483" type="line"/>
      <point x="164.0" y="483" type="line" smooth="yes"/>
      <point x="157.0" y="483"/>
      <point x="150.0" y="485"/>
      <point x="150.0" y="493" type="curve" smooth="yes"/>
      <point x="150.0" y="523" type="line" smooth="yes"/>
      <point x="150.0" y="531"/>
      <point x="156.0" y="535"/>
      <point x="161.0" y="535" type="curve" smooth="yes"/>
      <point x="455.0" y="556" type="line" smooth="yes"/>
      <point x="473.0" y="557"/>
      <point x="494.0" y="557"/>
      <point x="507.0" y="555" type="curve"/>
      <point x="695.0" y="519" type="line"/>
      <point x="695.0" y="212" type="line"/>
      <point x="665.0" y="196" type="line" smooth="yes"/>
      <point x="657.0" y="191"/>
      <point x="643.0" y="186"/>
    </contour>
  </outline>
</glyph>
<glyph name="uni261F" format="1">
  <advance width="1000"/>
  <unicode hex="261F"/>
  <outline>
    <contour>
      <point x="633.0" y="-19" type="curve" smooth="yes"/>
      <point x="663.0" y="-19" type="line" smooth="yes"/>
      <point x="697.0" y="-19"/>
      <point x="715.0" y="-1"/>
      <point x="716.0" y="30" type="curve" smooth="yes"/>
      <point x="737.0" y="323" type="line" smooth="yes"/>
      <point x="738.0" y="345"/>
      <point x="738.0" y="370"/>
      <point x="735.0" y="387" type="curve" smooth="yes"/>
      <point x="701.0" y="567" type="line"/>
      <point x="728.0" y="567" type="line" smooth="yes"/>
      <point x="757.0" y="567"/>
      <point x="776.0" y="584"/>
      <point x="776.0" y="616" type="curve" smooth="yes"/>
      <point x="776.0" y="691" type="line" smooth="yes"/>
      <point x="776.0" y="722"/>
      <point x="761.0" y="740"/>
      <point x="726.0" y="740" type="curve" smooth="yes"/>
      <point x="274.0" y="740" type="line" smooth="yes"/>
      <point x="241.0" y="740"/>
      <point x="224.0" y="722"/>
      <point x="224.0" y="691" type="curve" smooth="yes"/>
      <point x="224.0" y="616" type="line" smooth="yes"/>
      <point x="224.0" y="584"/>
      <point x="243.0" y="567"/>
      <point x="272.0" y="567" type="curve" smooth="yes"/>
      <point x="304.0" y="567" type="line"/>
      <point x="299.0" y="557" type="line" smooth="yes"/>
      <point x="294.0" y="546"/>
      <point x="285.0" y="524"/>
      <point x="285.0" y="500" type="curve" smooth="yes"/>
      <point x="295.0" y="267" type="line" smooth="yes"/>
      <point x="296.0" y="238"/>
      <point x="317.0" y="217"/>
      <point x="346.0" y="217" type="curve" smooth="yes"/>
      <point x="386.0" y="217" type="line" smooth="yes"/>
      <point x="390.0" y="217"/>
      <point x="395.0" y="218"/>
      <point x="399.0" y="219" type="curve"/>
      <point x="407.0" y="202"/>
      <point x="422.0" y="195"/>
      <point x="444.0" y="195" type="curve" smooth="yes"/>
      <point x="483.0" y="195" type="line" smooth="yes"/>
      <point x="488.0" y="195"/>
      <point x="492.0" y="196"/>
      <point x="496.0" y="197" type="curve"/>
      <point x="503.0" y="179"/>
      <point x="519.0" y="170"/>
      <point x="542.0" y="170" type="curve" smooth="yes"/>
      <point x="578.0" y="170" type="line" smooth="yes"/>
      <point x="579.0" y="170"/>
      <point x="581.0" y="170"/>
      <point x="582.0" y="170" type="curve"/>
      <point x="582.0" y="36" type="line" smooth="yes"/>
      <point x="582.0" y="-1"/>
      <point x="601.0" y="-19"/>
    </contour>
    <contour>
      <point x="265.0" y="649" type="line" smooth="yes"/>
      <point x="265.0" y="654"/>
      <point x="269.0" y="657"/>
      <point x="274.0" y="657" type="curve" smooth="yes"/>
      <point x="726.0" y="657" type="line" smooth="yes"/>
      <point x="731.0" y="657"/>
      <point x="735.0" y="654"/>
      <point x="735.0" y="649" type="curve" smooth="yes"/>
      <point x="735.0" y="616" type="line" smooth="yes"/>
      <point x="735.0" y="611"/>
      <point x="731.0" y="608"/>
      <point x="726.0" y="608" type="curve" smooth="yes"/>
      <point x="274.0" y="608" type="line" smooth="yes"/>
      <point x="269.0" y="608"/>
      <point x="265.0" y="611"/>
      <point x="265.0" y="616" type="curve" smooth="yes"/>
    </contour>
    <contour>
      <point x="663.0" y="22" type="curve" smooth="yes"/>
      <point x="633.0" y="22" type="line" smooth="yes"/>
      <point x="625.0" y="22"/>
      <point x="623.0" y="28"/>
      <point x="623.0" y="36" type="curve" smooth="yes"/>
      <point x="623.0" y="314" type="line"/>
      <point x="582.0" y="314" type="line"/>
      <point x="582.0" y="216" type="line" smooth="yes"/>
      <point x="582.0" y="212"/>
      <point x="579.0" y="211"/>
      <point x="576.0" y="211" type="curve" smooth="yes"/>
      <point x="542.0" y="211" type="line" smooth="yes"/>
      <point x="534.0" y="211"/>
      <point x="532.0" y="217"/>
      <point x="532.0" y="224" type="curve" smooth="yes"/>
      <point x="525.0" y="322" type="line"/>
      <point x="524.0" y="331" type="line"/>
      <point x="483.0" y="331" type="line"/>
      <point x="490.0" y="241" type="line"/>
      <point x="488.0" y="237"/>
      <point x="484.0" y="236"/>
      <point x="480.0" y="236" type="curve" smooth="yes"/>
      <point x="444.0" y="236" type="line" smooth="yes"/>
      <point x="437.0" y="236"/>
      <point x="434.0" y="241"/>
      <point x="434.0" y="249" type="curve" smooth="yes"/>
      <point x="427.0" y="341" type="line"/>
      <point x="426.0" y="350" type="line"/>
      <point x="385.0" y="350" type="line"/>
      <point x="392.0" y="260" type="line"/>
      <point x="392.0" y="257"/>
      <point x="386.0" y="258"/>
      <point x="384.0" y="258" type="curve" smooth="yes"/>
      <point x="346.0" y="258" type="line" smooth="yes"/>
      <point x="340.0" y="258"/>
      <point x="337.0" y="263"/>
      <point x="337.0" y="268" type="curve" smooth="yes"/>
      <point x="326.0" y="500" type="line"/>
      <point x="326.0" y="515"/>
      <point x="331.0" y="528"/>
      <point x="335.0" y="536" type="curve" smooth="yes"/>
      <point x="352.0" y="567" type="line"/>
      <point x="659.0" y="567" type="line"/>
      <point x="695.0" y="379" type="line"/>
      <point x="697.0" y="366"/>
      <point x="697.0" y="345"/>
      <point x="696.0" y="327" type="curve" smooth="yes"/>
      <point x="675.0" y="33" type="line" smooth="yes"/>
      <point x="675.0" y="28"/>
      <point x="671.0" y="22"/>
    </contour>
  </outline>
</glyph>
<glyph name="uni2B1B" format="1">
  <advance width="1280.0"/>
  <unicode hex="2B1B"/>
  <outline>
    <contour>
      <point x="1190" y="-144" type="curve" smooth="yes"/>
      <point x="1190" y="864" type="line" smooth="yes"/>
      <point x="1190" y="896"/>
      <point x="1176" y="910"/>
      <point x="1144" y="910" type="curve" smooth="yes"/>
      <point x="136" y="910" type="line" smooth="yes"/>
      <point x="104" y="910"/>
      <point x="90" y="896"/>
      <point x="90" y="864" type="curve" smooth="yes"/>
      <point x="90" y="-144" type="line" smooth="yes"/>
      <point x="90" y="-176"/>
      <point x="104" y="-190"/>
      <point x="136" y="-190" type="curve" smooth="yes"/>
      <point x="1144" y="-190" type="line" smooth="yes"/>
      <point x="1176" y="-190"/>
      <point x="1190" y="-176"/>
    </contour>
  </outline>
</glyph>
<glyph name="Aogonek.salt" format="1">
  <advance width="736"/>
  <unicode hex="E109"/>
  <outline>
    <contour>
      <point x="293" y="497" type="line" smooth="yes"/>
      <point x="293" y="521"/>
      <point x="310" y="534"/>
      <point x="366" y="534" type="curve" smooth="yes"/>
      <point x="421" y="534"/>
      <point x="438" y="521"/>
      <point x="438" y="497" type="curve" smooth="yes"/>
      <point x="438" y="378" type="line"/>
      <point x="293" y="378" type="line"/>
    </contour>
    <contour>
      <point x="682" y="-152" type="curve" smooth="yes"/>
      <point x="682" y="-80" type="line" smooth="yes"/>
      <point x="682" y="-47"/>
      <point x="672" y="-36"/>
      <point x="636" y="-36" type="curve" smooth="yes"/>
      <point x="607" y="-36" type="line"/>
      <point x="611" y="-10" type="line"/>
      <point x="636" y="-10" type="line" smooth="yes"/>
      <point x="668" y="-10"/>
      <point x="682" y="4"/>
      <point x="682" y="36" type="curve" smooth="yes"/>
      <point x="682" y="531" type="line" smooth="yes"/>
      <point x="682" y="656"/>
      <point x="628" y="745"/>
      <point x="367" y="745" type="curve" smooth="yes"/>
      <point x="107" y="745"/>
      <point x="54" y="656"/>
      <point x="54" y="531" type="curve" smooth="yes"/>
      <point x="54" y="36" type="line" smooth="yes"/>
      <point x="54" y="4"/>
      <point x="68" y="-10"/>
      <point x="100" y="-10" type="curve" smooth="yes"/>
      <point x="247" y="-10" type="line" smooth="yes"/>
      <point x="279" y="-10"/>
      <point x="293" y="4"/>
      <point x="293" y="36" type="curve" smooth="yes"/>
      <point x="293" y="175" type="line"/>
      <point x="438" y="175" type="line"/>
      <point x="438" y="66" type="line"/>
      <point x="417" y="-49" type="line" smooth="yes"/>
      <point x="402" y="-152"/>
      <point x="435" y="-196"/>
      <point x="528" y="-196" type="curve" smooth="yes"/>
      <point x="639" y="-196" type="line" smooth="yes"/>
      <point x="673" y="-196"/>
      <point x="682" y="-186"/>
    </contour>
  </outline>
</glyph>
<glyph name="Eogonek.salt" format="1">
  <advance width="643"/>
  <unicode hex="E112"/>
  <outline>
    <contour>
      <point x="604" y="-152" type="curve" smooth="yes"/>
      <point x="604" y="-80" type="line" smooth="yes"/>
      <point x="604" y="-47"/>
      <point x="594" y="-36"/>
      <point x="558" y="-36" type="curve" smooth="yes"/>
      <point x="529" y="-36" type="line"/>
      <point x="533" y="-10" type="line"/>
      <point x="558" y="-10" type="line" smooth="yes"/>
      <point x="590" y="-10"/>
      <point x="604" y="4"/>
      <point x="604" y="36" type="curve" smooth="yes"/>
      <point x="604" y="153" type="line" smooth="yes"/>
      <point x="604" y="185"/>
      <point x="590" y="199"/>
      <point x="558" y="199" type="curve" smooth="yes"/>
      <point x="337" y="199" type="line" smooth="yes"/>
      <point x="296" y="199"/>
      <point x="286" y="214"/>
      <point x="286" y="237" type="curve" smooth="yes"/>
      <point x="286" y="265" type="line"/>
      <point x="478" y="265" type="line" smooth="yes"/>
      <point x="510" y="265"/>
      <point x="524" y="279"/>
      <point x="524" y="311" type="curve" smooth="yes"/>
      <point x="524" y="418" type="line" smooth="yes"/>
      <point x="524" y="451"/>
      <point x="510" y="464"/>
      <point x="478" y="464" type="curve" smooth="yes"/>
      <point x="286" y="464" type="line"/>
      <point x="286" y="481" type="line" smooth="yes"/>
      <point x="286" y="503"/>
      <point x="295" y="521"/>
      <point x="337" y="521" type="curve" smooth="yes"/>
      <point x="558" y="521" type="line" smooth="yes"/>
      <point x="590" y="521"/>
      <point x="604" y="535"/>
      <point x="604" y="567" type="curve" smooth="yes"/>
      <point x="604" y="684" type="line" smooth="yes"/>
      <point x="604" y="716"/>
      <point x="590" y="730"/>
      <point x="558" y="730" type="curve" smooth="yes"/>
      <point x="304" y="730" type="line" smooth="yes"/>
      <point x="106" y="730"/>
      <point x="48" y="642"/>
      <point x="48" y="515" type="curve" smooth="yes"/>
      <point x="48" y="204" type="line" smooth="yes"/>
      <point x="48" y="78"/>
      <point x="106" y="-10"/>
      <point x="304" y="-10" type="curve" smooth="yes"/>
      <point x="346" y="-10" type="line"/>
      <point x="339" y="-49" type="line" smooth="yes"/>
      <point x="324" y="-152"/>
      <point x="357" y="-196"/>
      <point x="450" y="-196" type="curve" smooth="yes"/>
      <point x="561" y="-196" type="line" smooth="yes"/>
      <point x="595" y="-196"/>
      <point x="604" y="-186"/>
    </contour>
  </outline>
</glyph>
<glyph name="Igrave.salt" format="1">
  <advance width="371.0"/>
  <unicode hex="E115"/>
  <outline>
    <contour>
      <point x="389" y="788" type="curve" smooth="yes"/>
      <point x="389" y="884" type="line" smooth="yes"/>
      <point x="389" y="915"/>
      <point x="376" y="926"/>
      <point x="344" y="930" type="curve" smooth="yes"/>
      <point x="25" y="969" type="line" smooth="yes"/>
      <point x="-5" y="973"/>
      <point x="-20" y="957"/>
      <point x="-20" y="926" type="curve" smooth="yes"/>
      <point x="-20" y="830" type="line"/>
      <point x="-20" y="799"/>
      <point x="-7" y="788"/>
      <point x="25" y="784" type="curve" smooth="yes"/>
      <point x="344" y="745" type="line"/>
      <point x="374" y="741"/>
      <point x="389" y="757"/>
    </contour>
    <contour>
      <point x="311" y="36" type="curve" smooth="yes"/>
      <point x="311" y="684" type="line" smooth="yes"/>
      <point x="311" y="716"/>
      <point x="297" y="730"/>
      <point x="265" y="730" type="curve" smooth="yes"/>
      <point x="106" y="730" type="line" smooth="yes"/>
      <point x="74" y="730"/>
      <point x="60" y="716"/>
      <point x="60" y="684" type="curve" smooth="yes"/>
      <point x="60" y="36" type="line" smooth="yes"/>
      <point x="60" y="4"/>
      <point x="74" y="-10"/>
      <point x="106" y="-10" type="curve" smooth="yes"/>
      <point x="265" y="-10" type="line" smooth="yes"/>
      <point x="297" y="-10"/>
      <point x="311" y="4"/>
    </contour>
  </outline>
</glyph>
<glyph name="Iacute.salt" format="1">
  <advance width="371.0"/>
  <unicode hex="E116"/>
  <outline>
    <contour>
      <point x="27" y="743" type="curve" smooth="yes"/>
      <point x="346" y="786" type="line"/>
      <point x="378" y="790"/>
      <point x="391" y="801"/>
      <point x="391" y="832" type="curve" smooth="yes"/>
      <point x="391" y="928" type="line" smooth="yes"/>
      <point x="391" y="959"/>
      <point x="376" y="975"/>
      <point x="346" y="971" type="curve" smooth="yes"/>
      <point x="27" y="928" type="line" smooth="yes"/>
      <point x="-5" y="924"/>
      <point x="-18" y="913"/>
      <point x="-18" y="882" type="curve" smooth="yes"/>
      <point x="-18" y="786" type="line"/>
      <point x="-18" y="755"/>
      <point x="-3" y="739"/>
    </contour>
    <contour>
      <point x="311" y="36" type="curve" smooth="yes"/>
      <point x="311" y="684" type="line" smooth="yes"/>
      <point x="311" y="716"/>
      <point x="297" y="730"/>
      <point x="265" y="730" type="curve" smooth="yes"/>
      <point x="106" y="730" type="line" smooth="yes"/>
      <point x="74" y="730"/>
      <point x="60" y="716"/>
      <point x="60" y="684" type="curve" smooth="yes"/>
      <point x="60" y="36" type="line" smooth="yes"/>
      <point x="60" y="4"/>
      <point x="74" y="-10"/>
      <point x="106" y="-10" type="curve" smooth="yes"/>
      <point x="265" y="-10" type="line" smooth="yes"/>
      <point x="297" y="-10"/>
      <point x="311" y="4"/>
    </contour>
  </outline>
</glyph>
<glyph name="Iogonek.salt" format="1">
  <advance width="371.0"/>
  <unicode hex="E11C"/>
  <outline>
    <contour>
      <point x="307" y="-152" type="curve" smooth="yes"/>
      <point x="307" y="-80" type="line" smooth="yes"/>
      <point x="307" y="-47"/>
      <point x="297" y="-36"/>
      <point x="261" y="-36" type="curve" smooth="yes"/>
      <point x="232" y="-36" type="line"/>
      <point x="236" y="-10" type="line"/>
      <point x="265" y="-10" type="line" smooth="yes"/>
      <point x="297" y="-10"/>
      <point x="311" y="4"/>
      <point x="311" y="36" type="curve" smooth="yes"/>
      <point x="311" y="684" type="line" smooth="yes"/>
      <point x="311" y="716"/>
      <point x="297" y="730"/>
      <point x="265" y="730" type="curve" smooth="yes"/>
      <point x="106" y="730" type="line" smooth="yes"/>
      <point x="74" y="730"/>
      <point x="60" y="716"/>
      <point x="60" y="684" type="curve" smooth="yes"/>
      <point x="60" y="50" type="line"/>
      <point x="42" y="-49" type="line" smooth="yes"/>
      <point x="27" y="-152"/>
      <point x="60" y="-196"/>
      <point x="153" y="-196" type="curve" smooth="yes"/>
      <point x="264" y="-196" type="line" smooth="yes"/>
      <point x="298" y="-196"/>
      <point x="307" y="-186"/>
    </contour>
  </outline>
</glyph>
<glyph name="Lslash.salt" format="1">
  <advance width="625"/>
  <unicode hex="E123"/>
  <outline>
    <contour>
      <point x="115" y="-10" type="curve" smooth="yes"/>
      <point x="561" y="-10" type="line" smooth="yes"/>
      <point x="593" y="-10"/>
      <point x="607" y="4"/>
      <point x="607" y="36" type="curve" smooth="yes"/>
      <point x="607" y="157" type="line" smooth="yes"/>
      <point x="607" y="189"/>
      <point x="593" y="203"/>
      <point x="561" y="203" type="curve" smooth="yes"/>
      <point x="316" y="203" type="line"/>
      <point x="316" y="317" type="line"/>
      <point x="366" y="325" type="line" smooth="yes"/>
      <point x="397" y="330"/>
      <point x="410" y="339"/>
      <point x="410" y="371" type="curve" smooth="yes"/>
      <point x="410" y="478" type="line" smooth="yes"/>
      <point x="410" y="513"/>
      <point x="394" y="529"/>
      <point x="362" y="524" type="curve" smooth="yes"/>
      <point x="316" y="517" type="line"/>
      <point x="316" y="684" type="line" smooth="yes"/>
      <point x="316" y="716"/>
      <point x="302" y="730"/>
      <point x="270" y="730" type="curve" smooth="yes"/>
      <point x="115" y="730" type="line" smooth="yes"/>
      <point x="83" y="730"/>
      <point x="69" y="716"/>
      <point x="69" y="684" type="curve" smooth="yes"/>
      <point x="69" y="476" type="line"/>
      <point x="54" y="474" type="line" smooth="yes"/>
      <point x="23" y="469"/>
      <point x="10" y="459"/>
      <point x="10" y="428" type="curve" smooth="yes"/>
      <point x="10" y="321" type="line"/>
      <point x="10" y="286"/>
      <point x="26" y="270"/>
      <point x="58" y="275" type="curve" smooth="yes"/>
      <point x="69" y="277" type="line"/>
      <point x="69" y="36" type="line" smooth="yes"/>
      <point x="69" y="4"/>
      <point x="83" y="-10"/>
    </contour>
  </outline>
</glyph>
<glyph name="quoteleft.salt" format="1">
  <advance width="307.119931271"/>
  <unicode hex="E138"/>
  <outline>
    <contour>
      <point x="80.0" y="440" type="curve" smooth="yes"/>
      <point x="226.0" y="440" type="line" smooth="yes"/>
      <point x="251.0" y="440"/>
      <point x="262.0" y="451"/>
      <point x="262.0" y="476" type="curve" smooth="yes"/>
      <point x="262.0" y="582" type="line" smooth="yes"/>
      <point x="262.0" y="607"/>
      <point x="251.0" y="618"/>
      <point x="226.0" y="618" type="curve" smooth="yes"/>
      <point x="157.0" y="618" type="line"/>
      <point x="157.0" y="619" type="line" smooth="yes"/>
      <point x="157.0" y="626"/>
      <point x="161.0" y="629"/>
      <point x="167.0" y="629" type="curve" smooth="yes"/>
      <point x="216.0" y="629" type="line" smooth="yes"/>
      <point x="241.0" y="629"/>
      <point x="252.0" y="640"/>
      <point x="252.0" y="665" type="curve" smooth="yes"/>
      <point x="252.0" y="694" type="line" smooth="yes"/>
      <point x="252.0" y="720"/>
      <point x="241.0" y="730"/>
      <point x="216.0" y="730" type="curve" smooth="yes"/>
      <point x="161.0" y="730" type="line" smooth="yes"/>
      <point x="90.0" y="730"/>
      <point x="44.0" y="692"/>
      <point x="44.0" y="611" type="curve" smooth="yes"/>
      <point x="44.0" y="476" type="line" smooth="yes"/>
      <point x="44.0" y="451"/>
      <point x="55.0" y="440"/>
    </contour>
  </outline>
</glyph>
<glyph name="ampersand.salt" format="1">
  <advance width="632"/>
  <unicode hex="E13A"/>
  <outline>
    <contour>
      <point x="288.0" y="-100" type="curve" smooth="yes"/>
      <point x="433.0" y="-100" type="line" smooth="yes"/>
      <point x="465.0" y="-100"/>
      <point x="479.0" y="-86"/>
      <point x="479.0" y="-54" type="curve" smooth="yes"/>
      <point x="479.0" y="-10" type="line"/>
      <point x="547.0" y="-10" type="line" smooth="yes"/>
      <point x="579.0" y="-10"/>
      <point x="593.0" y="4"/>
      <point x="593.0" y="36" type="curve" smooth="yes"/>
      <point x="593.0" y="153" type="line" smooth="yes"/>
      <point x="593.0" y="185"/>
      <point x="579.0" y="199"/>
      <point x="547.0" y="199" type="curve" smooth="yes"/>
      <point x="296.0" y="199" type="line" smooth="yes"/>
      <point x="275.0" y="199"/>
      <point x="268.0" y="207"/>
      <point x="268.0" y="219" type="curve" smooth="yes"/>
      <point x="268.0" y="246" type="line" smooth="yes"/>
      <point x="268.0" y="258"/>
      <point x="275.0" y="265"/>
      <point x="296.0" y="265" type="curve" smooth="yes"/>
      <point x="466.0" y="265" type="line" smooth="yes"/>
      <point x="498.0" y="265"/>
      <point x="512.0" y="279"/>
      <point x="512.0" y="311" type="curve" smooth="yes"/>
      <point x="512.0" y="418" type="line" smooth="yes"/>
      <point x="512.0" y="450"/>
      <point x="498.0" y="464"/>
      <point x="466.0" y="464" type="curve" smooth="yes"/>
      <point x="361.0" y="464" type="line" smooth="yes"/>
      <point x="340.0" y="464"/>
      <point x="333.0" y="472"/>
      <point x="333.0" y="484" type="curve" smooth="yes"/>
      <point x="333.0" y="501" type="line" smooth="yes"/>
      <point x="333.0" y="513"/>
      <point x="340.0" y="521"/>
      <point x="361.0" y="521" type="curve" smooth="yes"/>
      <point x="547.0" y="521" type="line" smooth="yes"/>
      <point x="579.0" y="521"/>
      <point x="593.0" y="535"/>
      <point x="593.0" y="567" type="curve" smooth="yes"/>
      <point x="593.0" y="684" type="line" smooth="yes"/>
      <point x="593.0" y="716"/>
      <point x="579.0" y="730"/>
      <point x="547.0" y="730" type="curve" smooth="yes"/>
      <point x="479.0" y="730" type="line"/>
      <point x="479.0" y="774" type="line" smooth="yes"/>
      <point x="479.0" y="806"/>
      <point x="465.0" y="820"/>
      <point x="433.0" y="820" type="curve" smooth="yes"/>
      <point x="288.0" y="820" type="line" smooth="yes"/>
      <point x="256.0" y="820"/>
      <point x="242.0" y="806"/>
      <point x="242.0" y="774" type="curve" smooth="yes"/>
      <point x="242.0" y="726" type="line"/>
      <point x="137.0" y="711"/>
      <point x="94.0" y="647"/>
      <point x="94.0" y="567" type="curve" smooth="yes"/>
      <point x="94.0" y="519" type="line" smooth="yes"/>
      <point x="94.0" y="474"/>
      <point x="105.0" y="439"/>
      <point x="134.0" y="416" type="curve"/>
      <point x="72.0" y="399"/>
      <point x="27.0" y="344"/>
      <point x="27.0" y="256" type="curve" smooth="yes"/>
      <point x="27.0" y="148" type="line"/>
      <point x="27.0" y="59"/>
      <point x="94.0" y="-10"/>
      <point x="231.0" y="-10" type="curve" smooth="yes"/>
      <point x="242.0" y="-10" type="line"/>
      <point x="242.0" y="-54" type="line" smooth="yes"/>
      <point x="242.0" y="-86"/>
      <point x="256.0" y="-100"/>
    </contour>
  </outline>
</glyph>
<glyph name="indexdown.salt" format="1">
  <advance width="1000"/>
  <unicode hex="E148"/>
  <outline>
    <contour>
      <point x="629.0" y="-8" type="curve" smooth="yes"/>
      <point x="683.0" y="-8" type="line" smooth="yes"/>
      <point x="699.0" y="-8"/>
      <point x="709.0" y="1"/>
      <point x="711.0" y="15" type="curve" smooth="yes"/>
      <point x="757.0" y="353" type="line" smooth="yes"/>
      <point x="760.0" y="378"/>
      <point x="760.0" y="401"/>
      <point x="748.0" y="427" type="curve" smooth="yes"/>
      <point x="680.0" y="578" type="line"/>
      <point x="735.0" y="578" type="line" smooth="yes"/>
      <point x="754.0" y="578"/>
      <point x="763.0" y="587"/>
      <point x="763.0" y="606" type="curve" smooth="yes"/>
      <point x="763.0" y="701" type="line" smooth="yes"/>
      <point x="763.0" y="718"/>
      <point x="754.0" y="729"/>
      <point x="735.0" y="729" type="curve" smooth="yes"/>
      <point x="348.0" y="729" type="line" smooth="yes"/>
      <point x="328.0" y="729"/>
      <point x="318.0" y="717"/>
      <point x="318.0" y="701" type="curve" smooth="yes"/>
      <point x="318.0" y="605" type="line" smooth="yes"/>
      <point x="318.0" y="588"/>
      <point x="328.0" y="578"/>
      <point x="347.0" y="578" type="curve" smooth="yes"/>
      <point x="436.0" y="578" type="line"/>
      <point x="387.0" y="519" type="line" smooth="yes"/>
      <point x="369.0" y="497"/>
      <point x="352.0" y="487"/>
      <point x="319.0" y="464" type="curve" smooth="yes"/>
      <point x="248.0" y="413" type="line" smooth="yes"/>
      <point x="235.0" y="404"/>
      <point x="233.0" y="387"/>
      <point x="241.0" y="375" type="curve"/>
      <point x="240.0" y="375" type="line"/>
      <point x="265.0" y="334" type="line"/>
      <point x="273.0" y="323"/>
      <point x="286.0" y="318"/>
      <point x="306.0" y="326" type="curve" smooth="yes"/>
      <point x="385.0" y="356" type="line"/>
      <point x="417.0" y="292" type="line"/>
      <point x="427.0" y="267"/>
      <point x="450.0" y="246"/>
      <point x="487.0" y="246" type="curve" smooth="yes"/>
      <point x="591.0" y="247" type="line"/>
      <point x="593.0" y="247" type="line"/>
      <point x="601.0" y="21" type="line" smooth="yes"/>
      <point x="601.0" y="2"/>
      <point x="614.0" y="-8"/>
    </contour>
    <contour>
      <point x="503.0" y="378" type="curve"/>
      <point x="503.0" y="379"/>
      <point x="502.0" y="380"/>
      <point x="502.0" y="380" type="curve"/>
      <point x="506.0" y="379"/>
      <point x="504.0" y="379"/>
    </contour>
  </outline>
</glyph>
<glyph name="indexdownright.salt" format="1">
  <advance width="1000"/>
  <unicode hex="E14A"/>
  <outline>
    <contour>
      <point x="479.0" y="249" type="curve"/>
      <point x="476.0" y="249" type="line"/>
      <point x="481.0" y="251"/>
      <point x="480.0" y="251"/>
      <point x="478.0" y="250" type="curve"/>
      <point x="479.0" y="250"/>
      <point x="479.0" y="249"/>
    </contour>
    <contour>
      <point x="377.0" y="73" type="curve" smooth="yes"/>
      <point x="412.0" y="151" type="line"/>
      <point x="478.0" y="127" type="line" smooth="yes"/>
      <point x="505.0" y="117"/>
      <point x="536.0" y="119"/>
      <point x="562.0" y="145" type="curve" smooth="yes"/>
      <point x="634.0" y="220" type="line"/>
      <point x="635.0" y="221" type="line"/>
      <point x="802.0" y="66" type="line"/>
      <point x="801.0" y="66" type="line"/>
      <point x="813.0" y="54"/>
      <point x="830.0" y="54"/>
      <point x="841.0" y="65" type="curve" smooth="yes"/>
      <point x="880.0" y="103" type="line" smooth="yes"/>
      <point x="891.0" y="114"/>
      <point x="891.0" y="128"/>
      <point x="883.0" y="139" type="curve" smooth="yes"/>
      <point x="677.0" y="410" type="line" smooth="yes"/>
      <point x="661.0" y="431"/>
      <point x="644.0" y="448"/>
      <point x="617.0" y="457" type="curve" smooth="yes"/>
      <point x="463.0" y="516" type="line"/>
      <point x="502.0" y="555" type="line" smooth="yes"/>
      <point x="515.0" y="567"/>
      <point x="515.0" y="582"/>
      <point x="502.0" y="594" type="curve" smooth="yes"/>
      <point x="435.0" y="662" type="line"/>
      <point x="423.0" y="673"/>
      <point x="409.0" y="673"/>
      <point x="396.0" y="663" type="curve" smooth="yes"/>
      <point x="395.0" y="663" type="line"/>
      <point x="121.0" y="388" type="line"/>
      <point x="108.0" y="374"/>
      <point x="110.0" y="357"/>
      <point x="120.0" y="347" type="curve" smooth="yes"/>
      <point x="189.0" y="278" type="line" smooth="yes"/>
      <point x="199.0" y="267"/>
      <point x="213.0" y="266"/>
      <point x="228.0" y="281" type="curve" smooth="yes"/>
      <point x="290.0" y="343" type="line"/>
      <point x="297.0" y="268" type="line" smooth="yes"/>
      <point x="300.0" y="239"/>
      <point x="296.0" y="220"/>
      <point x="288.0" y="180" type="curve" smooth="yes"/>
      <point x="274.0" y="94" type="line" smooth="yes"/>
      <point x="271.0" y="78"/>
      <point x="282.0" y="64"/>
      <point x="296.0" y="61" type="curve"/>
      <point x="343.0" y="50" type="line" smooth="yes"/>
      <point x="354.0" y="48"/>
      <point x="368.0" y="53"/>
    </contour>
  </outline>
</glyph>
<glyph name="uni27A1.n" format="1">
  <advance width="1000"/>
  <unicode hex="E15B"/>
  <outline>
    <contour>
      <point x="500" y="9" type="curve" smooth="yes"/>
      <point x="540" y="9"/>
      <point x="580" y="23"/>
      <point x="616" y="50" type="curve" smooth="yes"/>
      <point x="1196" y="486" type="line" smooth="yes"/>
      <point x="1236" y="515"/>
      <point x="1253" y="553"/>
      <point x="1253" y="587" type="curve" smooth="yes"/>
      <point x="1253" y="630"/>
      <point x="1225" y="664"/>
      <point x="1180" y="664" type="curve" smooth="yes"/>
      <point x="1049" y="664" type="line"/>
      <point x="1049" y="701" type="line"/>
      <point x="-51" y="701" type="line"/>
      <point x="-51" y="664" type="line"/>
      <point x="-180" y="664" type="line" smooth="yes"/>
      <point x="-225" y="664"/>
      <point x="-253" y="630"/>
      <point x="-253" y="587" type="curve" smooth="yes"/>
      <point x="-253" y="553"/>
      <point x="-236" y="515"/>
      <point x="-196" y="486" type="curve" smooth="yes"/>
      <point x="384" y="50" type="line" smooth="yes"/>
      <point x="420" y="23"/>
      <point x="460" y="9"/>
    </contour>
  </outline>
</glyph>
<glyph name="arrowright.chevron" format="1">
  <advance width="1330"/>
  <unicode hex="E163"/>
  <outline>
    <contour>
      <point x="737" y="-360" type="curve" smooth="yes"/>
      <point x="754" y="-360"/>
      <point x="773" y="-353"/>
      <point x="787" y="-335" type="curve" smooth="yes"/>
      <point x="1303" y="295" type="line" smooth="yes"/>
      <point x="1324" y="320"/>
      <point x="1333" y="341"/>
      <point x="1333" y="361" type="curve" smooth="yes"/>
      <point x="1333" y="382"/>
      <point x="1324" y="402"/>
      <point x="1303" y="427" type="curve" smooth="yes"/>
      <point x="787" y="1057" type="line" smooth="yes"/>
      <point x="769" y="1079"/>
      <point x="749" y="1088"/>
      <point x="732" y="1088" type="curve" smooth="yes"/>
      <point x="708" y="1088"/>
      <point x="689" y="1071"/>
      <point x="689" y="1041" type="curve" smooth="yes"/>
      <point x="689" y="910" type="line"/>
      <point x="38" y="910" type="line" smooth="yes"/>
      <point x="11" y="910"/>
      <point x="-9" y="893"/>
      <point x="-9" y="873" type="curve"/>
      <point x="-9" y="868"/>
      <point x="-8" y="861"/>
      <point x="-5" y="856" type="curve"/>
      <point x="191" y="360" type="line"/>
      <point x="-5" y="-136" type="line"/>
      <point x="-8" y="-141"/>
      <point x="-9" y="-148"/>
      <point x="-9" y="-153" type="curve"/>
      <point x="-9" y="-173"/>
      <point x="11" y="-190"/>
      <point x="38" y="-190" type="curve" smooth="yes"/>
      <point x="689" y="-190" type="line"/>
      <point x="689" y="-319" type="line" smooth="yes"/>
      <point x="689" y="-342"/>
      <point x="709" y="-360"/>
    </contour>
  </outline>
</glyph>
<glyph name="uni25D7.bevel" format="1">
  <advance width="350"/>
  <unicode hex="E16A"/>
  <outline>
    <contour>
      <point x="-40" y="-190" type="line"/>
      <point x="44" y="-190" type="line" smooth="yes"/>
      <point x="76" y="-190"/>
      <point x="90" y="-176"/>
      <point x="90" y="-144" type="curve" smooth="yes"/>
      <point x="90" y="-130" type="line"/>
      <point x="165" y="-125"/>
      <point x="225" y="-65"/>
      <point x="230" y="10" type="curve"/>
      <point x="244" y="10" type="line" smooth="yes"/>
      <point x="276" y="10"/>
      <point x="290" y="24"/>
      <point x="290" y="56" type="curve" smooth="yes"/>
      <point x="290" y="664" type="line" smooth="yes"/>
      <point x="290" y="696"/>
      <point x="276" y="710"/>
      <point x="244" y="710" type="curve" smooth="yes"/>
      <point x="230" y="710" type="line"/>
      <point x="225" y="785"/>
      <point x="165" y="845"/>
      <point x="90" y="850" type="curve"/>
      <point x="90" y="864" type="line" smooth="yes"/>
      <point x="90" y="896"/>
      <point x="76" y="910"/>
      <point x="44" y="910" type="curve" smooth="yes"/>
      <point x="-40" y="910" type="line"/>
    </contour>
  </outline>
</glyph>
<glyph name="Aogonek.v" format="1">
  <advance width="1000"/>
  <unicode hex="E192"/>
  <outline>
    <contour>
      <point x="486" y="507" type="line"/>
      <point x="486" y="506" type="line"/>
      <point x="489" y="513"/>
      <point x="489" y="517"/>
      <point x="496" y="517" type="curve" smooth="yes"/>
      <point x="501" y="517" type="line" smooth="yes"/>
      <point x="508" y="517"/>
      <point x="508" y="513"/>
      <point x="511" y="506" type="curve"/>
      <point x="511" y="507" type="line"/>
      <point x="554" y="388" type="line"/>
      <point x="444" y="388" type="line"/>
    </contour>
    <contour>
      <point x="811" y="-112" type="curve" smooth="yes"/>
      <point x="811" y="-40" type="line" smooth="yes"/>
      <point x="811" y="-7"/>
      <point x="801" y="4"/>
      <point x="765" y="4" type="curve" smooth="yes"/>
      <point x="736" y="4" type="line"/>
      <point x="740" y="30" type="line"/>
      <point x="767" y="30" type="line" smooth="yes"/>
      <point x="799" y="30"/>
      <point x="813" y="44"/>
      <point x="813" y="76" type="curve" smooth="yes"/>
      <point x="813" y="320" type="line" smooth="yes"/>
      <point x="813" y="391"/>
      <point x="803" y="406"/>
      <point x="773" y="484" type="curve" smooth="yes"/>
      <point x="686" y="691" type="line"/>
      <point x="676" y="720"/>
      <point x="658" y="730"/>
      <point x="627" y="730" type="curve" smooth="yes"/>
      <point x="368" y="730" type="line" smooth="yes"/>
      <point x="337" y="730"/>
      <point x="318" y="720"/>
      <point x="308" y="690" type="curve" smooth="yes"/>
      <point x="231" y="483" type="line" smooth="yes"/>
      <point x="201" y="406"/>
      <point x="191" y="391"/>
      <point x="191" y="320" type="curve" smooth="yes"/>
      <point x="191" y="76" type="line" smooth="yes"/>
      <point x="191" y="44"/>
      <point x="204" y="30"/>
      <point x="237" y="30" type="curve" smooth="yes"/>
      <point x="384" y="30" type="line" smooth="yes"/>
      <point x="416" y="30"/>
      <point x="430" y="44"/>
      <point x="430" y="76" type="curve" smooth="yes"/>
      <point x="430" y="186" type="line"/>
      <point x="567" y="186" type="line"/>
      <point x="567" y="106" type="line"/>
      <point x="546" y="-9" type="line" smooth="yes"/>
      <point x="531" y="-112"/>
      <point x="564" y="-156"/>
      <point x="657" y="-156" type="curve" smooth="yes"/>
      <point x="768" y="-156" type="line" smooth="yes"/>
      <point x="802" y="-156"/>
      <point x="811" y="-146"/>
    </contour>
  </outline>
</glyph>
<glyph name="Ccedilla.v" format="1">
  <advance width="1000"/>
  <unicode hex="E193"/>
  <outline>
    <contour>
      <point x="589" y="-59" type="curve" smooth="yes"/>
      <point x="621" y="30" type="line"/>
      <point x="755" y="30" type="line" smooth="yes"/>
      <point x="787" y="30"/>
      <point x="801" y="44"/>
      <point x="801" y="76" type="curve" smooth="yes"/>
      <point x="801" y="195" type="line" smooth="yes"/>
      <point x="801" y="227"/>
      <point x="787" y="241"/>
      <point x="755" y="241" type="curve" smooth="yes"/>
      <point x="485" y="241" type="line" smooth="yes"/>
      <point x="444" y="241"/>
      <point x="434" y="256"/>
      <point x="434" y="279" type="curve" smooth="yes"/>
      <point x="434" y="477" type="line" smooth="yes"/>
      <point x="434" y="499"/>
      <point x="443" y="517"/>
      <point x="485" y="517" type="curve" smooth="yes"/>
      <point x="755" y="517" type="line" smooth="yes"/>
      <point x="787" y="517"/>
      <point x="801" y="531"/>
      <point x="801" y="563" type="curve" smooth="yes"/>
      <point x="801" y="684" type="line" smooth="yes"/>
      <point x="801" y="716"/>
      <point x="787" y="730"/>
      <point x="755" y="730" type="curve" smooth="yes"/>
      <point x="442" y="730" type="line" smooth="yes"/>
      <point x="244" y="730"/>
      <point x="186" y="642"/>
      <point x="186" y="515" type="curve" smooth="yes"/>
      <point x="186" y="244" type="line" smooth="yes"/>
      <point x="186" y="128"/>
      <point x="235" y="45"/>
      <point x="397" y="32" type="curve"/>
      <point x="369" y="-43" type="line" smooth="yes"/>
      <point x="357" y="-74"/>
      <point x="362" y="-96"/>
      <point x="408" y="-96" type="curve" smooth="yes"/>
      <point x="534" y="-96" type="line" smooth="yes"/>
      <point x="566" y="-96"/>
      <point x="581" y="-84"/>
    </contour>
  </outline>
</glyph>
<glyph name="Eogonek.v" format="1">
  <advance width="1000"/>
  <unicode hex="E1A0"/>
  <outline>
    <contour>
      <point x="800" y="-112" type="curve" smooth="yes"/>
      <point x="800" y="-40" type="line" smooth="yes"/>
      <point x="800" y="-7"/>
      <point x="790" y="4"/>
      <point x="754" y="4" type="curve" smooth="yes"/>
      <point x="725" y="4" type="line"/>
      <point x="729" y="30" type="line"/>
      <point x="754" y="30" type="line" smooth="yes"/>
      <point x="786" y="30"/>
      <point x="800" y="44"/>
      <point x="800" y="76" type="curve" smooth="yes"/>
      <point x="800" y="189" type="line" smooth="yes"/>
      <point x="800" y="221"/>
      <point x="786" y="235"/>
      <point x="754" y="235" type="curve" smooth="yes"/>
      <point x="434" y="235" type="line"/>
      <point x="434" y="291" type="line"/>
      <point x="673" y="291" type="line" smooth="yes"/>
      <point x="705" y="291"/>
      <point x="719" y="305"/>
      <point x="719" y="337" type="curve" smooth="yes"/>
      <point x="719" y="432" type="line" smooth="yes"/>
      <point x="719" y="465"/>
      <point x="705" y="478"/>
      <point x="673" y="478" type="curve" smooth="yes"/>
      <point x="434" y="478" type="line"/>
      <point x="434" y="525" type="line"/>
      <point x="754" y="525" type="line" smooth="yes"/>
      <point x="786" y="525"/>
      <point x="800" y="539"/>
      <point x="800" y="571" type="curve" smooth="yes"/>
      <point x="800" y="684" type="line" smooth="yes"/>
      <point x="800" y="716"/>
      <point x="786" y="730"/>
      <point x="754" y="730" type="curve" smooth="yes"/>
      <point x="236" y="730" type="line" smooth="yes"/>
      <point x="204" y="730"/>
      <point x="190" y="716"/>
      <point x="190" y="684" type="curve" smooth="yes"/>
      <point x="190" y="76" type="line" smooth="yes"/>
      <point x="190" y="44"/>
      <point x="204" y="30"/>
      <point x="236" y="30" type="curve" smooth="yes"/>
      <point x="542" y="30" type="line"/>
      <point x="535" y="-9" type="line" smooth="yes"/>
      <point x="520" y="-112"/>
      <point x="553" y="-156"/>
      <point x="646" y="-156" type="curve" smooth="yes"/>
      <point x="757" y="-156" type="line" smooth="yes"/>
      <point x="791" y="-156"/>
      <point x="800" y="-146"/>
    </contour>
  </outline>
</glyph>
<glyph name="Iogonek.v" format="1">
  <advance width="1000"/>
  <unicode hex="E1AE"/>
  <outline>
    <contour>
      <point x="801" y="-112" type="curve" smooth="yes"/>
      <point x="801" y="-40" type="line" smooth="yes"/>
      <point x="801" y="-7"/>
      <point x="791" y="4"/>
      <point x="755" y="4" type="curve" smooth="yes"/>
      <point x="726" y="4" type="line"/>
      <point x="730" y="30" type="line"/>
      <point x="755" y="30" type="line" smooth="yes"/>
      <point x="787" y="30"/>
      <point x="801" y="44"/>
      <point x="801" y="76" type="curve" smooth="yes"/>
      <point x="801" y="195" type="line" smooth="yes"/>
      <point x="801" y="227"/>
      <point x="787" y="241"/>
      <point x="755" y="241" type="curve" smooth="yes"/>
      <point x="631" y="241" type="line"/>
      <point x="631" y="517" type="line"/>
      <point x="755" y="517" type="line" smooth="yes"/>
      <point x="787" y="517"/>
      <point x="801" y="531"/>
      <point x="801" y="563" type="curve" smooth="yes"/>
      <point x="801" y="684" type="line" smooth="yes"/>
      <point x="801" y="716"/>
      <point x="787" y="730"/>
      <point x="755" y="730" type="curve" smooth="yes"/>
      <point x="245" y="730" type="line" smooth="yes"/>
      <point x="213" y="730"/>
      <point x="199" y="716"/>
      <point x="199" y="684" type="curve" smooth="yes"/>
      <point x="199" y="563" type="line" smooth="yes"/>
      <point x="199" y="531"/>
      <point x="213" y="517"/>
      <point x="245" y="517" type="curve" smooth="yes"/>
      <point x="369" y="517" type="line"/>
      <point x="369" y="241" type="line"/>
      <point x="245" y="241" type="line" smooth="yes"/>
      <point x="213" y="241"/>
      <point x="199" y="227"/>
      <point x="199" y="195" type="curve" smooth="yes"/>
      <point x="199" y="76" type="line" smooth="yes"/>
      <point x="199" y="44"/>
      <point x="213" y="30"/>
      <point x="245" y="30" type="curve" smooth="yes"/>
      <point x="543" y="30" type="line"/>
      <point x="536" y="-9" type="line" smooth="yes"/>
      <point x="521" y="-112"/>
      <point x="554" y="-156"/>
      <point x="647" y="-156" type="curve" smooth="yes"/>
      <point x="758" y="-156" type="line" smooth="yes"/>
      <point x="792" y="-156"/>
      <point x="801" y="-146"/>
    </contour>
  </outline>
</glyph>
<glyph name="Scedilla.v" format="1">
  <advance width="1000"/>
  <unicode hex="E1C6"/>
  <outline>
    <contour>
      <point x="553" y="-59" type="curve" smooth="yes"/>
      <point x="585" y="30" type="line"/>
      <point x="594" y="30" type="line" smooth="yes"/>
      <point x="730" y="30"/>
      <point x="811" y="96"/>
      <point x="811" y="216" type="curve" smooth="yes"/>
      <point x="811" y="311" type="line" smooth="yes"/>
      <point x="811" y="429"/>
      <point x="746" y="467"/>
      <point x="646" y="482" type="curve" smooth="yes"/>
      <point x="455" y="492" type="line"/>
      <point x="444" y="493"/>
      <point x="437" y="497"/>
      <point x="437" y="509" type="curve" smooth="yes"/>
      <point x="437" y="520"/>
      <point x="443" y="529"/>
      <point x="454" y="529" type="curve" smooth="yes"/>
      <point x="739" y="529" type="line" smooth="yes"/>
      <point x="771" y="529"/>
      <point x="785" y="543"/>
      <point x="785" y="575" type="curve" smooth="yes"/>
      <point x="785" y="684" type="line" smooth="yes"/>
      <point x="785" y="716"/>
      <point x="771" y="730"/>
      <point x="739" y="730" type="curve" smooth="yes"/>
      <point x="407" y="730" type="line" smooth="yes"/>
      <point x="270" y="730"/>
      <point x="190" y="664"/>
      <point x="190" y="544" type="curve" smooth="yes"/>
      <point x="190" y="449" type="line" smooth="yes"/>
      <point x="190" y="331"/>
      <point x="254" y="293"/>
      <point x="354" y="278" type="curve" smooth="yes"/>
      <point x="546" y="267" type="line"/>
      <point x="557" y="266"/>
      <point x="563" y="263"/>
      <point x="563" y="248" type="curve" smooth="yes"/>
      <point x="563" y="238"/>
      <point x="558" y="229"/>
      <point x="547" y="229" type="curve" smooth="yes"/>
      <point x="236" y="229" type="line" smooth="yes"/>
      <point x="204" y="229"/>
      <point x="190" y="215"/>
      <point x="190" y="183" type="curve" smooth="yes"/>
      <point x="190" y="76" type="line" smooth="yes"/>
      <point x="190" y="44"/>
      <point x="204" y="30"/>
      <point x="236" y="30" type="curve" smooth="yes"/>
      <point x="360" y="30" type="line"/>
      <point x="333" y="-43" type="line" smooth="yes"/>
      <point x="321" y="-74"/>
      <point x="326" y="-96"/>
      <point x="372" y="-96" type="curve" smooth="yes"/>
      <point x="498" y="-96" type="line" smooth="yes"/>
      <point x="530" y="-96"/>
      <point x="545" y="-84"/>
    </contour>
  </outline>
</glyph>
<glyph name="Tcommaaccent.v" format="1">
  <advance width="1000"/>
  <unicode hex="E1C9"/>
  <outline>
    <contour>
      <point x="416" y="110" type="curve" smooth="yes"/>
      <point x="584" y="110" type="line" smooth="yes"/>
      <point x="616" y="110"/>
      <point x="630" y="124"/>
      <point x="630" y="156" type="curve" smooth="yes"/>
      <point x="630" y="517" type="line"/>
      <point x="764" y="517" type="line" smooth="yes"/>
      <point x="796" y="517"/>
      <point x="810" y="531"/>
      <point x="810" y="563" type="curve" smooth="yes"/>
      <point x="810" y="684" type="line" smooth="yes"/>
      <point x="810" y="716"/>
      <point x="796" y="730"/>
      <point x="764" y="730" type="curve" smooth="yes"/>
      <point x="236" y="730" type="line" smooth="yes"/>
      <point x="204" y="730"/>
      <point x="190" y="716"/>
      <point x="190" y="684" type="curve" smooth="yes"/>
      <point x="190" y="563" type="line" smooth="yes"/>
      <point x="190" y="531"/>
      <point x="204" y="517"/>
      <point x="236" y="517" type="curve" smooth="yes"/>
      <point x="370" y="517" type="line"/>
      <point x="370" y="156" type="line" smooth="yes"/>
      <point x="370" y="124"/>
      <point x="384" y="110"/>
    </contour>
    <contour>
      <point x="425" y="-200" type="curve" smooth="yes"/>
      <point x="491" y="-200" type="line" smooth="yes"/>
      <point x="573" y="-200"/>
      <point x="626" y="-155"/>
      <point x="626" y="-62" type="curve" smooth="yes"/>
      <point x="626" y="50" type="line" smooth="yes"/>
      <point x="626" y="89"/>
      <point x="614" y="100"/>
      <point x="579" y="100" type="curve" smooth="yes"/>
      <point x="421" y="100" type="line" smooth="yes"/>
      <point x="386" y="100"/>
      <point x="374" y="89"/>
      <point x="374" y="50" type="curve" smooth="yes"/>
      <point x="374" y="-29" type="line" smooth="yes"/>
      <point x="374" y="-67"/>
      <point x="386" y="-78"/>
      <point x="421" y="-78" type="curve" smooth="yes"/>
      <point x="497" y="-78" type="line"/>
      <point x="497" y="-81" type="line" smooth="yes"/>
      <point x="497" y="-89"/>
      <point x="493" y="-95"/>
      <point x="484" y="-95" type="curve" smooth="yes"/>
      <point x="425" y="-95" type="line" smooth="yes"/>
      <point x="397" y="-95"/>
      <point x="385" y="-107"/>
      <point x="385" y="-135" type="curve" smooth="yes"/>
      <point x="385" y="-159" type="line" smooth="yes"/>
      <point x="385" y="-188"/>
      <point x="397" y="-200"/>
    </contour>
  </outline>
</glyph>
<glyph name="Uogonek.v" format="1">
  <advance width="1000"/>
  <unicode hex="E1D4"/>
  <outline>
    <contour>
      <point x="607" y="-167" type="line" smooth="yes"/>
      <point x="641" y="-167"/>
      <point x="650" y="-157"/>
      <point x="650" y="-123" type="curve" smooth="yes"/>
      <point x="650" y="-51" type="line" smooth="yes"/>
      <point x="650" y="-18"/>
      <point x="640" y="-7"/>
      <point x="604" y="-7" type="curve" smooth="yes"/>
      <point x="575" y="-7" type="line"/>
      <point x="579" y="18" type="line"/>
      <point x="764" y="35"/>
      <point x="810" y="117"/>
      <point x="810" y="229" type="curve" smooth="yes"/>
      <point x="810" y="684" type="line" smooth="yes"/>
      <point x="810" y="716"/>
      <point x="796" y="730"/>
      <point x="764" y="730" type="curve" smooth="yes"/>
      <point x="612" y="730" type="line" smooth="yes"/>
      <point x="579" y="730"/>
      <point x="566" y="716"/>
      <point x="566" y="684" type="curve" smooth="yes"/>
      <point x="566" y="268" type="line" smooth="yes"/>
      <point x="566" y="245"/>
      <point x="551" y="231"/>
      <point x="502" y="231" type="curve" smooth="yes"/>
      <point x="454" y="231"/>
      <point x="439" y="245"/>
      <point x="439" y="268" type="curve" smooth="yes"/>
      <point x="439" y="684" type="line" smooth="yes"/>
      <point x="439" y="716"/>
      <point x="425" y="730"/>
      <point x="393" y="730" type="curve" smooth="yes"/>
      <point x="236" y="730" type="line" smooth="yes"/>
      <point x="204" y="730"/>
      <point x="190" y="716"/>
      <point x="190" y="684" type="curve" smooth="yes"/>
      <point x="190" y="229" type="line" smooth="yes"/>
      <point x="190" y="123"/>
      <point x="231" y="44"/>
      <point x="393" y="22" type="curve"/>
      <point x="385" y="-20" type="line" smooth="yes"/>
      <point x="370" y="-123"/>
      <point x="403" y="-167"/>
      <point x="496" y="-167" type="curve" smooth="yes"/>
    </contour>
  </outline>
</glyph>
<glyph name="Oslash.v" format="1">
  <advance width="1000"/>
  <unicode hex="E1E2"/>
  <outline>
    <contour>
      <point x="416" y="494" type="curve" smooth="yes"/>
      <point x="416" y="349" type="line"/>
      <point x="497" y="540" type="line"/>
      <point x="433" y="540"/>
      <point x="416" y="523"/>
    </contour>
    <contour>
      <point x="584" y="225" type="curve" smooth="yes"/>
      <point x="584" y="374" type="line"/>
      <point x="501" y="178" type="line"/>
      <point x="567" y="178"/>
      <point x="584" y="196"/>
    </contour>
    <contour>
      <point x="265.0" y="-80" type="line" smooth="yes"/>
      <point x="229.0" y="-80"/>
      <point x="214.0" y="-59"/>
      <point x="230.0" y="-29" type="curve"/>
      <point x="230.0" y="-30" type="line"/>
      <point x="256.0" y="30" type="line"/>
      <point x="205.0" y="68"/>
      <point x="189.0" y="124"/>
      <point x="189.0" y="189" type="curve" smooth="yes"/>
      <point x="189.0" y="530" type="line" smooth="yes"/>
      <point x="189.0" y="656"/>
      <point x="248.0" y="745"/>
      <point x="500.0" y="745" type="curve" smooth="yes"/>
      <point x="520.0" y="745"/>
      <point x="540.0" y="744"/>
      <point x="558.0" y="743" type="curve"/>
      <point x="564.0" y="758" type="line"/>
      <point x="564.0" y="759" type="line" smooth="yes"/>
      <point x="579.0" y="785"/>
      <point x="590.0" y="800"/>
      <point x="619.0" y="800" type="curve" smooth="yes"/>
      <point x="734.0" y="800" type="line" smooth="yes"/>
      <point x="770.0" y="800"/>
      <point x="785.0" y="779"/>
      <point x="769.0" y="749" type="curve"/>
      <point x="769.0" y="750" type="line"/>
      <point x="743.0" y="690" type="line"/>
      <point x="794.0" y="651"/>
      <point x="810.0" y="596"/>
      <point x="810.0" y="530" type="curve" smooth="yes"/>
      <point x="810.0" y="189" type="line" smooth="yes"/>
      <point x="810.0" y="63"/>
      <point x="752.0" y="-25"/>
      <point x="500.0" y="-25" type="curve" smooth="yes"/>
      <point x="479.0" y="-25"/>
      <point x="460.0" y="-24"/>
      <point x="441.0" y="-23" type="curve"/>
      <point x="435.0" y="-38" type="line"/>
      <point x="435.0" y="-39" type="line" smooth="yes"/>
      <point x="420.0" y="-65"/>
      <point x="409.0" y="-80"/>
      <point x="380.0" y="-80" type="curve" smooth="yes"/>
    </contour>
  </outline>
</glyph>
<glyph name="Ldot.v" format="1">
  <advance width="1000"/>
  <unicode hex="E1E7"/>
  <outline>
    <contour>
      <point x="236" y="30" type="curve" smooth="yes"/>
      <point x="764" y="30" type="line" smooth="yes"/>
      <point x="796" y="30"/>
      <point x="810" y="44"/>
      <point x="810" y="76" type="curve" smooth="yes"/>
      <point x="810" y="381" type="line" smooth="yes"/>
      <point x="810" y="413"/>
      <point x="796" y="427"/>
      <point x="764" y="427" type="curve" smooth="yes"/>
      <point x="619" y="427" type="line" smooth="yes"/>
      <point x="587" y="427"/>
      <point x="573" y="413"/>
      <point x="573" y="381" type="curve" smooth="yes"/>
      <point x="573" y="239" type="line"/>
      <point x="437" y="239" type="line"/>
      <point x="437" y="684" type="line" smooth="yes"/>
      <point x="437" y="716"/>
      <point x="423" y="730"/>
      <point x="391" y="730" type="curve" smooth="yes"/>
      <point x="236" y="730" type="line" smooth="yes"/>
      <point x="204" y="730"/>
      <point x="190" y="716"/>
      <point x="190" y="684" type="curve" smooth="yes"/>
      <point x="190" y="76" type="line" smooth="yes"/>
      <point x="190" y="44"/>
      <point x="204" y="30"/>
    </contour>
    <contour>
      <point x="642" y="-184" type="curve" smooth="yes"/>
      <point x="642" y="-57" type="line" smooth="yes"/>
      <point x="642" y="-25"/>
      <point x="628" y="-11"/>
      <point x="596" y="-11" type="curve" smooth="yes"/>
      <point x="438" y="-11" type="line" smooth="yes"/>
      <point x="406" y="-11"/>
      <point x="392" y="-25"/>
      <point x="392" y="-57" type="curve" smooth="yes"/>
      <point x="392" y="-184" type="line" smooth="yes"/>
      <point x="392" y="-216"/>
      <point x="406" y="-230"/>
      <point x="438" y="-230" type="curve" smooth="yes"/>
      <point x="596" y="-230" type="line" smooth="yes"/>
      <point x="628" y="-230"/>
      <point x="642" y="-216"/>
    </contour>
  </outline>
</glyph>
<glyph name="Lslash.v" format="1">
  <advance width="1000"/>
  <unicode hex="E1E8"/>
  <outline>
    <contour>
      <point x="765" y="-10" type="line" smooth="yes"/>
      <point x="797" y="-10"/>
      <point x="811" y="4"/>
      <point x="811" y="36" type="curve" smooth="yes"/>
      <point x="811" y="351" type="line" smooth="yes"/>
      <point x="811" y="383"/>
      <point x="797" y="397"/>
      <point x="765" y="397" type="curve" smooth="yes"/>
      <point x="620" y="397" type="line" smooth="yes"/>
      <point x="588" y="397"/>
      <point x="574" y="383"/>
      <point x="574" y="351" type="curve" smooth="yes"/>
      <point x="574" y="199" type="line"/>
      <point x="438" y="199" type="line"/>
      <point x="438" y="315" type="line"/>
      <point x="488" y="323" type="line" smooth="yes"/>
      <point x="519" y="328"/>
      <point x="532" y="337"/>
      <point x="532" y="369" type="curve" smooth="yes"/>
      <point x="532" y="476" type="line" smooth="yes"/>
      <point x="532" y="511"/>
      <point x="516" y="527"/>
      <point x="484" y="522" type="curve" smooth="yes"/>
      <point x="438" y="515" type="line"/>
      <point x="438" y="684" type="line" smooth="yes"/>
      <point x="438" y="716"/>
      <point x="424" y="730"/>
      <point x="392" y="730" type="curve" smooth="yes"/>
      <point x="237" y="730" type="line" smooth="yes"/>
      <point x="205" y="730"/>
      <point x="191" y="716"/>
      <point x="191" y="684" type="curve" smooth="yes"/>
      <point x="191" y="474" type="line"/>
      <point x="176" y="472" type="line" smooth="yes"/>
      <point x="145" y="467"/>
      <point x="132" y="457"/>
      <point x="132" y="426" type="curve" smooth="yes"/>
      <point x="132" y="319" type="line" smooth="yes"/>
      <point x="132" y="284"/>
      <point x="148" y="268"/>
      <point x="180" y="273" type="curve" smooth="yes"/>
      <point x="191" y="275" type="line"/>
      <point x="191" y="36" type="line" smooth="yes"/>
      <point x="191" y="4"/>
      <point x="205" y="-10"/>
      <point x="237" y="-10" type="curve" smooth="yes"/>
    </contour>
  </outline>
</glyph>
<glyph name="Eng.v" format="1">
  <advance width="1000"/>
  <unicode hex="E1E9"/>
  <outline>
    <contour>
      <point x="190.0" y="36" type="line" smooth="yes"/>
      <point x="190.0" y="4"/>
      <point x="204.0" y="-10"/>
      <point x="236.0" y="-10" type="curve" smooth="yes"/>
      <point x="388.0" y="-10" type="line" smooth="yes"/>
      <point x="421.0" y="-10"/>
      <point x="434.0" y="4"/>
      <point x="434.0" y="36" type="curve" smooth="yes"/>
      <point x="434.0" y="473" type="line" smooth="yes"/>
      <point x="434.0" y="496"/>
      <point x="449.0" y="510"/>
      <point x="498.0" y="510" type="curve" smooth="yes"/>
      <point x="546.0" y="510"/>
      <point x="561.0" y="496"/>
      <point x="561.0" y="473" type="curve" smooth="yes"/>
      <point x="561.0" y="150" type="line" smooth="yes"/>
      <point x="561.0" y="129"/>
      <point x="558.0" y="112"/>
      <point x="530.0" y="112" type="curve" smooth="yes"/>
      <point x="509.0" y="112" type="line" smooth="yes"/>
      <point x="477.0" y="112"/>
      <point x="463.0" y="98"/>
      <point x="463.0" y="66" type="curve" smooth="yes"/>
      <point x="463.0" y="-54" type="line" smooth="yes"/>
      <point x="463.0" y="-86"/>
      <point x="477.0" y="-100"/>
      <point x="509.0" y="-100" type="curve" smooth="yes"/>
      <point x="554.0" y="-100" type="line" smooth="yes"/>
      <point x="752.0" y="-100"/>
      <point x="810.0" y="-12"/>
      <point x="810.0" y="115" type="curve" smooth="yes"/>
      <point x="810.0" y="512" type="line" smooth="yes"/>
      <point x="810.0" y="638"/>
      <point x="751.0" y="726"/>
      <point x="500.0" y="726" type="curve" smooth="yes"/>
      <point x="249.0" y="726"/>
      <point x="190.0" y="638"/>
      <point x="190.0" y="512" type="curve" smooth="yes"/>
    </contour>
  </outline>
</glyph>
<glyph name="Aogonek.salt_v" format="1">
  <advance width="1000"/>
  <unicode hex="E1F6"/>
  <outline>
    <contour>
      <point x="428" y="457" type="line" smooth="yes"/>
      <point x="428" y="481"/>
      <point x="442" y="494"/>
      <point x="498" y="494" type="curve" smooth="yes"/>
      <point x="553" y="494"/>
      <point x="567" y="481"/>
      <point x="567" y="457" type="curve" smooth="yes"/>
      <point x="567" y="358" type="line"/>
      <point x="428" y="358" type="line"/>
    </contour>
    <contour>
      <point x="813" y="-152" type="curve" smooth="yes"/>
      <point x="813" y="-80" type="line" smooth="yes"/>
      <point x="813" y="-47"/>
      <point x="803" y="-36"/>
      <point x="767" y="-36" type="curve" smooth="yes"/>
      <point x="738" y="-36" type="line"/>
      <point x="742" y="-10" type="line"/>
      <point x="765" y="-10" type="line" smooth="yes"/>
      <point x="797" y="-10"/>
      <point x="811" y="4"/>
      <point x="811" y="36" type="curve" smooth="yes"/>
      <point x="811" y="491" type="line" smooth="yes"/>
      <point x="811" y="616"/>
      <point x="760" y="705"/>
      <point x="499" y="705" type="curve" smooth="yes"/>
      <point x="239" y="705"/>
      <point x="189" y="616"/>
      <point x="189" y="491" type="curve" smooth="yes"/>
      <point x="189" y="36" type="line" smooth="yes"/>
      <point x="189" y="4"/>
      <point x="203" y="-10"/>
      <point x="235" y="-10" type="curve" smooth="yes"/>
      <point x="382" y="-10" type="line" smooth="yes"/>
      <point x="414" y="-10"/>
      <point x="428" y="4"/>
      <point x="428" y="36" type="curve" smooth="yes"/>
      <point x="428" y="155" type="line"/>
      <point x="567" y="155" type="line"/>
      <point x="567" y="55" type="line"/>
      <point x="548" y="-49" type="line" smooth="yes"/>
      <point x="533" y="-152"/>
      <point x="566" y="-196"/>
      <point x="659" y="-196" type="curve" smooth="yes"/>
      <point x="770" y="-196" type="line" smooth="yes"/>
      <point x="804" y="-196"/>
      <point x="813" y="-186"/>
    </contour>
  </outline>
</glyph>
<glyph name="Iogonek.salt_v" format="1">
  <advance width="1000"/>
  <unicode hex="E20A"/>
  <outline>
    <contour>
      <point x="621" y="-152" type="curve" smooth="yes"/>
      <point x="621" y="-80" type="line" smooth="yes"/>
      <point x="621" y="-47"/>
      <point x="611" y="-36"/>
      <point x="575" y="-36" type="curve" smooth="yes"/>
      <point x="546" y="-36" type="line"/>
      <point x="550" y="-10" type="line"/>
      <point x="579" y="-10" type="line" smooth="yes"/>
      <point x="611" y="-10"/>
      <point x="625" y="4"/>
      <point x="625" y="36" type="curve" smooth="yes"/>
      <point x="625" y="644" type="line" smooth="yes"/>
      <point x="625" y="676"/>
      <point x="611" y="690"/>
      <point x="579" y="690" type="curve" smooth="yes"/>
      <point x="420" y="690" type="line" smooth="yes"/>
      <point x="388" y="690"/>
      <point x="374" y="676"/>
      <point x="374" y="644" type="curve" smooth="yes"/>
      <point x="374" y="50" type="line"/>
      <point x="356" y="-49" type="line" smooth="yes"/>
      <point x="341" y="-152"/>
      <point x="374" y="-196"/>
      <point x="467" y="-196" type="curve" smooth="yes"/>
      <point x="578" y="-196" type="line" smooth="yes"/>
      <point x="612" y="-196"/>
      <point x="621" y="-186"/>
    </contour>
  </outline>
</glyph>
<glyph name="L.salt_v" format="1">
  <advance width="1000"/>
  <unicode hex="E20C"/>
  <outline>
    <contour>
      <point x="392" y="730" type="line" smooth="yes"/>
      <point x="424" y="730"/>
      <point x="438" y="716"/>
      <point x="438" y="684" type="curve" smooth="yes"/>
      <point x="438" y="193" type="line"/>
      <point x="428" y="203" type="line"/>
      <point x="755" y="203" type="line" smooth="yes"/>
      <point x="787" y="203"/>
      <point x="801" y="189"/>
      <point x="801" y="157" type="curve" smooth="yes"/>
      <point x="801" y="36" type="line" smooth="yes"/>
      <point x="801" y="4"/>
      <point x="787" y="-10"/>
      <point x="755" y="-10" type="curve" smooth="yes"/>
      <point x="237" y="-10" type="line" smooth="yes"/>
      <point x="205" y="-10"/>
      <point x="191" y="4"/>
      <point x="191" y="36" type="curve" smooth="yes"/>
      <point x="191" y="684" type="line" smooth="yes"/>
      <point x="191" y="716"/>
      <point x="205" y="730"/>
      <point x="237" y="730" type="curve" smooth="yes"/>
    </contour>
  </outline>
</glyph>
<glyph name="Lslash.salt_v" format="1">
  <advance width="1000"/>
  <unicode hex="E211"/>
  <outline>
    <contour>
      <point x="237" y="-10" type="curve" smooth="yes"/>
      <point x="755" y="-10" type="line" smooth="yes"/>
      <point x="787" y="-10"/>
      <point x="801" y="4"/>
      <point x="801" y="36" type="curve" smooth="yes"/>
      <point x="801" y="157" type="line" smooth="yes"/>
      <point x="801" y="189"/>
      <point x="787" y="203"/>
      <point x="755" y="203" type="curve" smooth="yes"/>
      <point x="438" y="203" type="line"/>
      <point x="438" y="315" type="line"/>
      <point x="488" y="323" type="line" smooth="yes"/>
      <point x="519" y="328"/>
      <point x="532" y="337"/>
      <point x="532" y="369" type="curve" smooth="yes"/>
      <point x="532" y="476" type="line" smooth="yes"/>
      <point x="532" y="511"/>
      <point x="516" y="527"/>
      <point x="484" y="522" type="curve" smooth="yes"/>
      <point x="438" y="515" type="line"/>
      <point x="438" y="684" type="line" smooth="yes"/>
      <point x="438" y="716"/>
      <point x="424" y="730"/>
      <point x="392" y="730" type="curve" smooth="yes"/>
      <point x="237" y="730" type="line" smooth="yes"/>
      <point x="205" y="730"/>
      <point x="191" y="716"/>
      <point x="191" y="684" type="curve" smooth="yes"/>
      <point x="191" y="474" type="line"/>
      <point x="176" y="472" type="line" smooth="yes"/>
      <point x="145" y="467"/>
      <point x="132" y="457"/>
      <point x="132" y="426" type="curve" smooth="yes"/>
      <point x="132" y="319" type="line" smooth="yes"/>
      <point x="132" y="284"/>
      <point x="148" y="268"/>
      <point x="180" y="273" type="curve" smooth="yes"/>
      <point x="191" y="275" type="line"/>
      <point x="191" y="36" type="line" smooth="yes"/>
      <point x="191" y="4"/>
      <point x="205" y="-10"/>
    </contour>
  </outline>
</glyph>
<glyph name="N.salt_v" format="1">
  <advance width="1000"/>
  <unicode hex="E214"/>
  <outline>
    <contour>
      <point x="190.0" y="37" type="line" smooth="yes"/>
      <point x="190.0" y="5"/>
      <point x="204.0" y="-10"/>
      <point x="236.0" y="-10" type="curve" smooth="yes"/>
      <point x="388.0" y="-10" type="line" smooth="yes"/>
      <point x="421.0" y="-10"/>
      <point x="434.0" y="5"/>
      <point x="434.0" y="37" type="curve" smooth="yes"/>
      <point x="434.0" y="493" type="line" smooth="yes"/>
      <point x="434.0" y="516"/>
      <point x="449.0" y="530"/>
      <point x="498.0" y="530" type="curve" smooth="yes"/>
      <point x="546.0" y="530"/>
      <point x="561.0" y="516"/>
      <point x="561.0" y="493" type="curve" smooth="yes"/>
      <point x="561.0" y="37" type="line" smooth="yes"/>
      <point x="561.0" y="5"/>
      <point x="575.0" y="-10"/>
      <point x="607.0" y="-10" type="curve" smooth="yes"/>
      <point x="764.0" y="-10" type="line" smooth="yes"/>
      <point x="796.0" y="-10"/>
      <point x="810.0" y="5"/>
      <point x="810.0" y="37" type="curve" smooth="yes"/>
      <point x="810.0" y="532" type="line" smooth="yes"/>
      <point x="810.0" y="658"/>
      <point x="760.0" y="746"/>
      <point x="500.0" y="746" type="curve" smooth="yes"/>
      <point x="240.0" y="746"/>
      <point x="190.0" y="658"/>
      <point x="190.0" y="532" type="curve" smooth="yes"/>
    </contour>
    <contour>
      <point x="509.0" y="747.0" type="move" name="top"/>
    </contour>
    <contour>
      <point x="509.0" y="0.0" type="move" name="bottom"/>
    </contour>
  </outline>
</glyph>
